<svg width="60" height="60" viewBox="0 0 60 60" fill="none" xmlns="http://www.w3.org/2000/svg">
<path d="M58.6842 9.13047C58.6872 8.78624 58.5541 8.45474 58.3138 8.20834L50.4877 0.382255C50.2424 0.140013 49.9103 0.00611413 49.5656 0.0105163V0H16.9569C16.2365 0 15.6525 0.584021 15.6525 1.30439V23.4888L14.1473 23.5018C13.8032 23.5067 13.4751 23.6474 13.2342 23.8932L1.68034 35.6087C1.4403 35.852 1.30542 36.1799 1.30469 36.5218V52.1608C1.30432 52.5117 1.44544 52.8478 1.69599 53.0935L6.80386 58.0969C7.04781 58.3355 7.37565 58.4689 7.71694 58.4687H7.73002C8.07413 58.4638 8.40221 58.3231 8.64311 58.0774L9.64619 57.0535C10.7 57.7372 11.9299 58.0997 13.1861 58.0969H13.2552C14.0781 58.0877 14.8916 57.9222 15.6526 57.6091V58.6956C15.6526 59.416 16.2366 60 16.957 60H57.3918C58.1121 60 58.6962 59.416 58.6962 58.6956V9.13047H58.6842ZM50.8698 4.45304L54.2429 7.82608H50.8698V4.45304ZM14.429 40.4348C14.0827 40.4346 13.7505 40.572 13.5056 40.8169L10.7365 43.586C9.72005 44.6013 8.22955 44.9792 6.85216 44.5708L6.11125 47.0725C8.40612 47.7543 10.89 47.1239 12.5821 45.4304L14.969 43.0434H15.6525V54.5973C14.9722 55.1615 14.1193 55.4759 13.2355 55.4881C12.1959 55.5097 11.1925 55.1059 10.4573 54.3704C10.2188 54.1153 9.88 53.9783 9.53125 53.9961C9.18714 54.0009 8.85906 54.1416 8.61816 54.3874L7.70508 55.32L3.91334 51.613V37.0565L14.7081 26.1L15.6525 26.0974V31.3043C15.6526 31.6136 15.7626 31.9126 15.9629 32.1482L18.6003 34.8351C18.8449 35.0798 19.1766 35.2172 19.5225 35.2172L27.3916 35.2174V36.5034C27.3838 37.7906 26.7565 38.9952 25.7064 39.7395C25.0511 40.191 24.2744 40.4334 23.4785 40.4347H14.429V40.4348ZM56.0873 57.3912H18.2611V43.0434H23.4785C27.0754 43.0485 29.9952 40.1368 30.0002 36.54C30.0002 36.5339 30.0002 36.5277 30.0002 36.5218V35.2174C29.996 33.7783 28.8305 32.613 27.3916 32.6087H20.0611L18.2611 30.8126V2.60865H48.2611V7.82608C48.2611 9.26681 49.429 10.4347 50.8697 10.4347H56.0871V57.3912H56.0873Z" fill="#FF5656"/>
<path d="M23.4778 7.82617H20.8691V10.4348H23.4778V7.82617Z" fill="#FF5656"/>
<path d="M28.6946 7.82617H26.0859V10.4348H28.6946V7.82617Z" fill="#FF5656"/>
<path d="M50.8691 15.6523H20.8691V18.261H50.8691V15.6523Z" fill="#FF5656"/>
<path d="M50.8691 23.478H20.8691V26.0867H50.8691V23.478Z" fill="#FF5656"/>
<path d="M44.3482 7.82617H31.3047V10.4348H44.3482V7.82617Z" fill="#FF5656"/>
<path d="M45.6515 31.3042H35.2168V33.9129H45.6515V31.3042Z" fill="#FF5656"/>
<path d="M50.8704 31.3042H48.2617V33.9129H50.8704V31.3042Z" fill="#FF5656"/>
<path d="M45.6515 39.1304H35.2168V41.739H45.6515V39.1304Z" fill="#FF5656"/>
<path d="M50.8704 39.1304H48.2617V41.739H50.8704V39.1304Z" fill="#FF5656"/>
<path d="M50.8691 45.6523H20.8691V48.261H50.8691V45.6523Z" fill="#FF5656"/>
</svg>
