<svg width="60" height="60" viewBox="0 0 60 60" fill="none" xmlns="http://www.w3.org/2000/svg">
<g clip-path="url(#clip0_1109_36470)">
<path d="M59.1211 12.212C59.6065 12.212 60 11.8186 60 11.3331V1.34766C60 0.60457 59.3954 0 58.6523 0H17.4023C16.6593 0 16.0547 0.60457 16.0547 1.34766V30.5859H1.34766C0.60457 30.5859 0 31.1905 0 31.9336V58.6523C0 59.3954 0.60457 60 1.34766 60H8.91527C10.0773 59.964 10.0765 58.2778 8.91527 58.2422H1.75781V32.3438H49.2188V58.2422H8.91527C7.75324 58.2782 7.75406 59.9644 8.91527 60H58.6523C59.3954 60 60 59.3954 60 58.6523V11.3331C59.964 10.1711 58.2778 10.1719 58.2422 11.3331V51.6797H50.9766V31.9336C50.9766 31.1905 50.372 30.5859 49.6289 30.5859H17.8125V1.75781H58.2422V11.3331C58.2422 11.8185 58.6357 12.212 59.1211 12.212ZM58.2422 53.4375V58.2422H50.9766V53.4375H58.2422Z" fill="#FF5656"/>
<path d="M23.2579 10.9863H29.0482C30.2102 10.9504 30.2094 9.26414 29.0482 9.22852H23.2579C22.0959 9.26449 22.0967 10.9507 23.2579 10.9863Z" fill="#FF5656"/>
<path d="M23.2579 15.1606H38.8075C39.9696 15.1247 39.9688 13.4385 38.8075 13.4028H23.2579C22.0959 13.4388 22.0967 15.125 23.2579 15.1606Z" fill="#FF5656"/>
<path d="M23.2579 19.2783H38.8075C39.9696 19.2423 39.9688 17.5561 38.8075 17.5205H23.2579C22.0959 17.5565 22.0967 19.2427 23.2579 19.2783Z" fill="#FF5656"/>
<path d="M23.2579 23.3955H38.8075C39.9696 23.3595 39.9688 21.6733 38.8075 21.6377H23.2579C22.0959 21.6737 22.0967 23.3599 23.2579 23.3955Z" fill="#FF5656"/>
<path d="M23.2579 27.5127H52.4922C53.6543 27.4767 53.6534 25.7905 52.4922 25.7549H23.2579C22.0959 25.7909 22.0967 27.4772 23.2579 27.5127Z" fill="#FF5656"/>
<path d="M42.0586 56.4844C42.4986 56.4844 42.9221 56.2991 43.2206 55.9759C43.5186 55.6533 43.6697 55.217 43.6349 54.7794C43.6253 54.6584 43.6275 54.5345 43.6412 54.4112C43.7389 53.5399 44.4445 52.8468 45.3195 52.7632C45.4488 52.7508 45.5791 52.7515 45.7064 52.7651C46.6136 52.8839 47.4811 52.1085 47.4609 51.1934V39.3926C47.4609 38.9447 47.2699 38.5161 46.9366 38.2171C46.6024 37.9168 46.1544 37.7723 45.7062 37.8207C45.5793 37.8343 45.4491 37.835 45.319 37.8227C44.4445 37.7391 43.7389 37.0459 43.6412 36.1746C43.6274 36.0514 43.6253 35.9277 43.6349 35.8066C43.6697 35.3689 43.5186 34.9327 43.2206 34.61C42.9223 34.2868 42.4986 34.1016 42.0586 34.1016H8.91797C8.47793 34.1016 8.05441 34.2868 7.75594 34.61C7.45793 34.9327 7.30687 35.3689 7.34168 35.8065C7.35129 35.9276 7.34906 36.0514 7.33535 36.1747C7.23762 37.046 6.53203 37.7392 5.65758 37.8227C5.52762 37.8349 5.3973 37.8347 5.26992 37.8206C4.82273 37.7727 4.37414 37.9167 4.0398 38.2171C3.70664 38.5162 3.51562 38.9447 3.51562 39.3926V51.1934C3.51562 51.6414 3.70676 52.0698 4.04004 52.369C4.37437 52.6692 4.8225 52.8141 5.26969 52.7652C5.39742 52.7515 5.52773 52.7507 5.65758 52.7632C6.53191 52.8469 7.23762 53.54 7.33535 54.4113C7.34918 54.5345 7.35129 54.6582 7.34168 54.7793C7.30687 55.217 7.45793 55.6533 7.75594 55.9759C8.05441 56.2991 8.47793 56.4844 8.91797 56.4844H42.0586ZM5.82551 51.0134C5.64199 50.9958 5.45695 50.9917 5.27344 51.0019V39.5838C5.45637 39.5936 5.64129 39.5899 5.82504 39.5723C7.5225 39.4098 8.8923 38.0633 9.08227 36.3705C9.10137 36.2006 9.10875 36.0293 9.10418 35.8593H41.8725C41.8679 36.0293 41.8753 36.2005 41.8944 36.3704C42.0844 38.0633 43.4542 39.4099 45.1516 39.5723C45.3355 39.5898 45.5203 39.5936 45.7032 39.5838V51.0019C45.5197 50.9918 45.3347 50.9958 45.1516 51.0134C43.4542 51.1758 42.0844 52.5224 41.8945 54.2152C41.8754 54.3851 41.868 54.5564 41.8726 54.7264H9.10406C9.10863 54.5564 9.10125 54.3852 9.08215 54.2153C8.8923 52.5224 7.5225 51.1758 5.82551 51.0134Z" fill="#FF5656"/>
<path d="M25.4883 52.7342C29.5915 52.7342 32.9297 49.396 32.9297 45.2928C32.5555 35.4342 18.4195 35.4369 18.0469 45.2929C18.0469 49.396 21.3851 52.7342 25.4883 52.7342ZM25.4883 39.6092C28.6222 39.6092 31.1719 42.1588 31.1719 45.2928C30.8862 52.8225 20.0892 52.8204 19.8047 45.2926C19.8047 42.1588 22.3543 39.6092 25.4883 39.6092Z" fill="#FF5656"/>
<path d="M45.4804 21.4926C45.9169 21.6789 46.4431 21.4743 46.6309 21.0222L51.3518 9.77339C51.5397 9.32585 51.3291 8.81069 50.8816 8.62284C50.4339 8.43511 49.9189 8.64569 49.731 9.09323L45.0101 20.3421C44.8223 20.7896 45.0328 21.3048 45.4804 21.4926Z" fill="#FF5656"/>
<path d="M44.918 8.03027C43.2831 8.03027 41.9531 9.51199 41.9531 11.3332C42.1066 15.7109 47.7299 15.7098 47.8829 11.3332C47.8829 9.51199 46.5529 8.03027 44.918 8.03027ZM44.918 12.8784C44.2637 12.8784 43.7109 12.1709 43.7109 11.3332C43.7715 9.28641 46.0646 9.28676 46.1251 11.3332C46.1251 12.1852 45.5836 12.8784 44.918 12.8784Z" fill="#FF5656"/>
<path d="M51.293 15.7212C49.6581 15.7212 48.3281 17.2029 48.3281 19.0241C48.4816 23.4017 54.1049 23.4006 54.2579 19.0241C54.2578 17.2029 52.9277 15.7212 51.293 15.7212ZM51.293 20.5691C50.6273 20.5691 50.0859 19.876 50.0859 19.024C50.1465 16.9772 52.4397 16.9776 52.5001 19.024C52.5 19.876 51.9585 20.5691 51.293 20.5691Z" fill="#FF5656"/>
</g>
<defs>
<clipPath id="clip0_1109_36470">
<rect width="60" height="60" fill="white"/>
</clipPath>
</defs>
</svg>
