<svg width="60" height="60" viewBox="0 0 60 60" fill="none" xmlns="http://www.w3.org/2000/svg">
<g clip-path="url(#clip0_1109_36414)">
<path d="M59.5828 17.5912L34.4215 0.171883C34.0897 -0.0572943 33.6512 -0.0572943 33.3195 0.171883L8.15823 17.5912C7.89787 17.7722 7.74194 18.0694 7.74194 18.3865V25.1607H2.90323C1.30277 25.1607 0 26.4635 0 28.0639V57.0962C0 57.5437 0.109155 57.9614 0.291079 58.3399L0.283518 58.3479L0.308562 58.373C0.591135 58.9457 1.05469 59.4083 1.62692 59.6908L1.65197 59.7159L1.65953 59.7083C2.03802 59.8903 2.45621 59.9994 2.90323 59.9994H49.3548C49.8018 59.9994 50.22 59.8903 50.5985 59.7083L50.6061 59.7159L50.6311 59.6908C51.2043 59.4073 51.6669 58.9447 51.9495 58.373L51.9745 58.3479L51.967 58.3399C52.1489 57.9614 52.2581 57.5437 52.2581 57.0962V52.2575H57.0968C58.6972 52.2575 60 50.9552 60 49.3542V18.3865C60 18.0694 59.8441 17.7722 59.5828 17.5912ZM52.2581 43.1476V30.4001L58.0645 24.5937V48.954L52.2581 43.1476ZM26.129 48.0392L3.36489 27.0962H48.8932L26.129 48.0392ZM46.4516 25.1607H21.2903V16.451C21.2903 15.918 21.725 15.4833 22.2581 15.4833H45.4839C46.0169 15.4833 46.4516 15.918 46.4516 16.451V25.1607ZM9.67742 18.894L33.871 2.14422L58.0645 18.894V21.8572L52.2212 27.7001C52.0402 26.273 50.8315 25.1607 49.3548 25.1607H48.3871V16.451C48.3871 14.8506 47.0843 13.5478 45.4839 13.5478H22.2581C20.6576 13.5478 19.3548 14.8506 19.3548 16.451V25.1607H9.67742V18.894ZM1.93548 28.4117L16.6666 41.9648L1.93548 56.696V28.4117ZM3.30393 58.0639L18.0918 43.2761L25.4727 50.0668C25.6589 50.2369 25.8937 50.322 26.129 50.322C26.3644 50.322 26.5992 50.2369 26.784 50.0668L34.1654 43.2761L48.9541 58.0639H3.30393ZM35.5914 41.9648L50.3226 28.4117V56.696L35.5914 41.9648ZM52.2581 45.884L56.6961 50.322H52.2581V45.884Z" fill="#FF5656"/>
<path d="M23.2266 17.4189H34.8395V19.3544H23.2266V17.4189Z" fill="#FF5656"/>
<path d="M23.2266 21.29H44.5169V23.2255H23.2266V21.29Z" fill="#FF5656"/>
</g>
<defs>
<clipPath id="clip0_1109_36414">
<rect width="60" height="60" fill="white"/>
</clipPath>
</defs>
</svg>
