<svg width="60" height="60" viewBox="0 0 60 60" fill="none" xmlns="http://www.w3.org/2000/svg">
<g clip-path="url(#clip0_1109_36392)">
<path d="M58.5858 19.2018L30.5273 0.162114C30.2091 -0.0540967 29.7909 -0.0539795 29.4724 0.162114L1.41398 19.2018C1.15629 19.3766 1.00195 19.6677 1.00195 19.9792V59.0607C1.00195 59.5795 1.42254 60.0002 1.94145 60.0002H58.0583C58.5772 60.0002 58.9978 59.5796 58.9978 59.0607V19.9792C58.9978 19.6677 58.8436 19.3766 58.5858 19.2018ZM23.0478 58.1212H12.9018V47.9751H15.0312V53.0481C15.0312 53.5669 15.4518 53.9876 15.9707 53.9876H19.9791C20.4979 53.9876 20.9186 53.567 20.9186 53.0481V47.9751H23.048L23.0478 58.1212ZM10.8976 24.0502V21.9208H49.1023V24.0502H10.8976ZM16.9102 52.1086V47.9751H19.0396V52.1086H16.9102ZM23.0478 46.0961H19.9789H15.9705H12.9016V35.95H15.0311V41.023C15.0311 41.5418 15.4516 41.9625 15.9705 41.9625H19.9789C20.4977 41.9625 20.9184 41.542 20.9184 41.023V35.95H23.0478V46.0961ZM16.9102 40.0836V35.95H19.0396V40.0836H16.9102ZM35.0729 58.1212H24.9268V47.9751H27.0562V53.0481C27.0562 53.5669 27.4768 53.9876 27.9957 53.9876H32.0041C32.523 53.9876 32.9436 53.567 32.9436 53.0481V47.9751H35.073L35.0729 58.1212ZM28.9351 52.1086V47.9751H31.0645V52.1086H28.9351ZM57.1189 58.1212H48.977V38.0167C48.977 37.4979 48.5565 37.0772 48.0375 37.0772C47.5186 37.0772 47.098 37.4978 47.098 38.0167V58.1211H36.9519V47.0356C36.9519 46.5168 36.5314 46.0961 36.0124 46.0961H24.9268V35.0105C24.9268 34.4917 24.5062 34.071 23.9873 34.071H12.9018V25.9291H47.098V29.9688V38.0167C47.098 38.5355 47.5185 38.9562 48.0375 38.9562C48.5564 38.9562 48.977 38.5356 48.977 38.0167V25.9291H50.0418C50.5607 25.9291 50.9812 25.5085 50.9812 24.9896V20.9813C50.9812 20.4625 50.5608 20.0418 50.0418 20.0418H9.95812C9.43933 20.0418 9.01863 20.4624 9.01863 20.9813V24.9897C9.01863 25.5085 9.43922 25.9292 9.95812 25.9292H11.0229V58.1213H2.88094V20.477L29.9999 2.07485L57.1188 20.477L57.1189 58.1212Z" fill="#FF5656"/>
<path d="M34.0089 8.0166H25.9922C25.4734 8.0166 25.0527 8.43719 25.0527 8.95609C25.0527 9.475 25.4733 9.89559 25.9922 9.89559H34.0089C34.5278 9.89559 34.9484 9.475 34.9484 8.95609C34.9484 8.43719 34.5278 8.0166 34.0089 8.0166Z" fill="#FF5656"/>
<path d="M34.0089 12.0249H25.9922C25.4734 12.0249 25.0527 12.4455 25.0527 12.9644C25.0527 13.4833 25.4733 13.9039 25.9922 13.9039H34.0089C34.5278 13.9039 34.9484 13.4833 34.9484 12.9644C34.9484 12.4455 34.5278 12.0249 34.0089 12.0249Z" fill="#FF5656"/>
<path d="M34.0089 16.0332H25.9922C25.4734 16.0332 25.0527 16.4538 25.0527 16.9727C25.0527 17.4916 25.4733 17.9122 25.9922 17.9122H34.0089C34.5278 17.9122 34.9484 17.4916 34.9484 16.9727C34.9484 16.4538 34.5278 16.0332 34.0089 16.0332Z" fill="#FF5656"/>
<path d="M19.9791 43.0898H15.9707C15.452 43.0898 15.0312 43.5104 15.0312 44.0293C15.0312 44.5481 15.4518 44.9688 15.9707 44.9688H19.9791C20.4979 44.9688 20.9186 44.5482 20.9186 44.0293C20.9185 43.5104 20.4979 43.0898 19.9791 43.0898Z" fill="#FF5656"/>
<path d="M19.9791 55.1147H15.9707C15.452 55.1147 15.0312 55.5353 15.0312 56.0542C15.0312 56.573 15.4518 56.9937 15.9707 56.9937H19.9791C20.4979 56.9937 20.9186 56.5731 20.9186 56.0542C20.9185 55.5354 20.4979 55.1147 19.9791 55.1147Z" fill="#FF5656"/>
<path d="M32.0045 55.1147H27.9961C27.4773 55.1147 27.0566 55.5353 27.0566 56.0542C27.0566 56.573 27.4772 56.9937 27.9961 56.9937H32.0045C32.5234 56.9937 32.944 56.5731 32.944 56.0542C32.944 55.5354 32.5236 55.1147 32.0045 55.1147Z" fill="#FF5656"/>
</g>
<defs>
<clipPath id="clip0_1109_36392">
<rect width="60" height="60" fill="white"/>
</clipPath>
</defs>
</svg>
