<svg width="60" height="60" viewBox="0 0 60 60" fill="none" xmlns="http://www.w3.org/2000/svg">
<g clip-path="url(#clip0_1109_36385)">
<path d="M59.9676 30.0225C59.8496 25.5469 58.9875 21.2484 57.0981 17.2452C58.6568 13.9623 59.9558 10.644 59.9558 8.74274C59.9558 3.9483 56.0589 0.0395377 51.2526 0.0395377C48.3594 0.0395377 45.7969 1.46842 44.2145 3.65308C36.9284 -0.314731 29.9139 0.0631556 29.8784 0.0513467C20.9272 -0.728044 0.0253906 7.27843 0.0253906 30.0225C0.0253906 47.795 14.8456 60.3243 29.9965 59.9936C51.7486 59.5094 60.2511 41.5834 59.9676 30.0225ZM24.529 2.51942C22.0137 4.91664 19.9117 8.94349 18.4946 14.0213C15.8494 12.8286 13.3931 11.2226 11.2085 9.23871C14.9991 5.80231 19.581 3.49956 24.529 2.51942ZM19.8408 16.6547C22.7576 17.7057 25.8516 18.2962 29.0164 18.3907V29.0541H18.3883C18.471 24.6022 18.9788 20.3864 19.8408 16.6547ZM9.81501 10.5849C12.2713 12.8286 15.0346 14.6118 17.9986 15.9226C17.0775 19.8432 16.5343 24.2951 16.4635 29.0541H1.98568C2.22186 22.0869 4.97322 15.5919 9.81501 10.5849ZM19.1441 41.5834C20.8564 41.5834 22.2498 42.9769 22.2498 44.6892C22.2498 46.4015 20.8564 47.7949 19.1441 47.7949C17.4318 47.7949 16.0383 46.4015 16.0383 44.6892C16.0383 42.9769 17.4318 41.5834 19.1441 41.5834ZM1.98568 30.979H16.4753C16.5225 34.0848 16.7705 37.1197 17.231 40.0247C15.4007 40.7804 14.1135 42.5872 14.1135 44.6774C14.1135 45.1616 14.2079 45.6103 14.326 46.0472C12.72 47.0392 11.2085 48.1728 9.81501 49.4482C4.97322 44.453 2.22186 37.9581 1.98568 30.979ZM11.2085 50.8062C12.4484 49.6844 13.7828 48.6688 15.2117 47.7831C16.1328 48.964 17.5735 49.8733 19.7227 49.6726C21.0571 53.109 22.7104 55.766 24.5644 57.5255C19.6046 56.5572 15.011 54.2544 11.2085 50.8062ZM29.0282 57.9388C26.2295 57.3484 23.5724 54.2072 21.5649 49.0821C23.1237 48.2201 24.4463 46.555 24.1393 44.1814C25.7453 43.839 27.3749 43.6382 29.0282 43.5792V57.9388ZM29.0282 30.979V41.6425C27.186 41.7015 25.3674 41.9259 23.5843 42.3156C22.734 40.7332 21.0808 39.635 19.1559 39.635C19.1441 39.635 19.1441 39.635 19.1323 39.635C18.6953 36.8481 18.4592 33.943 18.4119 30.9672H29.0282V30.979ZM29.0282 16.4658C26.0169 16.3595 23.0883 15.7927 20.325 14.7771C22.2498 7.76259 25.4383 2.85007 29.0282 2.0943V16.4658ZM51.2526 1.98802C54.9843 1.98802 58.0192 5.02292 58.0192 8.75455C58.0192 11.6714 53.7089 19.8904 51.2526 24.2243C48.7964 19.9022 44.4861 11.6714 44.4861 8.75455C44.4861 5.02292 47.521 1.98802 51.2526 1.98802ZM44.309 14.7771C46.4582 19.8432 51.2644 28.0622 51.2644 28.0622C51.2644 28.0622 54.2285 22.9961 55.988 19.5243C57.2162 22.5474 57.8893 25.7476 57.9955 29.0541H43.5178C43.4469 24.2833 42.9037 19.8313 41.9826 15.9108C42.7738 15.5683 43.5414 15.1904 44.309 14.7771ZM43.258 5.34176C42.8092 6.39276 42.5612 7.53822 42.5612 8.75455C42.5612 9.80554 42.9627 11.2935 43.5886 12.9703C42.9037 13.3482 42.207 13.6907 41.4984 14.0213C40.0696 8.94349 37.9794 4.94025 35.4759 2.54304C38.1919 3.06263 40.8135 4.01916 43.258 5.34176ZM30.953 2.0943C34.543 2.85007 37.7196 7.75078 39.6562 14.7535C36.8811 15.7809 33.9407 16.3477 30.953 16.454V2.0943ZM30.953 18.3907C34.0942 18.2844 37.1882 17.6939 40.1286 16.6429C40.9907 20.3746 41.5103 24.6022 41.5811 29.0541H30.953V18.3907ZM30.953 30.979H41.5811C41.5103 35.431 41.0025 39.6468 40.1404 43.3784C37.2118 42.3274 34.1297 41.7488 30.953 41.6425V30.979ZM30.953 57.9388V43.5792C33.9643 43.6854 36.8929 44.2523 39.6562 45.2678C37.7314 52.2824 34.543 57.1831 30.953 57.9388ZM35.4523 57.5137C37.9676 55.1283 40.0696 51.1015 41.4866 46.0118C44.1318 47.2045 46.5881 48.8105 48.7846 50.7944C44.9939 54.2308 40.4002 56.5336 35.4523 57.5137ZM50.178 49.46C47.7218 47.2163 44.9585 45.4214 41.9826 44.1224C42.9037 40.2018 43.4469 35.7498 43.5178 30.9908H58.0074C57.7712 37.9581 55.0197 44.453 50.178 49.46Z" fill="#FF5656"/>
<path d="M51.2522 4.88135C49.1147 4.88135 47.3906 6.61726 47.3906 8.75469C47.3906 10.8921 49.1265 12.6162 51.2522 12.6162C53.3896 12.6162 55.1255 10.8803 55.1255 8.75469C55.1255 6.62907 53.3896 4.88135 51.2522 4.88135ZM51.2522 10.6914C50.1893 10.6914 49.3155 9.8293 49.3155 8.75469C49.3155 7.68007 50.1893 6.81802 51.2522 6.81802C52.315 6.81802 53.1888 7.68007 53.1888 8.75469C53.1888 9.8293 52.3268 10.6914 51.2522 10.6914Z" fill="#FF5656"/>
</g>
<defs>
<clipPath id="clip0_1109_36385">
<rect width="60" height="60" fill="white"/>
</clipPath>
</defs>
</svg>
