<svg width="24" height="24" viewBox="0 0 24 24" fill="none" xmlns="http://www.w3.org/2000/svg">
<path fill-rule="evenodd" clip-rule="evenodd" d="M3.2251 5.9751C3.2251 5.56088 3.56088 5.2251 3.9751 5.2251H19.9751C20.3893 5.2251 20.7251 5.56088 20.7251 5.9751C20.7251 6.38931 20.3893 6.7251 19.9751 6.7251H3.9751C3.56088 6.7251 3.2251 6.38931 3.2251 5.9751Z" fill="#FF5656"/>
<path fill-rule="evenodd" clip-rule="evenodd" d="M3.2251 11.9751C3.2251 11.5609 3.56088 11.2251 3.9751 11.2251H19.9751C20.3893 11.2251 20.7251 11.5609 20.7251 11.9751C20.7251 12.3893 20.3893 12.7251 19.9751 12.7251H3.9751C3.56088 12.7251 3.2251 12.3893 3.2251 11.9751Z" fill="#FF5656"/>
<path fill-rule="evenodd" clip-rule="evenodd" d="M3.2251 17.9751C3.2251 17.5609 3.56088 17.2251 3.9751 17.2251H19.9751C20.3893 17.2251 20.7251 17.5609 20.7251 17.9751C20.7251 18.3893 20.3893 18.7251 19.9751 18.7251H3.9751C3.56088 18.7251 3.2251 18.3893 3.2251 17.9751Z" fill="#FF5656"/>
</svg>
