<svg width="29" height="28" viewBox="0 0 29 28" fill="none" xmlns="http://www.w3.org/2000/svg">
<g clip-path="url(#clip0_1411_12050)">
<path d="M26.6923 15.6953C26.6923 14.3384 25.5884 13.2344 24.2314 13.2344H20.5765C21.0293 12.0101 21.3101 10.5559 21.4743 9.45432C21.6401 8.3423 21.3146 7.21667 20.5814 6.36595C19.8503 5.51775 18.7887 5.03125 17.6689 5.03125C17.2159 5.03125 16.8486 5.39853 16.8486 5.85156C16.8486 7.83327 15.7097 10.8249 14.3806 11.4913C12.8846 12.2412 9.94155 13.0723 9.35535 13.2344C8.98938 13.2344 1.50704 13.2344 1.15332 13.2344C0.700289 13.2344 0.333008 13.6017 0.333008 14.0547V25.5391C0.332953 25.9921 0.700234 26.3594 1.15327 26.3594H3.6142V27.1797C3.6142 27.6327 3.98148 28 4.43452 28H7.82514C8.82707 28 9.69042 27.3978 10.074 26.5367L15.8293 27.9755C15.8944 27.9917 15.9612 28 16.0283 28H20.9501C22.3071 28 23.4111 26.896 23.4111 25.5391C23.4111 25.219 23.3497 24.9131 23.238 24.6324C24.2819 24.3475 25.0517 23.3908 25.0517 22.2578C25.0517 21.9378 24.9903 21.6319 24.8787 21.3511C25.9225 21.0662 26.6923 20.1096 26.6923 18.9766C26.6923 18.3468 26.4546 17.7716 26.0642 17.3359C26.4546 16.9002 26.6923 16.325 26.6923 15.6953ZM3.61415 24.7188H1.97352V14.875H3.61415V24.7188ZM8.6454 25.5391C8.6454 25.9914 8.27741 26.3594 7.82509 26.3594H5.25477V14.875H8.6454V25.5391ZM19.3095 18.1562H24.2314C24.6837 18.1562 25.0517 18.5242 25.0517 18.9766C25.0517 19.4289 24.6837 19.7969 24.2314 19.7969C23.6129 19.7969 19.815 19.7969 19.3095 19.7969C18.8565 19.7969 18.4892 20.1642 18.4892 20.6172C18.4892 21.0702 18.8565 21.4375 19.3095 21.4375H22.5908C23.0431 21.4375 23.4111 21.8055 23.4111 22.2578C23.4111 22.7101 23.0431 23.0781 22.5908 23.0781C22.243 23.0781 19.6573 23.0781 19.3095 23.0781C18.8565 23.0781 18.4892 23.4454 18.4892 23.8984C18.4892 24.3515 18.8565 24.7188 19.3095 24.7188H20.9501C21.4025 24.7188 21.7705 25.0867 21.7705 25.5391C21.7705 25.9914 21.4025 26.3594 20.9501 26.3594H16.1293L10.2861 24.8986V14.6768C11.3928 14.359 13.7404 13.6475 15.1159 12.9579C16.9998 12.0134 18.1535 9.02595 18.4264 6.80591C18.7753 6.93355 19.0903 7.14891 19.3388 7.43712C19.7601 7.92586 19.947 8.57292 19.8516 9.21238C19.4631 11.8185 18.9756 12.8882 18.5758 13.6878C18.4487 13.9421 18.4622 14.2441 18.6117 14.4859C18.7612 14.7277 19.0252 14.875 19.3095 14.875H24.2314C24.6837 14.875 25.0517 15.243 25.0517 15.6953C25.0517 16.1476 24.6837 16.5156 24.2314 16.5156H19.3095C18.8565 16.5156 18.4892 16.8829 18.4892 17.3359C18.4892 17.789 18.8565 18.1562 19.3095 18.1562Z" fill="white"/>
<path d="M18.4893 0C18.0362 0 17.6689 0.367281 17.6689 0.820312V2.57031C17.6689 3.02334 18.0362 3.39062 18.4893 3.39062C18.9423 3.39062 19.3096 3.02334 19.3096 2.57031V0.820312C19.3096 0.367281 18.9423 0 18.4893 0Z" fill="white"/>
<path d="M13.849 4.15231L12.6889 2.99222C12.3686 2.67186 11.8492 2.67186 11.5288 2.99222C11.2085 3.31258 11.2085 3.83195 11.5288 4.15231L12.6889 5.31239C13.0092 5.63275 13.5287 5.63275 13.849 5.31239C14.1694 4.99204 14.1694 4.47267 13.849 4.15231Z" fill="white"/>
<path d="M11.1064 9.13281H9.46582C9.01279 9.13281 8.64551 9.50009 8.64551 9.95312C8.64551 10.4062 9.01279 10.7734 9.46582 10.7734H11.1064C11.5595 10.7734 11.9268 10.4062 11.9268 9.95312C11.9268 9.50009 11.5595 9.13281 11.1064 9.13281Z" fill="white"/>
<path d="M27.5127 9.13281H25.8721C25.419 9.13281 25.0518 9.50009 25.0518 9.95312C25.0518 10.4062 25.419 10.7734 25.8721 10.7734H27.5127C27.9657 10.7734 28.333 10.4062 28.333 9.95312C28.333 9.50009 27.9657 9.13281 27.5127 9.13281Z" fill="white"/>
<path d="M25.4496 2.99222C25.1293 2.67186 24.6099 2.67186 24.2895 2.99222L23.1294 4.15231C22.8091 4.47267 22.8091 4.99204 23.1294 5.31239C23.4497 5.63275 23.9692 5.63275 24.2895 5.31239L25.4496 4.15231C25.77 3.83195 25.77 3.31258 25.4496 2.99222Z" fill="white"/>
</g>
<defs>
<clipPath id="clip0_1411_12050">
<rect width="28" height="28" fill="white" transform="translate(0.333008)"/>
</clipPath>
</defs>
</svg>
