<svg width="18" height="18" viewBox="0 0 18 18" fill="none" xmlns="http://www.w3.org/2000/svg">
<path d="M17.5148 2.21163C17.9834 1.74304 17.9834 0.983175 17.5148 0.514578C17.0462 0.045982 16.2863 0.0459819 15.8177 0.514578L9.02948 7.3028L2.24125 0.514578C1.77266 0.0459819 1.01279 0.045982 0.544199 0.514578C0.075602 0.983175 0.0756019 1.74304 0.544198 2.21163L7.33242 8.99986L0.544198 15.7881C0.075602 16.2567 0.0756027 17.0165 0.544199 17.4851C1.0128 17.9537 1.77266 17.9537 2.24125 17.4851L9.02948 10.6969L15.8177 17.4851C16.2863 17.9537 17.0462 17.9537 17.5148 17.4851C17.9834 17.0165 17.9834 16.2567 17.5148 15.7881L10.7265 8.99986L17.5148 2.21163Z" fill="#FF5656"/>
</svg>
