<?xml version="1.0" standalone="no"?>
<!DOCTYPE svg PUBLIC "-//W3C//DTD SVG 20010904//EN"
 "http://www.w3.org/TR/2001/REC-SVG-20010904/DTD/svg10.dtd">
<svg version="1.0" xmlns="http://www.w3.org/2000/svg"
 width="260.000000pt" height="260.000000pt" viewBox="0 0 260.000000 260.000000"
 preserveAspectRatio="xMidYMid meet">
<metadata>
Created by potrace 1.14, written by Peter Selinger 2001-2017
</metadata>
<g transform="translate(0.000000,260.000000) scale(0.100000,-0.100000)"
fill="#000000" stroke="none">
<path d="M0 1300 l0 -1300 1300 0 1300 0 0 1300 0 1300 -1300 0 -1300 0 0
-1300z m2050 43 c101 -324 189 -607 196 -630 l13 -43 -174 0 -174 0 -16 58
c-9 31 -24 84 -34 117 l-17 60 -137 3 -137 3 7 27 c3 15 18 72 32 127 l26 100
66 5 66 5 -53 189 c-59 211 -62 221 -70 214 -2 -3 -62 -207 -133 -454 l-128
-449 -74 -3 -74 -3 48 32 c172 114 210 395 73 546 -19 22 -53 48 -76 58 -22
10 -40 22 -40 26 0 23 23 60 68 105 69 71 87 127 79 253 -5 80 -2 108 16 168
l21 73 221 0 222 0 183 -587z"/>
</g>
</svg>
