<svg width="72" height="72" viewBox="0 0 72 72" fill="none" xmlns="http://www.w3.org/2000/svg">
<path d="M57.149 18.5054C57.7931 18.5054 58.3154 17.9833 58.3154 17.3391V4.89853C58.3154 2.19755 56.1178 0 53.4169 0H6.14253C3.44155 0 1.24414 2.19755 1.24414 4.89853V67.1016C1.24414 69.8025 3.44155 72 6.14253 72H53.4169C56.1178 72 58.3154 69.8025 58.3154 67.1015V54.6607C58.3154 54.0165 57.7933 53.4943 57.149 53.4943C56.505 53.4943 55.9827 54.0165 55.9827 54.6607V67.1015C55.9827 68.5163 54.8317 69.6673 53.4169 69.6673H6.14253C4.7277 69.6673 3.57669 68.5163 3.57669 67.1015V4.89853C3.57669 3.4837 4.7277 2.33269 6.14253 2.33269H53.4169C54.8317 2.33269 55.9827 3.4837 55.9827 4.89853V17.3391C55.9827 17.9833 56.505 18.5054 57.149 18.5054Z" fill="#FF5656"/>
<path d="M32.2679 4.97656H27.2916C26.6475 4.97656 26.1252 5.4987 26.1252 6.14291C26.1252 6.78697 26.6474 7.30925 27.2916 7.30925H32.2679C32.9119 7.30925 33.4342 6.78711 33.4342 6.14291C33.4342 5.4987 32.9119 4.97656 32.2679 4.97656Z" fill="#FF5656"/>
<path d="M22.3153 4.98242C21.6712 4.98242 21.1489 5.51089 21.1489 6.15495C21.1489 6.79902 21.6711 7.3213 22.3153 7.3213C22.9593 7.3213 23.4816 6.79916 23.4816 6.15495V6.14244C23.4816 5.49838 22.9593 4.98242 22.3153 4.98242Z" fill="#FF5656"/>
<path d="M32.2679 64.6914H27.2916C26.6475 64.6914 26.1252 65.2135 26.1252 65.8578C26.1252 66.5018 26.6474 67.0241 27.2916 67.0241H32.2679C32.9119 67.0241 33.4342 66.502 33.4342 65.8578C33.4342 65.2135 32.9119 64.6914 32.2679 64.6914Z" fill="#FF5656"/>
<path d="M52.1722 18.5052C52.8162 18.5052 53.3385 17.9831 53.3385 17.3389V11.1185C53.3385 10.4744 52.8164 9.95215 52.1722 9.95215H7.38607C6.74201 9.95215 6.21973 10.4743 6.21973 11.1185V60.8809C6.21973 61.525 6.74187 62.0472 7.38607 62.0472H52.1722C52.8162 62.0472 53.3385 61.5251 53.3385 60.8809V54.6608C53.3385 54.0167 52.8164 53.4944 52.1722 53.4944C51.5281 53.4944 51.0058 54.0166 51.0058 54.6608V59.7146H8.55227V12.2848H51.0058V17.3389C51.0058 17.9831 51.5281 18.5052 52.1722 18.5052Z" fill="#FF5656"/>
<path d="M38.4882 51.0068H28.5357C27.8917 51.0068 27.3694 51.529 27.3694 52.1732C27.3694 52.8174 27.8915 53.3395 28.5357 53.3395H38.4882C39.1322 53.3395 39.6545 52.8174 39.6545 52.1732C39.6545 51.529 39.1324 51.0068 38.4882 51.0068Z" fill="#FF5656"/>
<path d="M23.5592 51.0068H21.0711C20.4271 51.0068 19.9048 51.529 19.9048 52.1732C19.9048 52.8174 20.4269 53.3395 21.0711 53.3395H23.5592C24.2033 53.3395 24.7255 52.8174 24.7255 52.1732C24.7255 51.529 24.2034 51.0068 23.5592 51.0068Z" fill="#FF5656"/>
<path d="M29.7797 19.9053C26.3928 19.9053 23.6372 22.6608 23.6372 26.0478C23.6372 29.4347 26.3928 32.1903 29.7797 32.1903C33.1667 32.1903 35.9222 29.4347 35.9222 26.0478C35.9222 22.661 33.1667 19.9053 29.7797 19.9053ZM29.7797 29.8579C27.6789 29.8579 25.9698 28.1487 25.9698 26.0479C25.9698 23.9471 27.6789 22.238 29.7797 22.238C31.8805 22.238 33.5897 23.9471 33.5897 26.0479C33.5897 28.1486 31.8804 29.8579 29.7797 29.8579Z" fill="#FF5656"/>
<path d="M55.9049 21.1494C47.7161 21.1494 41.054 27.8115 41.054 36.0004C41.054 40.2971 42.8734 44.2947 46.0798 47.1191C44.4709 49.7532 42.7247 51.271 42.7069 51.2862C42.3225 51.6144 42.1934 52.1529 42.3868 52.6197C42.5685 53.0579 42.9954 53.3396 43.4638 53.3396C43.4945 53.3396 43.5254 53.3383 43.5564 53.3361C43.7483 53.3209 48.1278 52.9468 52.0129 50.3343C53.279 50.6777 54.5856 50.8515 55.9049 50.8515C64.0938 50.8515 70.7559 44.1894 70.7559 36.0005C70.7559 27.8115 64.0938 21.1494 55.9049 21.1494ZM55.9049 48.5187C54.6275 48.5187 53.3647 48.3256 52.1518 47.9448C51.7988 47.8341 51.4139 47.8974 51.1148 48.1155C49.6789 49.1636 48.1026 49.8403 46.7493 50.2734C47.3547 49.4749 48.0013 48.5149 48.6075 47.4069C48.8834 46.9026 48.7506 46.2725 48.2949 45.9223C45.1755 43.5259 43.3866 39.9095 43.3866 36.0004C43.3866 29.0977 49.0024 23.4821 55.9049 23.4821C62.8077 23.4821 68.4232 29.0978 68.4232 36.0004C68.4232 42.903 62.8077 48.5187 55.9049 48.5187Z" fill="#FF5656"/>
<path d="M62.0076 29.8977C61.3176 29.2073 60.4 28.8271 59.4236 28.8271C58.4475 28.8271 57.5297 29.2074 56.8395 29.8974C55.7032 31.0336 55.4761 32.7371 56.1521 34.1037L49.8021 40.4537C49.3466 40.9092 49.3466 41.6478 49.8021 42.103C50.0297 42.3307 50.3283 42.4447 50.6267 42.4447C50.9251 42.4447 51.2236 42.3309 51.4513 42.103L52.3859 41.1684L53.3206 42.103C53.5483 42.3308 53.8469 42.4447 54.1453 42.4447C54.4437 42.4447 54.7422 42.3309 54.9699 42.103C55.4254 41.6475 55.4254 40.9089 54.9699 40.4537L54.0352 39.5191L57.8011 35.7532C58.3109 36.0054 58.8665 36.1344 59.4232 36.1344C60.3591 36.1344 61.2949 35.7782 62.0073 35.0658C62.6975 34.3756 63.0776 33.4579 63.0776 32.4817C63.0779 31.5056 62.6977 30.5879 62.0076 29.8977ZM60.3584 33.4162C59.843 33.9316 59.0044 33.9314 58.489 33.4162C57.9736 32.9008 57.9736 32.0622 58.489 31.5468C58.7386 31.2972 59.0707 31.1596 59.4238 31.1596C59.7769 31.1596 60.1087 31.2971 60.3584 31.5468C60.608 31.7964 60.7456 32.1283 60.7456 32.4814C60.7456 32.8345 60.608 33.1667 60.3584 33.4162Z" fill="#FF5656"/>
<path d="M35.893 34.4738C34.91 33.6978 33.454 33.8513 32.5786 34.823C31.8496 35.632 30.8554 36.0775 29.7796 36.0775C28.7038 36.0775 27.7096 35.632 26.9806 34.823C26.1051 33.8514 24.6491 33.698 23.6662 34.4738C21.2757 36.3603 19.9048 39.1836 19.9048 42.22V45.9522C19.9048 46.5962 20.4269 47.1185 21.0711 47.1185H38.488C39.132 47.1185 39.6543 46.5964 39.6543 45.9522V42.22C39.6544 39.1836 38.2835 36.3601 35.893 34.4738ZM37.3219 44.7857H22.2376V42.2198C22.2376 39.9021 23.2851 37.746 25.105 36.3068C25.1217 36.3039 25.1883 36.3184 25.2478 36.3845C26.408 37.6716 28.0598 38.4099 29.7796 38.4099C31.4996 38.4099 33.1514 37.6716 34.3114 36.3845C34.371 36.3184 34.438 36.3042 34.4467 36.3039L34.4479 36.3049C36.2742 37.7461 37.3218 39.9021 37.3218 42.22V44.7857H37.3219Z" fill="#FF5656"/>
</svg>
