<svg width="190" height="190" viewBox="0 0 190 190" fill="none" xmlns="http://www.w3.org/2000/svg">
<path d="M150.81 48.8337C152.51 48.8337 153.888 47.4558 153.888 45.7559V12.9267C153.888 5.79908 148.089 0 140.961 0H16.2095C9.08191 0 3.2832 5.79908 3.2832 12.9267V177.074C3.2832 184.201 9.08191 190 16.2095 190H140.961C148.089 190 153.888 184.201 153.888 177.073V144.243C153.888 142.543 152.51 141.166 150.81 141.166C149.11 141.166 147.732 142.543 147.732 144.243V177.073C147.732 180.807 144.695 183.844 140.961 183.844H16.2095C12.4759 183.844 9.43853 180.807 9.43853 177.073V12.9267C9.43853 9.19311 12.4759 6.1557 16.2095 6.1557H140.961C144.695 6.1557 147.732 9.19311 147.732 12.9267V45.7559C147.732 47.4558 149.11 48.8337 150.81 48.8337Z" fill="#FF5656"/>
<path d="M85.1512 13.1318H72.0193C70.3196 13.1318 68.9414 14.5097 68.9414 16.2097C68.9414 17.9093 70.3193 19.2875 72.0193 19.2875H85.1512C86.8508 19.2875 88.229 17.9097 88.229 16.2097C88.229 14.5097 86.8508 13.1318 85.1512 13.1318Z" fill="#FF5656"/>
<path d="M58.8874 13.1484C57.1878 13.1484 55.8096 14.543 55.8096 16.2426C55.8096 17.9422 57.1874 19.3205 58.8874 19.3205C60.587 19.3205 61.9653 17.9426 61.9653 16.2426V16.2096C61.9653 14.51 60.587 13.1484 58.8874 13.1484Z" fill="#FF5656"/>
<path d="M85.1512 170.713H72.0193C70.3196 170.713 68.9414 172.091 68.9414 173.791C68.9414 175.49 70.3193 176.869 72.0193 176.869H85.1512C86.8508 176.869 88.229 175.491 88.229 173.791C88.229 172.091 86.8508 170.713 85.1512 170.713Z" fill="#FF5656"/>
<path d="M137.677 48.8338C139.376 48.8338 140.754 47.456 140.754 45.756V29.341C140.754 27.6414 139.376 26.2632 137.677 26.2632H19.4909C17.7913 26.2632 16.4131 27.6411 16.4131 29.341V160.659C16.4131 162.358 17.791 163.736 19.4909 163.736H137.677C139.376 163.736 140.754 162.358 140.754 160.659V144.244C140.754 142.545 139.376 141.166 137.677 141.166C135.977 141.166 134.599 142.544 134.599 144.244V157.581H22.5684V32.4189H134.599V45.756C134.599 47.456 135.977 48.8338 137.677 48.8338Z" fill="#FF5656"/>
<path d="M101.566 134.601H75.3025C73.6028 134.601 72.2246 135.978 72.2246 137.678C72.2246 139.378 73.6025 140.756 75.3025 140.756H101.566C103.265 140.756 104.644 139.378 104.644 137.678C104.644 135.978 103.266 134.601 101.566 134.601Z" fill="#FF5656"/>
<path d="M62.17 134.601H55.6042C53.9046 134.601 52.5264 135.978 52.5264 137.678C52.5264 139.378 53.9042 140.756 55.6042 140.756H62.17C63.8696 140.756 65.2478 139.378 65.2478 137.678C65.2478 135.978 63.87 134.601 62.17 134.601Z" fill="#FF5656"/>
<path d="M78.5853 52.5269C69.6476 52.5269 62.376 59.7984 62.376 68.7362C62.376 77.674 69.6476 84.9456 78.5853 84.9456C87.5231 84.9456 94.7947 77.674 94.7947 68.7362C94.7947 59.7988 87.5231 52.5269 78.5853 52.5269ZM78.5853 78.7906C73.0416 78.7906 68.5313 74.2804 68.5313 68.7366C68.5313 63.1928 73.0416 58.6826 78.5853 58.6826C84.1291 58.6826 88.6394 63.1928 88.6394 68.7366C88.6394 74.28 84.1287 78.7906 78.5853 78.7906Z" fill="#FF5656"/>
<path d="M147.527 55.8101C125.917 55.8101 108.337 73.3906 108.337 95.0002C108.337 106.339 113.138 116.888 121.599 124.341C117.354 131.292 112.746 135.298 112.699 135.338C111.685 136.204 111.344 137.625 111.854 138.857C112.334 140.013 113.46 140.756 114.696 140.756C114.777 140.756 114.859 140.753 114.941 140.747C115.447 140.707 127.004 139.72 137.256 132.826C140.598 133.732 144.045 134.191 147.527 134.191C169.137 134.191 186.717 116.61 186.717 95.0005C186.717 73.3906 169.137 55.8101 147.527 55.8101ZM147.527 128.035C144.156 128.035 140.824 127.525 137.623 126.52C136.691 126.228 135.676 126.395 134.886 126.971C131.097 129.736 126.938 131.522 123.366 132.665C124.964 130.558 126.67 128.025 128.27 125.101C128.998 123.77 128.648 122.107 127.445 121.183C119.213 114.859 114.493 105.316 114.493 95.0002C114.493 76.7846 129.312 61.9658 147.527 61.9658C165.743 61.9658 180.561 76.785 180.561 95.0002C180.561 113.215 165.743 128.035 147.527 128.035Z" fill="#FF5656"/>
<path d="M163.631 78.8959C161.81 77.0739 159.389 76.0708 156.812 76.0708C154.236 76.0708 151.814 77.0742 149.993 78.8952C146.995 81.8933 146.395 86.3887 148.179 89.995L131.422 106.752C130.22 107.954 130.22 109.903 131.422 111.104C132.023 111.705 132.811 112.006 133.598 112.006C134.386 112.006 135.173 111.706 135.774 111.104L138.24 108.638L140.707 111.104C141.308 111.705 142.096 112.006 142.883 112.006C143.671 112.006 144.459 111.706 145.059 111.104C146.261 109.902 146.261 107.953 145.059 106.752L142.593 104.286L152.531 94.3479C153.876 95.0133 155.342 95.354 156.811 95.354C159.281 95.354 161.75 94.414 163.63 92.534C165.452 90.7127 166.455 88.2909 166.455 85.7148C166.455 83.139 165.452 80.7173 163.631 78.8959ZM159.279 88.1807C157.919 89.5408 155.706 89.5404 154.346 88.1807C152.986 86.8206 152.986 84.6078 154.346 83.2478C155.005 82.5891 155.881 82.2258 156.813 82.2258C157.744 82.2258 158.62 82.5887 159.279 83.2478C159.938 83.9064 160.301 84.7822 160.301 85.714C160.301 86.6459 159.938 87.5224 159.279 88.1807Z" fill="#FF5656"/>
<path d="M94.7175 90.9739C92.1236 88.9262 88.2812 89.331 85.9712 91.8953C84.0474 94.0302 81.4238 95.2058 78.5849 95.2058C75.7461 95.2058 73.1224 94.0302 71.1987 91.8953C68.8883 89.3314 65.046 88.9265 62.4524 90.9739C56.1442 95.9521 52.5264 103.403 52.5264 111.415V121.264C52.5264 122.964 53.9042 124.342 55.6042 124.342H101.565C103.265 124.342 104.643 122.964 104.643 121.264V111.415C104.644 103.403 101.026 95.9517 94.7175 90.9739ZM98.4882 118.186H58.6824V111.415C58.6824 105.298 61.4467 99.6088 66.249 95.8111C66.2932 95.8033 66.4691 95.8415 66.6261 96.0159C69.6876 99.4125 74.0465 101.361 78.5849 101.361C83.1238 101.361 87.4827 99.4125 90.5438 96.0159C90.7012 95.8415 90.8778 95.804 90.9008 95.8033L90.9041 95.8059C95.7235 99.6092 98.4878 105.298 98.4878 111.415V118.186H98.4882Z" fill="#FF5656"/>
</svg>
