<svg width="72" height="75" viewBox="0 0 72 75" fill="none" xmlns="http://www.w3.org/2000/svg">
<g clip-path="url(#clip0_1412_15339)">
<path d="M71.4392 19.6719C71.174 19.3059 70.8268 19.0087 70.4261 18.8047C70.0253 18.6007 69.5824 18.4957 69.1337 18.4982H57.0215V1.46485C57.0215 1.07635 56.8688 0.703756 56.5972 0.429044C56.3255 0.154332 55.957 0 55.5728 0L32.5478 0C32.1636 0 31.7952 0.154332 31.5235 0.429044C31.2518 0.703756 31.0992 1.07635 31.0992 1.46485V18.4982H18.2506C18.2216 18.4982 18.1938 18.4991 18.1657 18.5007L14.5072 6.16158C14.1483 4.9434 13.4079 3.87601 12.3974 3.12003C11.3868 2.36406 10.1608 1.96039 8.90387 1.96978H1.44863C1.06443 1.96978 0.695965 2.12411 0.424294 2.39882C0.152623 2.67354 0 3.04612 0 3.43463C0 3.82313 0.152623 4.19572 0.424294 4.47043C0.695965 4.74514 1.06443 4.89947 1.44863 4.89947H8.90387C9.53839 4.88696 10.1593 5.08626 10.6705 5.46654C11.1818 5.84683 11.5548 6.38688 11.7319 7.00314L24.0266 48.4686C24.0956 48.7011 24.2209 48.9125 24.391 49.0838C23.6025 50.0706 23.1063 51.2631 22.96 52.5232C22.8137 53.7832 23.0232 55.0595 23.5642 56.2042C24.1052 57.3489 24.9557 58.3154 26.0172 58.9917C27.0787 59.6681 28.308 60.0268 29.5626 60.0262H62.4973C62.8815 60.0262 63.2499 59.8719 63.5216 59.5972C63.7933 59.3224 63.9459 58.9499 63.9459 58.5614C63.9459 58.1729 63.7933 57.8003 63.5216 57.5255C63.2499 57.2508 62.8815 57.0965 62.4973 57.0965H29.5622C28.6481 57.0965 27.7654 56.7589 27.0801 56.147C26.3949 55.5352 25.9543 54.6912 25.8412 53.7739C25.7281 52.8567 25.9503 51.9292 26.466 51.1659C26.9817 50.4027 27.7554 49.8562 28.6416 49.6293C28.7462 49.6017 28.8475 49.5624 28.9435 49.5121H62.4973C62.8071 49.5121 63.1087 49.4117 63.3579 49.2257C63.6071 49.0396 63.7907 48.7776 63.8819 48.4782L71.8701 22.245C72.0045 21.8122 72.0355 21.3533 71.9606 20.9061C71.8857 20.4588 71.707 20.0358 71.4392 19.6719ZM40.6092 2.92969H47.4015V9.22853L44.9953 6.95128C44.727 6.69738 44.3732 6.55611 44.0056 6.55611C43.6381 6.55611 43.2843 6.69738 43.0159 6.95128L40.6092 9.22853V2.92969ZM33.9965 2.92969H37.7119V12.6047C37.712 12.8903 37.7946 13.1696 37.9495 13.4083C38.1045 13.647 38.3251 13.8347 38.5842 13.9483C38.8432 14.0619 39.1295 14.0965 39.4077 14.0477C39.686 13.999 39.9441 13.8691 40.1503 13.6741L44.0054 10.0266L47.8605 13.6741C48.0667 13.8691 48.3247 13.999 48.603 14.0477C48.8812 14.0965 49.1675 14.0619 49.4266 13.9483C49.6856 13.8347 49.9062 13.647 50.0612 13.4083C50.2161 13.1696 50.2987 12.8903 50.2988 12.6047V2.92969H54.1242V18.4982H33.9965V2.92969ZM61.4276 46.583H26.4921L19.0336 21.4279H69.0874L61.4276 46.583ZM33.4208 63.2559C32.2722 63.2559 31.1495 63.6002 30.1945 64.2455C29.2395 64.8907 28.4951 65.8078 28.0556 66.8808C27.616 67.9537 27.501 69.1344 27.7251 70.2735C27.9491 71.4126 28.5022 72.4589 29.3143 73.2802C30.1265 74.1014 31.1612 74.6607 32.2877 74.8873C33.4142 75.1139 34.5818 74.9976 35.6429 74.5532C36.704 74.1087 37.611 73.3561 38.2491 72.3904C38.8872 71.4247 39.2278 70.2894 39.2278 69.128C39.226 67.5712 38.6137 66.0786 37.525 64.9778C36.4364 63.8769 34.9604 63.2577 33.4208 63.2559ZM33.4208 72.0703C32.8453 72.0703 32.2826 71.8978 31.8041 71.5745C31.3256 71.2512 30.9526 70.7916 30.7323 70.254C30.512 69.7163 30.4544 69.1247 30.5667 68.5539C30.679 67.9831 30.9561 67.4588 31.3631 67.0473C31.77 66.6357 32.2885 66.3555 32.853 66.242C33.4175 66.1284 34.0026 66.1867 34.5343 66.4094C35.066 66.6322 35.5204 67.0093 35.8402 67.4932C36.1599 67.9771 36.3305 68.5461 36.3305 69.128C36.3297 69.9081 36.0228 70.656 35.4773 71.2076C34.9319 71.7593 34.1922 72.0696 33.4208 72.0705V72.0703ZM59.7291 63.2559C58.5805 63.2559 57.4578 63.6003 56.5028 64.2455C55.5478 64.8908 54.8035 65.8079 54.364 66.8809C53.9245 67.9538 53.8095 69.1345 54.0335 70.2736C54.2576 71.4127 54.8107 72.459 55.6228 73.2802C56.435 74.1015 57.4697 74.6607 58.5962 74.8873C59.7226 75.1139 60.8903 74.9976 61.9514 74.5532C63.0125 74.1087 63.9194 73.3561 64.5575 72.3904C65.1956 71.4247 65.5362 70.2894 65.5362 69.128C65.5345 67.5711 64.9221 66.0785 63.8334 64.9777C62.7447 63.8768 61.2686 63.2576 59.7289 63.2559H59.7291ZM59.7291 72.0703C59.1536 72.0703 58.591 71.8977 58.1124 71.5744C57.6339 71.2511 57.2609 70.7915 57.0407 70.2539C56.8205 69.7162 56.7629 69.1246 56.8751 68.5538C56.9874 67.983 57.2646 67.4587 57.6716 67.0472C58.0785 66.6357 58.597 66.3555 59.1615 66.242C59.726 66.1284 60.311 66.1867 60.8427 66.4095C61.3745 66.6322 61.8289 67.0094 62.1486 67.4932C62.4683 67.9771 62.639 68.5461 62.639 69.128C62.6381 69.9082 62.3312 70.6561 61.7857 71.2077C61.2401 71.7594 60.5005 72.0696 59.7289 72.0705L59.7291 72.0703Z" fill="#FF5656"/>
</g>
<defs>
<clipPath id="clip0_1412_15339">
<rect width="72" height="75" fill="white"/>
</clipPath>
</defs>
</svg>
