<svg width="186" height="190" viewBox="0 0 186 190" fill="none" xmlns="http://www.w3.org/2000/svg">
<g clip-path="url(#clip0_887_20472)">
<path d="M184.551 49.8354C183.866 48.9083 182.969 48.1554 181.934 47.6386C180.899 47.1218 179.755 46.8557 178.595 46.8622H147.305V3.71094C147.305 2.72674 146.911 1.78285 146.209 1.08691C145.507 0.390973 144.556 0 143.563 0L84.0819 0C83.0894 0 82.1375 0.390973 81.4357 1.08691C80.7339 1.78285 80.3396 2.72674 80.3396 3.71094V46.8622H47.1473C47.0725 46.8622 47.0006 46.8644 46.928 46.8685L37.4769 15.6093C36.5498 12.5233 34.6371 9.81921 32.0266 7.90408C29.416 5.98894 26.2489 4.96633 23.0017 4.99011H3.7423C2.74978 4.99011 1.79791 5.38108 1.09609 6.07702C0.394277 6.77296 0 7.71685 0 8.70105C0 9.68526 0.394277 10.6292 1.09609 11.3251C1.79791 12.021 2.74978 12.412 3.7423 12.412H23.0017C24.6408 12.3803 26.2449 12.8852 27.5655 13.8486C28.8862 14.812 29.8498 16.1801 30.3074 17.7413L62.0686 122.787C62.247 123.376 62.5706 123.912 63.0102 124.346C60.9731 126.846 59.6914 129.866 59.3134 133.059C58.9354 136.251 59.4765 139.484 60.8741 142.384C62.2718 145.284 64.4688 147.732 67.2111 149.446C69.9534 151.159 73.1289 152.068 76.3702 152.066H161.451C162.444 152.066 163.396 151.675 164.097 150.979C164.799 150.284 165.194 149.34 165.194 148.355C165.194 147.371 164.799 146.427 164.097 145.731C163.396 145.035 162.444 144.644 161.451 144.644H76.369C74.0075 144.645 71.7272 143.789 69.957 142.239C68.1868 140.689 67.0487 138.551 66.7565 136.227C66.4644 133.904 67.0384 131.554 68.3706 129.62C69.7028 127.687 71.7015 126.302 73.9908 125.728C74.2611 125.658 74.5227 125.558 74.7707 125.431H161.451C162.252 125.431 163.031 125.176 163.675 124.705C164.318 124.234 164.793 123.57 165.028 122.811L185.664 56.354C186.012 55.2576 186.092 54.0951 185.898 52.962C185.705 51.8289 185.243 50.7574 184.551 49.8354ZM104.907 7.42189H122.454V23.379L116.238 17.6099C115.545 16.9667 114.631 16.6088 113.681 16.6088C112.732 16.6088 111.818 16.9667 111.125 17.6099L104.907 23.379V7.42189ZM87.8242 7.42189H97.4225V31.9319C97.4226 32.6553 97.636 33.3629 98.0363 33.9676C98.4367 34.5723 99.0065 35.0478 99.6757 35.3356C100.345 35.6234 101.084 35.711 101.803 35.5876C102.522 35.4642 103.189 35.1351 103.721 34.6409L113.68 25.4007L123.639 34.6409C124.172 35.1351 124.839 35.4642 125.558 35.5876C126.276 35.711 127.016 35.6234 127.685 35.3356C128.355 35.0478 128.924 34.5723 129.325 33.9676C129.725 33.3629 129.938 32.6553 129.939 31.9319V7.42189H139.821V46.8622H87.8242V7.42189ZM158.688 118.01H68.438L49.17 54.2841H178.476L158.688 118.01ZM86.337 160.248C83.3699 160.248 80.4695 161.121 78.0024 162.755C75.5353 164.39 73.6125 166.713 72.477 169.431C71.3414 172.149 71.0443 175.141 71.6231 178.026C72.2019 180.912 73.6307 183.563 75.7287 185.643C77.8267 187.724 80.4998 189.14 83.4098 189.715C86.3199 190.289 89.3363 189.994 92.0775 188.868C94.8187 187.742 97.1617 185.835 98.8101 183.389C100.459 180.943 101.338 178.067 101.338 175.124C101.334 171.18 99.752 167.399 96.9397 164.61C94.1274 161.822 90.3143 160.253 86.337 160.248ZM86.337 182.578C84.8502 182.578 83.3968 182.141 82.1606 181.322C80.9243 180.503 79.9608 179.339 79.3918 177.977C78.8228 176.615 78.6739 175.116 78.9639 173.67C79.254 172.224 79.9699 170.896 81.0212 169.853C82.0725 168.811 83.412 168.101 84.8702 167.813C86.3284 167.525 87.8399 167.673 89.2135 168.237C90.5871 168.801 91.7611 169.757 92.5871 170.983C93.4131 172.209 93.8539 173.65 93.8538 175.124C93.8516 177.101 93.059 178.995 91.6498 180.393C90.2406 181.79 88.33 182.576 86.337 182.578V182.578ZM154.3 160.248C151.333 160.248 148.433 161.121 145.966 162.755C143.499 164.39 141.576 166.713 140.44 169.431C139.305 172.15 139.008 175.141 139.587 178.026C140.165 180.912 141.594 183.563 143.692 185.643C145.79 187.724 148.463 189.141 151.373 189.715C154.283 190.289 157.3 189.994 160.041 188.868C162.782 187.742 165.125 185.835 166.774 183.389C168.422 180.943 169.302 178.067 169.302 175.124C169.297 171.18 167.715 167.399 164.903 164.61C162.09 161.821 158.277 160.253 154.3 160.248H154.3ZM154.3 182.578C152.813 182.578 151.36 182.141 150.124 181.322C148.888 180.503 147.924 179.339 147.355 177.976C146.786 176.614 146.637 175.116 146.927 173.67C147.218 172.224 147.934 170.895 148.985 169.853C150.036 168.81 151.376 168.101 152.834 167.813C154.292 167.525 155.803 167.673 157.177 168.237C158.551 168.802 159.725 169.757 160.551 170.983C161.377 172.209 161.817 173.65 161.817 175.124C161.815 177.101 161.022 178.995 159.613 180.393C158.204 181.79 156.293 182.576 154.3 182.578L154.3 182.578Z" fill="#FF5656"/>
</g>
<defs>
<clipPath id="clip0_887_20472">
<rect width="186" height="190" fill="white"/>
</clipPath>
</defs>
</svg>
