<svg width="72" height="72" viewBox="0 0 72 72" fill="none" xmlns="http://www.w3.org/2000/svg">
<g clip-path="url(#clip0_1412_15341)">
<path d="M9.50757 66.3738C8.88398 66.3738 8.38037 65.8706 8.38037 65.2488V4.49906C8.38037 3.87666 8.88398 3.37402 9.50757 3.37402C10.1306 3.37402 10.6348 3.87666 10.6348 4.49906V65.2488C10.6348 65.8706 10.1306 66.3738 9.50757 66.3738Z" fill="#FF5656"/>
<path d="M51.2249 66.3738C50.6018 66.3738 50.0977 65.8706 50.0977 65.2488V4.49906C50.0977 3.87666 50.6018 3.37402 51.2249 3.37402C51.8485 3.37402 52.3521 3.87666 52.3521 4.49906V65.2488C52.3521 65.8706 51.8485 66.3738 51.2249 66.3738Z" fill="#FF5656"/>
<path d="M45.5889 19.1329H43.3345C42.7114 19.1329 42.2073 18.6302 42.2073 18.0078C42.2073 17.386 42.7114 16.8828 43.3345 16.8828H45.5889C46.2125 16.8828 46.7161 17.386 46.7161 18.0078C46.7161 18.6302 46.2125 19.1329 45.5889 19.1329Z" fill="#FF5656"/>
<path d="M45.5901 22.5084C45.2263 22.5084 44.868 22.3331 44.6511 22.0079L42.3967 18.6328C42.0511 18.1153 42.1909 17.4177 42.7094 17.0722C43.2289 16.7272 43.9279 16.8667 44.2725 17.3842L46.5269 20.7593C46.8731 21.2768 46.7333 21.9744 46.2148 22.3194C46.0222 22.4468 45.8048 22.5084 45.5901 22.5084Z" fill="#FF5656"/>
<path d="M45.5889 22.5089H43.3345C42.7114 22.5089 42.2073 22.0062 42.2073 21.3838C42.2073 20.762 42.7114 20.2588 43.3345 20.2588H45.5889C46.2125 20.2588 46.7161 20.762 46.7161 21.3838C46.7161 22.0062 46.2125 22.5089 45.5889 22.5089Z" fill="#FF5656"/>
<path d="M39.9529 21.3829H36.5735C35.9504 21.3829 35.4463 20.8802 35.4463 20.2578C35.4463 19.636 35.9504 19.1328 36.5735 19.1328H39.9529C40.5765 19.1328 41.0801 19.636 41.0801 20.2578C41.0801 20.8802 40.5765 21.3829 39.9529 21.3829Z" fill="#FF5656"/>
<path d="M28.6788 21.3829H15.1436C14.52 21.3829 14.0164 20.8802 14.0164 20.2578C14.0164 19.636 14.52 19.1328 15.1436 19.1328H28.6788C29.3024 19.1328 29.806 19.636 29.806 20.2578C29.806 20.8802 29.3024 21.3829 28.6788 21.3829Z" fill="#FF5656"/>
<path d="M45.5889 10.126H43.3345C42.7114 10.126 42.2073 9.62341 42.2073 9.00101C42.2073 8.37917 42.7114 7.87598 43.3345 7.87598H45.5889C46.2125 7.87598 46.7161 8.37917 46.7161 9.00101C46.7161 9.62341 46.2125 10.126 45.5889 10.126Z" fill="#FF5656"/>
<path d="M45.5901 13.5015C45.2263 13.5015 44.868 13.3262 44.6511 13.001L42.3967 9.6259C42.0511 9.10843 42.1909 8.41078 42.7094 8.06525C43.2289 7.72081 43.9279 7.85925 44.2725 8.37672L46.5269 11.7518C46.8731 12.2693 46.7333 12.9669 46.2148 13.3125C46.0222 13.4394 45.8048 13.5015 45.5901 13.5015Z" fill="#FF5656"/>
<path d="M45.5889 13.501H43.3345C42.7114 13.501 42.2073 12.9984 42.2073 12.376C42.2073 11.7542 42.7114 11.251 43.3345 11.251H45.5889C46.2125 11.251 46.7161 11.7542 46.7161 12.376C46.7161 12.9984 46.2125 13.501 45.5889 13.501Z" fill="#FF5656"/>
<path d="M39.9529 12.376H36.5735C35.9504 12.376 35.4463 11.8734 35.4463 11.251C35.4463 10.6292 35.9504 10.126 36.5735 10.126H39.9529C40.5765 10.126 41.0801 10.6292 41.0801 11.251C41.0801 11.8734 40.5765 12.376 39.9529 12.376Z" fill="#FF5656"/>
<path d="M19.6524 12.376H15.1436C14.52 12.376 14.0164 11.8734 14.0164 11.251C14.0164 10.6292 14.52 10.126 15.1436 10.126H19.6524C20.2754 10.126 20.7796 10.6292 20.7796 11.251C20.7796 11.8734 20.2754 12.376 19.6524 12.376Z" fill="#FF5656"/>
<path d="M45.5889 28.13H43.3345C42.7114 28.13 42.2073 27.6273 42.2073 27.0049C42.2073 26.3831 42.7114 25.8799 43.3345 25.8799H45.5889C46.2125 25.8799 46.7161 26.3831 46.7161 27.0049C46.7161 27.6273 46.2125 28.13 45.5889 28.13Z" fill="#FF5656"/>
<path d="M45.5901 31.5051C45.2263 31.5051 44.868 31.3298 44.6511 31.0046L42.3967 27.6295C42.0511 27.1121 42.1909 26.4144 42.7094 26.0689C43.2289 25.725 43.9279 25.8629 44.2725 26.3809L46.5269 29.756C46.8731 30.2735 46.7333 30.9706 46.2148 31.3161C46.0222 31.4436 45.8048 31.5051 45.5901 31.5051Z" fill="#FF5656"/>
<path d="M45.5889 31.505H43.3345C42.7114 31.505 42.2073 31.0023 42.2073 30.3799C42.2073 29.7581 42.7114 29.2549 43.3345 29.2549H45.5889C46.2125 29.2549 46.7161 29.7581 46.7161 30.3799C46.7161 31.0023 46.2125 31.505 45.5889 31.505Z" fill="#FF5656"/>
<path d="M39.9529 30.38H36.5735C35.9504 30.38 35.4463 29.8773 35.4463 29.2549C35.4463 28.6331 35.9504 28.1299 36.5735 28.1299H39.9529C40.5765 28.1299 41.0801 28.6331 41.0801 29.2549C41.0801 29.8773 40.5765 30.38 39.9529 30.38Z" fill="#FF5656"/>
<path d="M23.0362 30.38H15.1436C14.52 30.38 14.0164 29.8773 14.0164 29.2549C14.0164 28.6331 14.52 28.1299 15.1436 28.1299H23.0362C23.6592 28.1299 24.1634 28.6331 24.1634 29.2549C24.1634 29.8773 23.6592 30.38 23.0362 30.38Z" fill="#FF5656"/>
<path d="M45.5889 37.1348H43.3345C42.7114 37.1348 42.2073 36.6322 42.2073 36.0098C42.2073 35.388 42.7114 34.8848 43.3345 34.8848H45.5889C46.2125 34.8848 46.7161 35.388 46.7161 36.0098C46.7161 36.6322 46.2125 37.1348 45.5889 37.1348Z" fill="#FF5656"/>
<path d="M45.5901 40.5098C45.2263 40.5098 44.868 40.3346 44.6511 40.0094L42.3967 36.6343C42.0511 36.1168 42.1909 35.4192 42.7094 35.0736C43.2289 34.7297 43.9279 34.8682 44.2725 35.3856L46.5269 38.7607C46.8731 39.2782 46.7333 39.9759 46.2148 40.3209C46.0222 40.4483 45.8048 40.5098 45.5901 40.5098Z" fill="#FF5656"/>
<path d="M45.5889 40.5098H43.3345C42.7114 40.5098 42.2073 40.0072 42.2073 39.3848C42.2073 38.763 42.7114 38.2598 43.3345 38.2598H45.5889C46.2125 38.2598 46.7161 38.763 46.7161 39.3848C46.7161 40.0072 46.2125 40.5098 45.5889 40.5098Z" fill="#FF5656"/>
<path d="M39.9529 39.3848H36.5735C35.9504 39.3848 35.4463 38.8822 35.4463 38.2598C35.4463 37.638 35.9504 37.1348 36.5735 37.1348H39.9529C40.5765 37.1348 41.0801 37.638 41.0801 38.2598C41.0801 38.8822 40.5765 39.3848 39.9529 39.3848Z" fill="#FF5656"/>
<path d="M26.4222 39.3848H15.1436C14.52 39.3848 14.0164 38.8822 14.0164 38.2598C14.0164 37.638 14.52 37.1348 15.1436 37.1348H26.4222C27.0458 37.1348 27.5494 37.638 27.5494 38.2598C27.5494 38.8822 27.0458 39.3848 26.4222 39.3848Z" fill="#FF5656"/>
<path d="M45.5889 55.1319H43.3345C42.7114 55.1319 42.2073 54.6293 42.2073 54.0069C42.2073 53.385 42.7114 52.8818 43.3345 52.8818H45.5889C46.2125 52.8818 46.7161 53.385 46.7161 54.0069C46.7161 54.6293 46.2125 55.1319 45.5889 55.1319Z" fill="#FF5656"/>
<path d="M45.5901 58.5071C45.2263 58.5071 44.868 58.3319 44.6511 58.0067L42.3967 54.6315C42.0511 54.1141 42.1909 53.4164 42.7094 53.0709C43.2289 52.7259 43.9279 52.8665 44.2725 53.3829L46.5269 56.758C46.8731 57.2755 46.7333 57.9726 46.2148 58.3181C46.0222 58.4456 45.8048 58.5071 45.5901 58.5071Z" fill="#FF5656"/>
<path d="M45.5889 58.5069H43.3345C42.7114 58.5069 42.2073 58.0043 42.2073 57.3819C42.2073 56.76 42.7114 56.2568 43.3345 56.2568H45.5889C46.2125 56.2568 46.7161 56.76 46.7161 57.3819C46.7161 58.0043 46.2125 58.5069 45.5889 58.5069Z" fill="#FF5656"/>
<path d="M39.9529 57.3819H36.5735C35.9504 57.3819 35.4463 56.8793 35.4463 56.2569C35.4463 55.635 35.9504 55.1318 36.5735 55.1318H39.9529C40.5765 55.1318 41.0801 55.635 41.0801 56.2569C41.0801 56.8793 40.5765 57.3819 39.9529 57.3819Z" fill="#FF5656"/>
<path d="M18.523 57.3819H15.1436C14.52 57.3819 14.0164 56.8793 14.0164 56.2569C14.0164 55.635 14.52 55.1318 15.1436 55.1318H18.523C19.146 55.1318 19.6502 55.635 19.6502 56.2569C19.6502 56.8793 19.146 57.3819 18.523 57.3819Z" fill="#FF5656"/>
<path d="M52.3545 66.3741H8.37818C7.75458 66.3741 7.25098 65.8709 7.25098 65.2491C7.25098 64.6267 7.75458 64.124 8.37818 64.124H52.3545C52.978 64.124 53.4817 64.6267 53.4817 65.2491C53.4817 65.8709 52.978 66.3741 52.3545 66.3741Z" fill="#FF5656"/>
<path d="M60.2337 6.74582C59.6101 6.74582 59.1065 6.24263 59.1065 5.62078C59.1065 3.76239 57.5923 2.25007 55.7315 2.25007C53.8684 2.25007 52.3521 3.76239 52.3521 5.62078C52.3521 6.24263 51.8485 6.74582 51.2249 6.74582C50.6018 6.74582 50.0977 6.24263 50.0977 5.62078C50.0977 2.52144 52.6251 0 55.7315 0C58.8357 0 61.3609 2.52144 61.3609 5.62078C61.3609 6.24263 60.8567 6.74582 60.2337 6.74582Z" fill="#FF5656"/>
<path d="M64.7514 26.9968C61.6461 26.9968 59.1204 24.4754 59.1204 21.376C59.1204 20.7536 59.624 20.251 60.2476 20.251C60.8706 20.251 61.3748 20.7536 61.3748 21.376C61.3748 23.2344 62.8894 24.7467 64.7514 24.7467C66.6139 24.7467 68.1286 23.2344 68.1286 21.376C68.1286 20.7536 68.6328 20.251 69.2558 20.251C69.8794 20.251 70.383 20.7536 70.383 21.376C70.383 24.4754 67.8573 26.9968 64.7514 26.9968Z" fill="#FF5656"/>
<path d="M9.51197 6.74582C8.88892 6.74582 8.38477 6.24263 8.38477 5.62078C8.38477 2.52144 10.9111 0 14.0164 0C14.6394 0 15.1436 0.50264 15.1436 1.12504C15.1436 1.74743 14.6394 2.25007 14.0164 2.25007C12.1544 2.25007 10.6392 3.76239 10.6392 5.62078C10.6392 6.24263 10.1356 6.74582 9.51197 6.74582Z" fill="#FF5656"/>
<path d="M55.7316 2.25007H14.0164C13.3928 2.25007 12.8892 1.74743 12.8892 1.12504C12.8892 0.50264 13.3928 0 14.0164 0H55.7316C56.3552 0 56.8588 0.50264 56.8588 1.12504C56.8588 1.74743 56.3552 2.25007 55.7316 2.25007Z" fill="#FF5656"/>
<path d="M60.2336 22.5011C59.6101 22.5011 59.1064 21.9984 59.1064 21.376V5.62113C59.1064 4.99873 59.6101 4.49609 60.2336 4.49609C60.8567 4.49609 61.3608 4.99873 61.3608 5.62113V21.376C61.3608 21.9984 60.8567 22.5011 60.2336 22.5011Z" fill="#FF5656"/>
<path d="M64.7513 26.9962H51.2183C50.5952 26.9962 50.0911 26.493 50.0911 25.8711C50.0911 25.2487 50.5952 24.7461 51.2183 24.7461H64.7513C65.3749 24.7461 65.8785 25.2487 65.8785 25.8711C65.8785 26.493 65.3749 26.9962 64.7513 26.9962Z" fill="#FF5656"/>
<path d="M69.2559 22.5005C68.6328 22.5005 68.1287 21.9978 68.1287 21.3755V15.7481C68.1287 15.1257 68.6328 14.623 69.2559 14.623C69.8795 14.623 70.3831 15.1257 70.3831 15.7481V21.3755C70.3831 21.9978 69.8795 22.5005 69.2559 22.5005Z" fill="#FF5656"/>
<path d="M55.7292 72.0001H5.00075C3.13657 72.0001 1.61914 70.4855 1.61914 68.625V61.8692C1.61914 60.0081 3.13657 58.4941 5.00075 58.4941H9.50735C10.1304 58.4941 10.6346 58.9968 10.6346 59.6192C10.6346 60.241 10.1304 60.7442 9.50735 60.7442H5.00075C4.37825 60.7442 3.87354 61.248 3.87354 61.8692V68.625C3.87354 69.2457 4.37825 69.75 5.00075 69.75H55.7292C56.3517 69.75 56.8564 69.2457 56.8564 68.625V61.8692C56.8564 61.248 56.3528 60.7442 55.7336 60.7442H51.227C50.604 60.7442 50.0998 60.241 50.0998 59.6192C50.0998 58.9968 50.604 58.4941 51.227 58.4941H55.7336C57.5961 58.4941 59.1108 60.0081 59.1108 61.8692V68.625C59.1108 70.4855 57.5939 72.0001 55.7292 72.0001Z" fill="#FF5656"/>
<path d="M15.1436 50.6357C14.52 50.6357 14.0164 50.1331 14.0164 49.5107V48.3868C14.0164 47.7649 14.52 47.2617 15.1436 47.2617C15.7666 47.2617 16.2708 47.7649 16.2708 48.3868V49.5107C16.2708 50.1331 15.7666 50.6357 15.1436 50.6357Z" fill="#FF5656"/>
<path d="M18.5252 50.6357C17.9016 50.6357 17.3979 50.1331 17.3979 49.5107V48.3868C17.3979 47.7649 17.9016 47.2617 18.5252 47.2617C19.1482 47.2617 19.6524 47.7649 19.6524 48.3868V49.5107C19.6524 50.1331 19.1482 50.6357 18.5252 50.6357Z" fill="#FF5656"/>
<path d="M21.9067 50.6357C21.2831 50.6357 20.7795 50.1331 20.7795 49.5107V48.3868C20.7795 47.7649 21.2831 47.2617 21.9067 47.2617C22.5298 47.2617 23.0339 47.7649 23.0339 48.3868V49.5107C23.0339 50.1331 22.5298 50.6357 21.9067 50.6357Z" fill="#FF5656"/>
<path d="M25.2883 50.6357C24.6647 50.6357 24.1611 50.1331 24.1611 49.5107V48.3868C24.1611 47.7649 24.6647 47.2617 25.2883 47.2617C25.9114 47.2617 26.4155 47.7649 26.4155 48.3868V49.5107C26.4155 50.1331 25.9114 50.6357 25.2883 50.6357Z" fill="#FF5656"/>
<path d="M32.0559 50.6357C31.4329 50.6357 30.9287 50.1331 30.9287 49.5107V48.3868C30.9287 47.7649 31.4329 47.2617 32.0559 47.2617C32.6795 47.2617 33.1831 47.7649 33.1831 48.3868V49.5107C33.1831 50.1331 32.6795 50.6357 32.0559 50.6357Z" fill="#FF5656"/>
<path d="M28.6699 50.6357C28.0463 50.6357 27.5427 50.1331 27.5427 49.5107V48.3868C27.5427 47.7649 28.0463 47.2617 28.6699 47.2617C29.293 47.2617 29.7971 47.7649 29.7971 48.3868V49.5107C29.7971 50.1331 29.293 50.6357 28.6699 50.6357Z" fill="#FF5656"/>
<path d="M45.6987 50.7422C45.0757 50.7422 44.5715 50.2395 44.5715 49.6171V48.4932C44.5715 47.8714 45.0757 47.3682 45.6987 47.3682C46.3223 47.3682 46.8259 47.8714 46.8259 48.4932V49.6171C46.8259 50.2395 46.3223 50.7422 45.6987 50.7422Z" fill="#FF5656"/>
<path d="M38.8191 50.6357C38.1961 50.6357 37.6919 50.1331 37.6919 49.5107V48.3868C37.6919 47.7649 38.1961 47.2617 38.8191 47.2617C39.4427 47.2617 39.9463 47.7649 39.9463 48.3868V49.5107C39.9463 50.1331 39.4427 50.6357 38.8191 50.6357Z" fill="#FF5656"/>
<path d="M42.2007 50.6357C41.5776 50.6357 41.0735 50.1331 41.0735 49.5107V48.3868C41.0735 47.7649 41.5776 47.2617 42.2007 47.2617C42.8243 47.2617 43.3279 47.7649 43.3279 48.3868V49.5107C43.3279 50.1331 42.8243 50.6357 42.2007 50.6357Z" fill="#FF5656"/>
<path d="M45.5823 50.6357C44.9592 50.6357 44.4551 50.1331 44.4551 49.5107V48.3868C44.4551 47.7649 44.9592 47.2617 45.5823 47.2617C46.2059 47.2617 46.7095 47.7649 46.7095 48.3868V49.5107C46.7095 50.1331 46.2059 50.6357 45.5823 50.6357Z" fill="#FF5656"/>
<path d="M69.2558 16.8736C68.9674 16.8736 68.679 16.7632 68.4588 16.544L66.2044 14.2939C65.7636 13.8539 65.7636 13.1431 66.2044 12.7031C66.6453 12.263 67.3575 12.263 67.7984 12.7031L70.0528 14.9531C70.4936 15.3931 70.4936 16.104 70.0528 16.544C69.8332 16.7632 69.5442 16.8736 69.2558 16.8736Z" fill="#FF5656"/>
<path d="M64.7512 16.8703C64.4628 16.8703 64.1744 16.7599 63.9543 16.5407C63.5139 16.1007 63.5139 15.3898 63.9543 14.9498L66.2043 12.7031C66.6451 12.263 67.3573 12.263 67.7982 12.7031C68.2391 13.1431 68.2391 13.8539 67.7982 14.2939L65.5482 16.5407C65.3286 16.7599 65.0402 16.8703 64.7512 16.8703Z" fill="#FF5656"/>
<path d="M64.7426 16.8736C64.4542 16.8736 64.1653 16.7632 63.9456 16.544L61.6912 14.2939C61.2504 13.8539 61.2504 13.1431 61.6912 12.7031C62.1321 12.263 62.8443 12.263 63.2852 12.7031L65.5396 14.9531C65.9804 15.3931 65.9804 16.104 65.5396 16.544C65.32 16.7632 65.031 16.8736 64.7426 16.8736Z" fill="#FF5656"/>
<path d="M60.236 16.8703C59.9476 16.8703 59.6587 16.7599 59.439 16.5407C58.9982 16.1007 58.9982 15.3898 59.439 14.9498L61.6912 12.7031C62.1321 12.263 62.8443 12.263 63.2852 12.7031C63.726 13.1431 63.726 13.8539 63.2852 14.2939L61.033 16.5407C60.8134 16.7599 60.5244 16.8703 60.236 16.8703Z" fill="#FF5656"/>
</g>
<defs>
<clipPath id="clip0_1412_15341">
<rect width="72" height="72" fill="white"/>
</clipPath>
</defs>
</svg>
