<svg width="189" height="190" viewBox="0 0 189 190" fill="none" xmlns="http://www.w3.org/2000/svg">
<g clip-path="url(#clip0_887_20366)">
<path d="M24.957 175.153C23.32 175.153 21.998 173.825 21.998 172.184V11.8727C21.998 10.2302 23.32 8.90381 24.957 8.90381C26.5924 8.90381 27.9159 10.2302 27.9159 11.8727V172.184C27.9159 173.825 26.5924 175.153 24.957 175.153Z" fill="#FF5656"/>
<path d="M134.466 175.153C132.83 175.153 131.507 173.825 131.507 172.184V11.8727C131.507 10.2302 132.83 8.90381 134.466 8.90381C136.103 8.90381 137.425 10.2302 137.425 11.8727V172.184C137.425 173.825 136.103 175.153 134.466 175.153Z" fill="#FF5656"/>
<path d="M119.671 50.4904H113.753C112.117 50.4904 110.794 49.164 110.794 47.5216C110.794 45.8806 112.117 44.5527 113.753 44.5527H119.671C121.308 44.5527 122.63 45.8806 122.63 47.5216C122.63 49.164 121.308 50.4904 119.671 50.4904Z" fill="#FF5656"/>
<path d="M119.674 59.3969C118.719 59.3969 117.778 58.9345 117.209 58.0763L111.291 49.1698C110.384 47.8043 110.751 45.9632 112.112 45.0514C113.475 44.141 115.31 44.5092 116.215 45.8748L122.133 54.7813C123.041 56.1469 122.674 57.9879 121.313 58.8983C120.808 59.2346 120.237 59.3969 119.674 59.3969Z" fill="#FF5656"/>
<path d="M119.671 59.3972H113.753C112.117 59.3972 110.794 58.0707 110.794 56.4283C110.794 54.7873 112.117 53.4595 113.753 53.4595H119.671C121.308 53.4595 122.63 54.7873 122.63 56.4283C122.63 58.0707 121.308 59.3972 119.671 59.3972Z" fill="#FF5656"/>
<path d="M104.877 56.4284H96.0058C94.3703 56.4284 93.0469 55.102 93.0469 53.4596C93.0469 51.8186 94.3703 50.4907 96.0058 50.4907H104.877C106.514 50.4907 107.836 51.8186 107.836 53.4596C107.836 55.102 106.514 56.4284 104.877 56.4284Z" fill="#FF5656"/>
<path d="M75.2818 56.4284H39.7519C38.1149 56.4284 36.793 55.102 36.793 53.4596C36.793 51.8186 38.1149 50.4907 39.7519 50.4907H75.2818C76.9188 50.4907 78.2407 51.8186 78.2407 53.4596C78.2407 55.102 76.9188 56.4284 75.2818 56.4284Z" fill="#FF5656"/>
<path d="M119.671 26.7224H113.753C112.117 26.7224 110.794 25.3959 110.794 23.7535C110.794 22.1125 112.117 20.7847 113.753 20.7847H119.671C121.308 20.7847 122.63 22.1125 122.63 23.7535C122.63 25.3959 121.308 26.7224 119.671 26.7224Z" fill="#FF5656"/>
<path d="M119.674 35.6292C118.719 35.6292 117.778 35.1667 117.209 34.3086L111.291 25.402C110.384 24.0365 110.751 22.1955 112.112 21.2836C113.475 20.3747 115.31 20.74 116.215 22.1056L122.133 31.0121C123.041 32.3777 122.674 34.2187 121.313 35.1305C120.808 35.4654 120.237 35.6292 119.674 35.6292Z" fill="#FF5656"/>
<path d="M119.671 35.6291H113.753C112.117 35.6291 110.794 34.3027 110.794 32.6602C110.794 31.0193 112.117 29.6914 113.753 29.6914H119.671C121.308 29.6914 122.63 31.0193 122.63 32.6602C122.63 34.3027 121.308 35.6291 119.671 35.6291Z" fill="#FF5656"/>
<path d="M104.877 32.6603H96.0058C94.3703 32.6603 93.0469 31.3339 93.0469 29.6915C93.0469 28.0505 94.3703 26.7227 96.0058 26.7227H104.877C106.514 26.7227 107.836 28.0505 107.836 29.6915C107.836 31.3339 106.514 32.6603 104.877 32.6603Z" fill="#FF5656"/>
<path d="M51.5875 32.6603H39.7519C38.1149 32.6603 36.793 31.3339 36.793 29.6915C36.793 28.0505 38.1149 26.7227 39.7519 26.7227H51.5875C53.223 26.7227 54.5464 28.0505 54.5464 29.6915C54.5464 31.3339 53.223 32.6603 51.5875 32.6603Z" fill="#FF5656"/>
<path d="M119.671 74.2326H113.753C112.117 74.2326 110.794 72.9062 110.794 71.2638C110.794 69.6228 112.117 68.2949 113.753 68.2949H119.671C121.308 68.2949 122.63 69.6228 122.63 71.2638C122.63 72.9062 121.308 74.2326 119.671 74.2326Z" fill="#FF5656"/>
<path d="M119.674 83.1392C118.719 83.1392 117.778 82.6768 117.209 81.8186L111.291 72.9121C110.384 71.5465 110.751 69.7055 112.112 68.7937C113.475 67.8862 115.31 68.2501 116.215 69.6171L122.133 78.5236C123.041 79.8891 122.674 81.7287 121.313 82.6405C120.808 82.9769 120.237 83.1392 119.674 83.1392Z" fill="#FF5656"/>
<path d="M119.671 83.1393H113.753C112.117 83.1393 110.794 81.8129 110.794 80.1705C110.794 78.5295 112.117 77.2017 113.753 77.2017H119.671C121.308 77.2017 122.63 78.5295 122.63 80.1705C122.63 81.8129 121.308 83.1393 119.671 83.1393Z" fill="#FF5656"/>
<path d="M104.877 80.1701H96.0058C94.3703 80.1701 93.0469 78.8437 93.0469 77.2013C93.0469 75.5603 94.3703 74.2324 96.0058 74.2324H104.877C106.514 74.2324 107.836 75.5603 107.836 77.2013C107.836 78.8437 106.514 80.1701 104.877 80.1701Z" fill="#FF5656"/>
<path d="M60.47 80.1701H39.7519C38.1149 80.1701 36.793 78.8437 36.793 77.2013C36.793 75.5603 38.1149 74.2324 39.7519 74.2324H60.47C62.1055 74.2324 63.4289 75.5603 63.4289 77.2013C63.4289 78.8437 62.1055 80.1701 60.47 80.1701Z" fill="#FF5656"/>
<path d="M119.671 97.9948H113.753C112.117 97.9948 110.794 96.6684 110.794 95.026C110.794 93.385 112.117 92.0571 113.753 92.0571H119.671C121.308 92.0571 122.63 93.385 122.63 95.026C122.63 96.6684 121.308 97.9948 119.671 97.9948Z" fill="#FF5656"/>
<path d="M119.674 106.902C118.719 106.902 117.778 106.439 117.209 105.581L111.291 96.6744C110.384 95.3088 110.751 93.4678 112.112 92.556C113.475 91.6485 115.31 92.0138 116.215 93.3794L122.133 102.286C123.041 103.651 122.674 105.492 121.313 106.403C120.808 106.739 120.237 106.902 119.674 106.902Z" fill="#FF5656"/>
<path d="M119.671 106.902H113.753C112.117 106.902 110.794 105.575 110.794 103.933C110.794 102.292 112.117 100.964 113.753 100.964H119.671C121.308 100.964 122.63 102.292 122.63 103.933C122.63 105.575 121.308 106.902 119.671 106.902Z" fill="#FF5656"/>
<path d="M104.877 103.933H96.0058C94.3703 103.933 93.0469 102.606 93.0469 100.964C93.0469 99.323 94.3703 97.9951 96.0058 97.9951H104.877C106.514 97.9951 107.836 99.323 107.836 100.964C107.836 102.606 106.514 103.933 104.877 103.933Z" fill="#FF5656"/>
<path d="M69.3582 103.933H39.7519C38.1149 103.933 36.793 102.606 36.793 100.964C36.793 99.323 38.1149 97.9951 39.7519 97.9951H69.3582C70.9952 97.9951 72.3172 99.323 72.3172 100.964C72.3172 102.606 70.9952 103.933 69.3582 103.933Z" fill="#FF5656"/>
<path d="M119.671 145.488H113.753C112.117 145.488 110.794 144.162 110.794 142.519C110.794 140.878 112.117 139.55 113.753 139.55H119.671C121.308 139.55 122.63 140.878 122.63 142.519C122.63 144.162 121.308 145.488 119.671 145.488Z" fill="#FF5656"/>
<path d="M119.674 154.394C118.719 154.394 117.778 153.932 117.209 153.074L111.291 144.167C110.384 142.802 110.751 140.961 112.112 140.049C113.475 139.138 115.31 139.509 116.215 140.872L122.133 149.779C123.041 151.144 122.674 152.984 121.313 153.896C120.808 154.232 120.237 154.394 119.674 154.394Z" fill="#FF5656"/>
<path d="M119.671 154.394H113.753C112.117 154.394 110.794 153.068 110.794 151.425C110.794 149.784 112.117 148.457 113.753 148.457H119.671C121.308 148.457 122.63 149.784 122.63 151.425C122.63 153.068 121.308 154.394 119.671 154.394Z" fill="#FF5656"/>
<path d="M104.877 151.425H96.0058C94.3703 151.425 93.0469 150.099 93.0469 148.457C93.0469 146.816 94.3703 145.488 96.0058 145.488H104.877C106.514 145.488 107.836 146.816 107.836 148.457C107.836 150.099 106.514 151.425 104.877 151.425Z" fill="#FF5656"/>
<path d="M48.6228 151.425H39.7519C38.1149 151.425 36.793 150.099 36.793 148.457C36.793 146.816 38.1149 145.488 39.7519 145.488H48.6228C50.2583 145.488 51.5817 146.816 51.5817 148.457C51.5817 150.099 50.2583 151.425 48.6228 151.425Z" fill="#FF5656"/>
<path d="M137.43 175.153H21.9921C20.3552 175.153 19.0332 173.825 19.0332 172.184C19.0332 170.542 20.3552 169.215 21.9921 169.215H137.43C139.067 169.215 140.389 170.542 140.389 172.184C140.389 173.825 139.067 175.153 137.43 175.153Z" fill="#FF5656"/>
<path d="M158.114 17.8015C156.477 17.8015 155.155 16.4736 155.155 14.8326C155.155 9.92852 151.18 5.93769 146.296 5.93769C141.405 5.93769 137.425 9.92852 137.425 14.8326C137.425 16.4736 136.103 17.8015 134.466 17.8015C132.83 17.8015 131.507 16.4736 131.507 14.8326C131.507 6.6538 138.141 0 146.296 0C154.444 0 161.073 6.6538 161.073 14.8326C161.073 16.4736 159.749 17.8015 158.114 17.8015Z" fill="#FF5656"/>
<path d="M169.972 71.2404C161.821 71.2404 155.19 64.5866 155.19 56.4078C155.19 54.7654 156.512 53.439 158.149 53.439C159.785 53.439 161.108 54.7654 161.108 56.4078C161.108 61.3119 165.084 65.3027 169.972 65.3027C174.861 65.3027 178.837 61.3119 178.837 56.4078C178.837 54.7654 180.161 53.439 181.796 53.439C183.433 53.439 184.755 54.7654 184.755 56.4078C184.755 64.5866 178.125 71.2404 169.972 71.2404Z" fill="#FF5656"/>
<path d="M24.9687 17.8015C23.3332 17.8015 22.0098 16.4736 22.0098 14.8326C22.0098 6.6538 28.6413 0 36.7927 0C38.4282 0 39.7516 1.32641 39.7516 2.96884C39.7516 4.61127 38.4282 5.93769 36.7927 5.93769C31.905 5.93769 27.9276 9.92852 27.9276 14.8326C27.9276 16.4736 26.6056 17.8015 24.9687 17.8015Z" fill="#FF5656"/>
<path d="M146.295 5.93769H36.7929C35.156 5.93769 33.834 4.61127 33.834 2.96884C33.834 1.32641 35.156 0 36.7929 0H146.295C147.932 0 149.254 1.32641 149.254 2.96884C149.254 4.61127 147.932 5.93769 146.295 5.93769Z" fill="#FF5656"/>
<path d="M158.113 59.3769C156.476 59.3769 155.154 58.0504 155.154 56.408V14.8326C155.154 13.1902 156.476 11.8638 158.113 11.8638C159.749 11.8638 161.072 13.1902 161.072 14.8326V56.408C161.072 58.0504 159.749 59.3769 158.113 59.3769Z" fill="#FF5656"/>
<path d="M169.972 71.2404H134.448C132.813 71.2404 131.489 69.9126 131.489 68.2716C131.489 66.6291 132.813 65.3027 134.448 65.3027H169.972C171.609 65.3027 172.931 66.6291 172.931 68.2716C172.931 69.9126 171.609 71.2404 169.972 71.2404Z" fill="#FF5656"/>
<path d="M181.797 59.3771C180.161 59.3771 178.838 58.0506 178.838 56.4082V41.5582C178.838 39.9158 180.161 38.5894 181.797 38.5894C183.434 38.5894 184.756 39.9158 184.756 41.5582V56.4082C184.756 58.0506 183.434 59.3771 181.797 59.3771Z" fill="#FF5656"/>
<path d="M146.29 190H13.1277C8.23423 190 4.25098 186.003 4.25098 181.093V163.266C4.25098 158.355 8.23423 154.359 13.1277 154.359H24.9575C26.593 154.359 27.9164 155.686 27.9164 157.328C27.9164 158.969 26.593 160.297 24.9575 160.297H13.1277C11.4936 160.297 10.1688 161.626 10.1688 163.266V181.093C10.1688 182.732 11.4936 184.062 13.1277 184.062H146.29C147.924 184.062 149.249 182.732 149.249 181.093V163.266C149.249 161.626 147.927 160.297 146.301 160.297H134.472C132.836 160.297 131.513 158.969 131.513 157.328C131.513 155.686 132.836 154.359 134.472 154.359H146.301C151.191 154.359 155.167 158.355 155.167 163.266V181.093C155.167 186.003 151.185 190 146.29 190Z" fill="#FF5656"/>
<path d="M39.7519 133.621C38.1149 133.621 36.793 132.295 36.793 130.652V127.686C36.793 126.045 38.1149 124.717 39.7519 124.717C41.3874 124.717 42.7108 126.045 42.7108 127.686V130.652C42.7108 132.295 41.3874 133.621 39.7519 133.621Z" fill="#FF5656"/>
<path d="M48.6278 133.621C46.9909 133.621 45.6689 132.295 45.6689 130.652V127.686C45.6689 126.045 46.9909 124.717 48.6278 124.717C50.2633 124.717 51.5868 126.045 51.5868 127.686V130.652C51.5868 132.295 50.2633 133.621 48.6278 133.621Z" fill="#FF5656"/>
<path d="M57.5048 133.621C55.8679 133.621 54.5459 132.295 54.5459 130.652V127.686C54.5459 126.045 55.8679 124.717 57.5048 124.717C59.1403 124.717 60.4637 126.045 60.4637 127.686V130.652C60.4637 132.295 59.1403 133.621 57.5048 133.621Z" fill="#FF5656"/>
<path d="M66.3818 133.621C64.7448 133.621 63.4229 132.295 63.4229 130.652V127.686C63.4229 126.045 64.7448 124.717 66.3818 124.717C68.0172 124.717 69.3407 126.045 69.3407 127.686V130.652C69.3407 132.295 68.0172 133.621 66.3818 133.621Z" fill="#FF5656"/>
<path d="M84.1464 133.621C82.5109 133.621 81.1875 132.295 81.1875 130.652V127.686C81.1875 126.045 82.5109 124.717 84.1464 124.717C85.7833 124.717 87.1053 126.045 87.1053 127.686V130.652C87.1053 132.295 85.7833 133.621 84.1464 133.621Z" fill="#FF5656"/>
<path d="M75.2587 133.621C73.6218 133.621 72.2998 132.295 72.2998 130.652V127.686C72.2998 126.045 73.6218 124.717 75.2587 124.717C76.8942 124.717 78.2176 126.045 78.2176 127.686V130.652C78.2176 132.295 76.8942 133.621 75.2587 133.621Z" fill="#FF5656"/>
<path d="M119.959 133.904C118.323 133.904 117 132.577 117 130.935V127.969C117 126.328 118.323 125 119.959 125C121.596 125 122.918 126.328 122.918 127.969V130.935C122.918 132.577 121.596 133.904 119.959 133.904Z" fill="#FF5656"/>
<path d="M101.9 133.621C100.265 133.621 98.9414 132.295 98.9414 130.652V127.686C98.9414 126.045 100.265 124.717 101.9 124.717C103.537 124.717 104.859 126.045 104.859 127.686V130.652C104.859 132.295 103.537 133.621 101.9 133.621Z" fill="#FF5656"/>
<path d="M110.777 133.621C109.142 133.621 107.818 132.295 107.818 130.652V127.686C107.818 126.045 109.142 124.717 110.777 124.717C112.414 124.717 113.736 126.045 113.736 127.686V130.652C113.736 132.295 112.414 133.621 110.777 133.621Z" fill="#FF5656"/>
<path d="M119.653 133.621C118.018 133.621 116.694 132.295 116.694 130.652V127.686C116.694 126.045 118.018 124.717 119.653 124.717C121.29 124.717 122.612 126.045 122.612 127.686V130.652C122.612 132.295 121.29 133.621 119.653 133.621Z" fill="#FF5656"/>
<path d="M181.797 44.5268C181.04 44.5268 180.283 44.2355 179.705 43.6571L173.787 37.7194C172.63 36.5582 172.63 34.6824 173.787 33.5213C174.944 32.3601 176.814 32.3601 177.971 33.5213L183.889 39.4589C185.046 40.6201 185.046 42.4959 183.889 43.6571C183.312 44.2355 182.554 44.5268 181.797 44.5268Z" fill="#FF5656"/>
<path d="M169.973 44.5182C169.216 44.5182 168.458 44.2268 167.881 43.6484C166.725 42.4872 166.725 40.6114 167.881 39.4502L173.787 33.5213C174.944 32.3601 176.814 32.3601 177.971 33.5213C179.128 34.6824 179.128 36.5582 177.971 37.7194L172.065 43.6484C171.488 44.2268 170.731 44.5182 169.973 44.5182Z" fill="#FF5656"/>
<path d="M169.949 44.5268C169.192 44.5268 168.434 44.2355 167.857 43.6571L161.939 37.7194C160.782 36.5582 160.782 34.6824 161.939 33.5213C163.097 32.3601 164.966 32.3601 166.123 33.5213L172.041 39.4589C173.198 40.6201 173.198 42.4959 172.041 43.6571C171.465 44.2355 170.706 44.5268 169.949 44.5268Z" fill="#FF5656"/>
<path d="M158.119 44.5182C157.362 44.5182 156.604 44.2268 156.027 43.6484C154.87 42.4872 154.87 40.6114 156.027 39.4502L161.939 33.5213C163.096 32.3601 164.966 32.3601 166.123 33.5213C167.281 34.6824 167.281 36.5582 166.123 37.7194L160.211 43.6484C159.635 44.2268 158.876 44.5182 158.119 44.5182Z" fill="#FF5656"/>
</g>
<defs>
<clipPath id="clip0_887_20366">
<rect width="189" height="190" fill="white"/>
</clipPath>
</defs>
</svg>
