<svg width="27" height="24" viewBox="0 0 27 24" fill="none" xmlns="http://www.w3.org/2000/svg">
<path d="M19.8809 0C15.9554 0 12.7617 3.17337 12.7617 7.07395C12.7617 10.9745 15.9554 14.1479 19.8809 14.1479C23.8064 14.1479 27 10.9745 27 7.07395C27 3.17337 23.8064 0 19.8809 0ZM19.8809 12.5759C16.8277 12.5759 14.3438 10.1077 14.3438 7.07395C14.3438 4.04017 16.8277 1.57199 19.8809 1.57199C22.934 1.57199 25.418 4.04017 25.418 7.07395C25.418 10.1077 22.934 12.5759 19.8809 12.5759Z" fill="#FF5656"/>
<path d="M17.9033 5.50216C18.3402 5.50216 18.6943 5.15026 18.6943 4.71617C18.6943 4.28208 18.3402 3.93018 17.9033 3.93018C17.4665 3.93018 17.1123 4.28208 17.1123 4.71617C17.1123 5.15026 17.4665 5.50216 17.9033 5.50216Z" fill="#FF5656"/>
<path d="M21.8584 10.218C22.2953 10.218 22.6494 9.86608 22.6494 9.43199C22.6494 8.9979 22.2953 8.646 21.8584 8.646C21.4215 8.646 21.0674 8.9979 21.0674 9.43199C21.0674 9.86608 21.4215 10.218 21.8584 10.218Z" fill="#FF5656"/>
<path d="M22.3648 4.11237C22.0292 3.83449 21.5304 3.8795 21.2507 4.21303L17.2956 8.92899C17.016 9.26246 17.0613 9.75806 17.3969 10.036C17.7318 10.3132 18.2307 10.2696 18.511 9.93532L22.4661 5.21936C22.7457 4.88589 22.7004 4.39029 22.3648 4.11237Z" fill="#FF5656"/>
<path d="M23.248 15.0881L19.8057 17.6145C19.4699 17.8528 19.1019 18.0339 18.7167 18.1565C18.9213 17.5682 18.8866 16.9375 18.6157 16.3733C18.3356 15.7899 17.8416 15.3561 17.2227 15.1511L10.3507 12.8919C8.28251 12.2066 5.50025 12.503 3.64289 14.148H0.791016C0.354164 14.148 0 14.4999 0 14.934V22.7939C0 23.228 0.354164 23.5799 0.791016 23.5799H3.95508C4.39193 23.5799 4.74609 23.228 4.74609 22.7939V22.2066L10.9503 23.6075C12.0817 23.8649 13.2413 24 14.3143 24C14.3634 24 14.4123 23.9997 14.4609 23.9991C17.4632 23.9642 20.3628 23.0141 22.8464 21.2515L26.0065 18.9256C27.1129 18.1404 27.3298 16.5891 26.4802 15.5339C25.6931 14.5562 24.2734 14.3604 23.248 15.0881ZM3.16406 22.0079H1.58203V15.7199H3.16406V22.0079ZM25.087 17.6463L21.9268 19.9723C19.7078 21.5471 17.1197 22.396 14.4424 22.4271C13.4526 22.4389 12.3665 22.3169 11.3021 22.0748L4.74609 20.5945V15.2769C6.45052 13.8069 8.80342 14.0363 9.8521 14.3837L16.7241 16.6429C16.9297 16.711 17.0944 16.8556 17.1878 17.0501C17.2812 17.2445 17.2907 17.4627 17.2145 17.6644C17.0644 18.0621 16.6293 18.2684 16.2237 18.1341C16.2229 18.1338 16.2221 18.1337 16.2213 18.1334L11.3748 16.5455C10.9599 16.4096 10.5126 16.6336 10.3758 17.0458C10.239 17.4581 10.4645 17.9025 10.8793 18.0384L15.7558 19.6361C17.4308 20.1909 19.2884 19.9133 20.7251 18.8936L24.1674 16.3672C24.5091 16.1246 24.9824 16.1899 25.2448 16.5158C25.5275 16.8669 25.458 17.383 25.087 17.6463Z" fill="#FF5656"/>
</svg>
