<svg width="24" height="24" viewBox="0 0 24 24" fill="none" xmlns="http://www.w3.org/2000/svg">
<g clip-path="url(#clip0_1209_20570)">
<path d="M13.3464 8.18896C9.78031 8.18896 6.87903 11.0902 6.87903 14.6564C6.87903 18.2225 9.78031 21.1237 13.3464 21.1237C16.9125 21.1237 19.8138 18.2225 19.8138 14.6564C19.8138 11.0902 16.9125 8.18896 13.3464 8.18896ZM13.3464 13.8349C13.7993 13.8349 14.1678 14.2034 14.1678 14.6563C14.1678 15.1092 13.7993 15.4777 13.3464 15.4777C12.8935 15.4777 12.525 15.1092 12.525 14.6563C12.525 14.2034 12.8935 13.8349 13.3464 13.8349ZM13.3464 19.7174C10.5557 19.7174 8.28528 17.447 8.28528 14.6563C8.28528 12.1042 10.1842 9.98756 12.6433 9.64425V12.543C11.7586 12.8382 11.1188 13.6737 11.1188 14.6563C11.1188 15.8846 12.1181 16.8839 13.3464 16.8839C14.5747 16.8839 15.5741 15.8846 15.5741 14.6563C15.5741 13.6737 14.9342 12.8382 14.0495 12.543V9.64425C16.5086 9.98756 18.4076 12.1042 18.4076 14.6563C18.4075 17.4471 16.1371 19.7174 13.3464 19.7174Z" fill="#FF5656"/>
<path d="M22.9228 9.81585L24 8.91187L21.0772 5.42882L20 6.33281L21.0094 7.53571L20.1437 8.26213C18.5902 6.61171 16.4445 5.52487 14.0495 5.34571V4.26074H17.7536V0.00683594H8.9392V4.26074H12.6433V5.34571C9.47241 5.5829 6.73805 7.41079 5.23744 10.0318H2.12663V11.4381H4.58114C4.43414 11.8371 4.31423 12.249 4.22245 12.6714H0.548484V14.0776H4.02783C4.01606 14.2692 4.00936 14.462 4.00936 14.6564C4.00936 14.8765 4.01761 15.0947 4.03266 15.311H1.81411V16.7173H4.239C4.33458 17.1399 4.45913 17.5517 4.61002 17.9506H0V19.3569H5.28164C6.90295 22.1279 9.91073 23.9935 13.3464 23.9935C18.4949 23.9935 22.6835 19.805 22.6835 14.6565C22.6835 12.6892 22.0714 10.8625 21.0284 9.35568L21.9134 8.61309L22.9228 9.81585ZM10.3455 1.41309H16.3474V2.85449H10.3455V1.41309ZM13.3464 22.5872C8.97337 22.5872 5.41566 19.0295 5.41566 14.6564C5.41566 10.2833 8.97337 6.72562 13.3464 6.72562C17.7195 6.72562 21.2772 10.2833 21.2772 14.6564C21.2772 19.0295 17.7195 22.5872 13.3464 22.5872Z" fill="#FF5656"/>
</g>
<defs>
<clipPath id="clip0_1209_20570">
<rect width="24" height="24" fill="white"/>
</clipPath>
</defs>
</svg>
