<svg width="24" height="24" viewBox="0 0 24 24" fill="none" xmlns="http://www.w3.org/2000/svg">
<g clip-path="url(#clip0_1209_20579)">
<path d="M23.5005 11.5001C23.2237 11.5001 22.9995 11.7239 22.9995 12C22.9995 13.4854 22.7094 14.926 22.136 16.2817C21.5815 17.5913 20.7891 18.7676 19.7783 19.7783C18.7675 20.7891 17.5913 21.5816 16.2817 22.136C14.926 22.7095 13.4853 22.9995 12 22.9995C10.5146 22.9995 9.07392 22.7095 7.71858 22.136C6.40898 21.5816 5.23237 20.7891 4.22161 19.7783C3.21122 18.7676 2.418 17.5913 1.86394 16.2817C1.2908 14.926 1.00003 13.4854 1.00003 12C1.00003 10.5146 1.2908 9.07397 1.86394 7.71863C2.418 6.4087 3.21122 5.23242 4.22161 4.22166C5.23233 3.21127 6.40898 2.41805 7.71858 1.86398C9.07392 1.29052 10.5146 1.00008 12 1.00008C13.4853 1.00008 14.926 1.29047 16.2817 1.86398C17.4931 2.3767 18.5918 3.09483 19.5498 4.00008H17.7143C17.439 4.00008 17.2148 4.22381 17.2148 4.49995C17.2148 4.77609 17.439 4.99983 17.7143 4.99983H20.7143C20.9912 4.99983 21.2153 4.77609 21.2153 4.49995V1.5C21.2153 1.22386 20.9912 1.00013 20.7143 1.00013C20.439 1.00013 20.2148 1.22386 20.2148 1.5V3.25303C18.0674 1.23558 15.1787 0 12 0C5.37267 0 0 5.37267 0 12C0 18.627 5.37267 24 12 24C18.627 24 24 18.627 24 12C24 11.7239 23.7759 11.5001 23.5005 11.5001Z" fill="#FF5656"/>
<path d="M4.99988 7V10.9998V14.9999H19.0005V10.9998V7H4.99988ZM18 10.9998V13.9994H6V10.9998V7.99975H18V10.9998Z" fill="#FF5656"/>
<path d="M11.9912 8.46875C10.6102 8.46875 9.49109 9.58827 9.49109 10.9689C9.49109 12.3495 10.6103 13.4694 11.9912 13.4694C13.3718 13.4694 14.491 12.3495 14.491 10.9689C14.491 9.58827 13.3718 8.46875 11.9912 8.46875ZM11.9912 12.4689C11.164 12.4689 10.4912 11.7958 10.4912 10.9689C10.4912 10.1416 11.164 9.46887 11.9912 9.46887C12.8181 9.46887 13.4912 10.1416 13.4912 10.9689C13.4912 11.7958 12.8181 12.4689 11.9912 12.4689Z" fill="#FF5656"/>
<path d="M18.4995 15.4995H5.50013C5.22399 15.4995 4.99988 15.7236 4.99988 16.0005C4.99988 16.2759 5.22399 16.5 5.50013 16.5H18.4995C18.7763 16.5 19.0005 16.2759 19.0005 16.0005C19.0005 15.7237 18.7763 15.4995 18.4995 15.4995Z" fill="#FF5656"/>
<path d="M18.4995 16.9995H5.50013C5.22399 16.9995 4.99988 17.2236 4.99988 17.5005C4.99988 17.7759 5.22399 18 5.50013 18H18.4995C18.7763 18 19.0005 17.7759 19.0005 17.5005C19.0005 17.2237 18.7763 16.9995 18.4995 16.9995Z" fill="#FF5656"/>
</g>
<defs>
<clipPath id="clip0_1209_20579">
<rect width="24" height="24" fill="white"/>
</clipPath>
</defs>
</svg>
