<svg width="24" height="24" viewBox="0 0 24 24" fill="none" xmlns="http://www.w3.org/2000/svg">
<g clip-path="url(#clip0_1209_20574)">
<path d="M22.9697 0H0.984375C0.596008 0 0.28125 0.314758 0.28125 0.703125V11.4717C0.28125 15.2622 2.34064 18.7586 5.65576 20.5964L11.636 23.9117C11.742 23.9705 11.8596 24 11.9769 24C12.0943 24 12.2119 23.9705 12.3179 23.9117L18.2981 20.5964C21.6132 18.7586 23.6726 15.2622 23.6726 11.4717V0.703125C23.6728 0.314758 23.3578 0 22.9697 0ZM22.2665 11.4717C22.2665 14.7513 20.4847 17.7764 17.6164 19.3665L11.9769 22.4929L6.33746 19.3665C3.4693 17.7764 1.6875 14.7513 1.6875 11.4717V1.40625H22.2665V11.4717Z" fill="#FF5656"/>
<path d="M5.80757 12.3817C5.91615 12.6452 6.17286 12.8172 6.45777 12.8172C6.74269 12.8172 6.9994 12.6452 7.10798 12.3817L8.90077 8.02821C9.04853 7.66914 8.87751 7.25825 8.51844 7.1103C8.15919 6.96236 7.7483 7.13374 7.60054 7.49281L6.45777 10.2676L5.31501 7.49281C5.16706 7.13374 4.75618 6.96254 4.39711 7.1103C4.03804 7.25825 3.86683 7.66914 4.01478 8.02821L5.80757 12.3817Z" fill="#FF5656"/>
<path d="M10.1841 12.8174C10.5725 12.8174 10.8873 12.5026 10.8873 12.1143V10.6406H12.6815C13.6694 10.6406 14.473 9.83698 14.473 8.84912C14.473 7.86127 13.6694 7.05762 12.6815 7.05762H10.1841C9.79578 7.05762 9.48102 7.37238 9.48102 7.76074V12.1143C9.48102 12.5026 9.79578 12.8174 10.1841 12.8174ZM10.8873 8.46387H12.6815C12.8939 8.46387 13.0668 8.63672 13.0668 8.84912C13.0668 9.06152 12.8939 9.23438 12.6815 9.23438H10.8873V8.46387Z" fill="#FF5656"/>
<path d="M15.7033 12.817C16.0917 12.817 16.4064 12.5022 16.4064 12.1139V9.71994L18.7463 12.5608C18.8826 12.7262 19.0831 12.817 19.2892 12.817C19.3685 12.817 19.4489 12.8036 19.5266 12.7758C19.806 12.6754 19.9924 12.4107 19.9924 12.1139V7.76034C19.9924 7.37197 19.6774 7.05722 19.2892 7.05722C18.9009 7.05722 18.5861 7.37197 18.5861 7.76034V10.1543L16.2462 7.31338C16.0576 7.08432 15.7452 6.99826 15.466 7.09841C15.1866 7.19876 15.0002 7.46353 15.0002 7.76034V12.1139C15.0002 12.5022 15.3151 12.817 15.7033 12.817Z" fill="#FF5656"/>
</g>
<defs>
<clipPath id="clip0_1209_20574">
<rect width="24" height="24" fill="white"/>
</clipPath>
</defs>
</svg>
