<svg width="516" height="516" viewBox="0 0 516 516" fill="none" xmlns="http://www.w3.org/2000/svg">
<path d="M387 397.75H376.25V332.712H365.5V397.75H150.5V258H172V247.25H145.125C141.9 247.25 139.75 249.4 139.75 252.625V397.75H129V241.875C129 238.65 131.15 236.5 134.375 236.5H172.537V225.75H134.375C125.238 225.75 118.25 232.738 118.25 241.875V435.375C118.25 444.513 125.238 451.5 134.375 451.5H225.75V473H220.375C207.475 473 196.725 482.138 194.037 494.5H118.25V505.25H198.875H317.125H397.75V494.5H321.962C319.275 482.138 308.525 473 295.625 473H290.25V451.5H381.625C390.763 451.5 397.75 444.513 397.75 435.375V333.788H387V397.75ZM310.675 494.5H205.325C207.475 488.05 213.387 483.75 220.375 483.75H231.125H284.875H295.625C302.612 483.75 308.525 488.05 310.675 494.5ZM279.5 473H236.5V451.5H279.5V473ZM381.625 440.75H284.875H231.125H134.375C131.15 440.75 129 438.6 129 435.375V408.5H145.125H370.875H387V435.375C387 438.6 384.85 440.75 381.625 440.75ZM360.125 236.5H344V225.75H360.125V236.5ZM322.5 419.25H333.25V430H322.5V419.25ZM344 419.25H354.75V430H344V419.25ZM365.5 419.25H376.25V430H365.5V419.25ZM360.125 258H344V247.25H360.125V258ZM177.375 193.5V376.25H166.625V387H182.75H333.25H349.375V376.25H338.625V193.5C338.625 190.275 336.475 188.125 333.25 188.125H182.75C179.525 188.125 177.375 190.275 177.375 193.5ZM188.125 376.25V241.875H327.875V376.25H188.125ZM327.875 198.875V231.125H188.125V198.875H327.875ZM215 220.375H198.875V209.625H215V220.375ZM241.875 220.375H225.75V209.625H241.875V220.375ZM268.75 220.375H252.625V209.625H268.75V220.375ZM262.838 255.312C261.225 251.55 255.312 251.55 253.162 255.312L199.412 357.438C198.337 359.05 198.337 361.2 199.412 362.812C200.487 364.425 202.1 365.5 204.25 365.5H311.75C313.9 365.5 315.513 364.425 316.587 362.812C317.663 361.2 317.663 359.05 316.587 357.438L262.838 255.312ZM213.387 354.75L258 269.288L302.612 354.75H213.387ZM252.625 290.25H263.375V322.5H252.625V290.25ZM252.625 333.25H263.375V344H252.625V333.25ZM193.5 161.25V21.5C193.5 15.5875 188.663 10.75 182.75 10.75H26.875C20.9625 10.75 16.125 15.5875 16.125 21.5V161.25C16.125 167.163 20.9625 172 26.875 172H182.75C188.663 172 193.5 167.163 193.5 161.25ZM182.75 21.5V43H26.875V21.5H182.75ZM26.875 53.75H182.75V161.25H26.875V53.75ZM48.375 37.625H37.625V26.875H48.375V37.625ZM64.5 37.625H53.75V26.875H64.5V37.625ZM80.625 37.625H69.875V26.875H80.625V37.625ZM64.5 75.25H75.25V107.5V139.75H64.5V112.875H43C39.775 112.875 37.625 110.725 37.625 107.5V75.25H48.375V102.125H64.5V75.25ZM172 75.25V107.5V139.75H161.25V112.875H139.75C136.525 112.875 134.375 110.725 134.375 107.5V75.25H145.125V102.125H161.25V75.25H172ZM118.25 75.25H91.375C88.15 75.25 86 77.4 86 80.625V134.375C86 137.6 88.15 139.75 91.375 139.75H118.25C121.475 139.75 123.625 137.6 123.625 134.375V80.625C123.625 77.4 121.475 75.25 118.25 75.25ZM112.875 129H96.75V86H112.875V129ZM96.75 397.75H112.875V408.5H91.375C88.15 408.5 86 406.35 86 403.125V385.387L73.1 397.75C70.95 399.9 67.725 399.9 65.575 397.75L43 375.175C40.85 373.025 40.85 369.8 43 367.65L55.9 354.75H37.625C34.4 354.75 32.25 352.6 32.25 349.375V317.125C32.25 313.9 34.4 311.75 37.625 311.75H55.3625L43 298.85C40.85 296.7 40.85 293.475 43 291.325L65.575 268.75C67.725 266.6 70.95 266.6 73.1 268.75L86 281.65V263.375C86 260.15 88.15 258 91.375 258H111.8V268.75H96.75V293.475C96.75 295.625 95.675 297.775 93.525 298.312H92.9875C90.8375 298.85 88.6875 298.85 87.075 297.237L69.875 280.038L54.825 295.087L72.025 312.288C73.6375 313.9 74.175 316.05 73.1 318.2C72.025 320.35 69.875 321.962 67.725 321.962H43V343.462H67.725C69.875 343.462 72.025 344.538 72.5625 346.688V347.225C73.1 349.375 73.1 351.525 71.4875 353.137L54.2875 370.337L69.3375 385.387L86.5375 368.188C88.15 366.575 90.3 366.038 92.45 367.113C94.6 368.188 96.2125 370.338 96.2125 372.488V397.75H96.75ZM91.375 333.25C91.375 342.388 98.3625 349.375 107.5 349.375C109.113 349.375 110.187 349.375 111.8 348.837L114.487 359.05C111.8 359.588 109.65 360.125 107.5 360.125C92.45 360.125 80.625 348.3 80.625 333.25C80.625 318.2 92.45 306.375 107.5 306.375C109.65 306.375 111.8 306.913 113.95 307.45L111.263 317.663C110.188 317.125 109.113 317.125 107.5 317.125C98.3625 317.125 91.375 324.112 91.375 333.25ZM489.125 188.125H381.625C372.487 188.125 365.5 195.113 365.5 204.25V311.75C365.5 320.888 372.487 327.875 381.625 327.875H489.125C498.263 327.875 505.25 320.888 505.25 311.75V204.25C505.25 195.113 498.263 188.125 489.125 188.125ZM494.5 311.75C494.5 314.975 492.35 317.125 489.125 317.125H381.625C378.4 317.125 376.25 314.975 376.25 311.75V204.25C376.25 201.025 378.4 198.875 381.625 198.875H489.125C492.35 198.875 494.5 201.025 494.5 204.25V311.75ZM475.15 239.188C475.15 237.575 474.612 236.5 473.538 235.425L458.488 220.375C456.338 218.225 453.113 218.225 450.962 220.375L435.375 235.425L420.325 220.375C418.175 218.225 414.95 218.225 412.8 220.375L397.75 235.425C396.675 236.5 396.137 237.575 396.137 239.188C396.137 240.8 396.675 241.875 397.75 242.95L412.8 258L397.75 273.05C395.6 275.2 395.6 278.425 397.75 280.575L412.8 295.625C414.95 297.775 418.175 297.775 420.325 295.625L435.375 280.575L450.425 295.625C451.5 296.7 453.112 297.237 454.188 297.237C455.263 297.237 456.875 296.7 457.95 295.625L473 280.575C475.15 278.425 475.15 275.2 473 273.05L457.95 258L473 242.95C474.612 241.875 475.15 240.262 475.15 239.188ZM446.663 254.238C444.512 256.387 444.512 259.613 446.663 261.762L461.712 276.812L454.188 284.337L439.137 269.288C438.062 268.212 436.45 267.675 435.375 267.675C434.3 267.675 432.688 268.212 431.613 269.288L416.562 284.337L409.038 276.812L424.087 261.762C426.238 259.613 426.238 256.387 424.087 254.238L409.038 239.188L416.562 231.662L431.613 246.713C433.763 248.863 436.987 248.863 439.137 246.713L454.188 231.662L461.712 239.188L446.663 254.238ZM489.125 37.625H381.625C372.487 37.625 365.5 44.6125 365.5 53.75V161.25C365.5 170.387 372.487 177.375 381.625 177.375H489.125C498.263 177.375 505.25 170.387 505.25 161.25V53.75C505.25 44.6125 498.263 37.625 489.125 37.625ZM494.5 161.25C494.5 164.475 492.35 166.625 489.125 166.625H381.625C378.4 166.625 376.25 164.475 376.25 161.25V53.75C376.25 50.525 378.4 48.375 381.625 48.375H489.125C492.35 48.375 494.5 50.525 494.5 53.75V161.25ZM440.212 61.8125C438.062 58.5875 432.687 58.5875 431.075 61.8125L382.7 147.812C381.625 149.425 381.625 151.575 382.7 153.188C383.775 154.8 384.85 155.875 387 155.875H483.75C485.9 155.875 487.513 154.8 488.587 153.188C489.663 151.575 489.663 149.425 488.587 147.812L440.212 61.8125ZM396.137 145.125L435.375 75.25L474.613 145.125H396.137ZM430 96.75H440.75V118.25H430V96.75ZM430 123.625H440.75V134.375H430V123.625Z" fill="#02162C"/>
</svg>
