<svg width="462" height="74" viewBox="0 0 462 74" fill="none" xmlns="http://www.w3.org/2000/svg">
<path d="M0 45.2348V57.756H27.7848C32.0697 57.756 35.7588 57.051 38.8527 55.6411C41.946 54.231 44.3286 52.2944 46.0004 49.8315C47.6913 47.3686 48.5368 44.5579 48.5368 41.3993C48.5368 38.6733 47.9219 36.3044 46.692 34.2927C45.4627 32.2622 43.81 30.6736 41.7346 29.5267C39.6592 28.3611 37.3539 27.7312 34.8175 27.6372V27.0731C37.1036 26.6219 39.1024 25.8136 40.8125 24.6478C42.5226 23.4634 43.8483 21.9969 44.7896 20.2485C45.7507 18.5 46.2309 16.5636 46.2309 14.439C46.2309 11.506 45.4429 8.95853 43.8675 6.79643C42.3113 4.63433 39.9955 2.96108 36.9213 1.77668C33.8663 0.592277 30.0907 0 25.5944 0H0V12.2957H22.8274C24.8256 12.2957 26.4782 12.7752 27.7848 13.7339C29.0913 14.674 29.7446 16.0371 29.7446 17.8231C29.7446 19.0077 29.4374 20.0135 28.8225 20.8407C28.2267 21.6491 27.3911 22.2696 26.3151 22.7019C25.2384 23.1343 23.9993 23.3507 22.5969 23.3507H0V33.0519H23.7496C25.3831 33.0519 26.7761 33.2962 27.9288 33.7851C29.1012 34.2739 30.0042 34.9883 30.6383 35.9284C31.2724 36.8684 31.5894 38.0152 31.5894 39.369C31.5894 41.3054 30.917 42.7719 29.5715 43.7683C28.2267 44.746 26.2094 45.2348 23.519 45.2348H0Z" fill="#02162C"/>
<path d="M54.4453 14.439V57.756H70.355V35.1952C70.355 33.5406 70.711 32.1023 71.4217 30.8803C72.1325 29.6394 73.1028 28.6806 74.3327 28.0038C75.5818 27.3081 76.9841 26.9603 78.541 26.9603C79.0212 26.9603 79.5571 26.9826 80.1479 27.027C80.5731 27.0591 81.0268 27.1026 81.5095 27.1577L81.7252 27.1835C81.8426 27.1981 81.9582 27.2134 82.0719 27.2294L82.2227 27.2512L82.4452 27.2855C82.5484 27.3023 82.6504 27.3196 82.7505 27.3375C82.842 27.3539 82.9322 27.3709 83.0212 27.3884C83.5385 27.4906 84.0045 27.6112 84.4204 27.75V14.4673C83.7863 14.2792 83.1238 14.1382 82.4316 14.0442C82.3111 14.024 82.1905 14.0057 82.0694 13.9891C81.952 13.9729 81.8339 13.9584 81.7153 13.9458C81.2758 13.8986 80.8327 13.875 80.3852 13.875C78.0218 13.875 75.9563 14.58 74.1887 15.9901C72.4403 17.4002 71.1622 19.6281 70.355 22.6738H69.8939V14.439H54.4453Z" fill="#02162C"/>
<path fill-rule="evenodd" clip-rule="evenodd" d="M99.9123 58.4329C97.0879 58.4329 94.5897 57.9817 92.4185 57.0793C90.2665 56.1581 88.5755 54.7668 87.3463 52.9055C86.1164 51.0442 85.5014 48.6753 85.5014 45.7988C85.5014 43.4298 85.9143 41.4088 86.7406 39.7356C87.5669 38.0435 88.7202 36.6616 90.1991 35.5899C91.6787 34.5183 93.3988 33.7005 95.3586 33.1365C97.3376 32.5724 99.4704 32.2058 101.757 32.0366C104.236 31.8485 106.224 31.623 107.723 31.3598C109.241 31.0777 110.337 30.6923 111.009 30.2036C111.682 29.6959 112.018 29.0285 112.018 28.2012V28.0884C112.018 26.9603 111.576 26.0956 110.692 25.494C109.808 24.8923 108.674 24.5914 107.291 24.5914C105.773 24.5914 104.533 24.9205 103.573 25.5786C102.632 26.2177 102.064 27.2048 101.872 28.5397H87.2307C87.4229 25.9075 88.2776 23.4823 89.7962 21.2637C91.3333 19.0265 93.5718 17.2403 96.5112 15.9055C99.4513 14.5519 103.121 13.875 107.522 13.875C110.692 13.875 113.536 14.2416 116.053 14.9748C118.57 15.6893 120.713 16.6952 122.48 17.9923C124.248 19.2708 125.593 20.7749 126.515 22.5046C127.457 24.2155 127.928 26.0767 127.928 28.0884V57.756H113.056V51.6646H112.71C111.826 53.2814 110.75 54.5881 109.481 55.5846C108.232 56.581 106.801 57.3048 105.187 57.756C103.592 58.2072 101.834 58.4329 99.9123 58.4329ZM105.101 48.619C106.311 48.619 107.445 48.3745 108.501 47.8856C109.578 47.3969 110.452 46.6919 111.124 45.7706C111.797 44.8494 112.133 43.7306 112.133 42.4146V38.8048C111.71 38.9741 111.259 39.1339 110.779 39.2843C110.317 39.4347 109.818 39.5757 109.28 39.7072C109.04 39.7682 108.791 39.8271 108.535 39.8839C108.237 39.9499 107.928 40.0133 107.608 40.074C107.032 40.1868 106.427 40.2902 105.792 40.3841C104.562 40.5722 103.554 40.8823 102.766 41.3149C101.998 41.7284 101.421 42.2454 101.037 42.8659C100.671 43.4675 100.489 44.1444 100.489 44.8964C100.489 46.0996 100.922 47.0208 101.786 47.6601C102.651 48.2993 103.755 48.619 105.101 48.619Z" fill="#02162C"/>
<path d="M151.44 57.756V33.3902C151.459 31.9614 151.728 30.7394 152.246 29.7241C152.766 28.6901 153.505 27.9004 154.466 27.3552C155.446 26.7911 156.589 26.5091 157.896 26.5091C159.894 26.5091 161.45 27.1202 162.565 28.3423C163.699 29.5643 164.256 31.2469 164.236 33.3902V57.756H180.147V30.119C180.166 26.9792 179.532 24.1873 178.244 21.7431C176.976 19.299 175.18 17.3814 172.854 15.9901C170.549 14.58 167.83 13.875 164.698 13.875C161.45 13.875 158.607 14.6552 156.167 16.2157C153.745 17.7761 152.054 19.9289 151.094 22.6738H150.633V14.439H135.53V57.756H151.44Z" fill="#02162C"/>
<path fill-rule="evenodd" clip-rule="evenodd" d="M204.026 58.3202C200.875 58.3202 197.973 57.5117 195.322 55.8947C192.689 54.278 190.576 51.8244 188.98 48.5343C187.405 45.2442 186.617 41.0985 186.617 36.0976C186.617 30.871 187.443 26.6219 189.096 23.3507C190.768 20.0793 192.92 17.6822 195.552 16.1593C198.204 14.6365 200.99 13.875 203.911 13.875C206.101 13.875 208.022 14.2511 209.675 15.0031C211.328 15.7363 212.711 16.7233 213.826 17.9642C214.94 19.1862 215.786 20.5305 216.362 21.9969H216.592V0H232.502V57.756H216.708V50.6493H216.362C215.747 52.1159 214.863 53.4318 213.71 54.5976C212.577 55.7443 211.193 56.6562 209.56 57.3331C207.946 57.9911 206.101 58.3202 204.026 58.3202ZM209.906 46.3628C211.366 46.3628 212.615 45.9492 213.653 45.1219C214.71 44.2759 215.516 43.0914 216.074 41.5685C216.65 40.0269 216.938 38.2032 216.938 36.0976C216.938 33.9543 216.65 32.1212 216.074 30.5983C215.516 29.0567 214.71 27.8816 213.653 27.0731C212.615 26.246 211.366 25.8323 209.906 25.8323C208.445 25.8323 207.197 26.246 206.159 27.0731C205.14 27.8816 204.352 29.0567 203.796 30.5983C203.257 32.1212 202.988 33.9543 202.988 36.0976C202.988 38.2409 203.257 40.0833 203.796 41.625C204.352 43.1478 205.14 44.3229 206.159 45.1502C207.197 45.9585 208.445 46.3628 209.906 46.3628Z" fill="#02162C"/>
<path d="M254.292 57.756H271.586L284.498 15.9055H284.959L290.841 34.9695H284.162L280.997 46.7012H294.46L297.871 57.756H315.165L295.681 0H273.776L254.292 57.756Z" fill="#FF5656"/>
<path d="M336.99 0V57.756H321.08V0H336.99Z" fill="#FF5656"/>
<path d="M361.007 57.756V0H345.096V57.756H361.007Z" fill="#FF5656"/>
<path fill-rule="evenodd" clip-rule="evenodd" d="M390.326 58.5457C385.599 58.5457 381.526 57.6621 378.106 55.8947C374.704 54.1087 372.081 51.5519 370.237 48.2241C368.411 44.8776 367.499 40.873 367.499 36.2103C367.499 31.7357 368.421 27.8253 370.266 24.4786C372.11 21.1321 374.714 18.5282 378.076 16.6669C381.439 14.8056 385.407 13.875 389.98 13.875C393.324 13.875 396.35 14.3827 399.059 15.3978C401.769 16.4132 404.084 17.8889 406.005 19.8255C407.927 21.7431 409.406 24.0744 410.444 26.8194C411.482 29.5643 412 32.657 412 36.0976V39.7072H383.178V40.3841C383.178 41.7754 383.476 43.0163 384.071 44.1067C384.667 45.1972 385.523 46.0526 386.637 46.6731C387.751 47.2935 389.096 47.6036 390.672 47.6036C391.767 47.6036 392.766 47.4532 393.67 47.1524C394.592 46.8516 395.38 46.4192 396.033 45.8552C396.686 45.2723 397.167 44.5767 397.474 43.7683H412C411.501 46.7765 410.319 49.3898 408.455 51.6082C406.592 53.8079 404.123 55.5188 401.048 56.7409C397.993 57.9441 394.419 58.5457 390.326 58.5457ZM384.187 27.8346C383.553 28.7747 383.217 29.8745 383.178 31.1341H397.359C397.34 29.8933 397.013 28.8028 396.379 27.8628C395.764 26.9039 394.928 26.1614 393.871 25.6349C392.833 25.0897 391.652 24.8171 390.326 24.8171C389.039 24.8171 387.857 25.0897 386.781 25.6349C385.705 26.1614 384.84 26.8946 384.187 27.8346Z" fill="#FF5656"/>
<path d="M421.851 73.5769C423.503 73.8589 425.242 74 427.068 74C430.776 74 433.869 73.4454 436.348 72.3361C438.827 71.227 440.825 69.7134 442.343 67.7957C443.88 65.8969 445.053 63.7535 445.859 61.3659L462 14.439H445.283L438.02 44.4452H437.559L430.411 14.439H413.809L429.373 59.6738L429.027 60.4634C428.681 61.2531 428.115 61.7889 427.327 62.0709C426.558 62.3529 425.626 62.4282 424.531 62.2964C423.455 62.1648 422.264 61.8735 420.957 61.4223L417.498 72.4771C418.747 72.9472 420.198 73.3138 421.851 73.5769Z" fill="#FF5656"/>
</svg>
