<svg width="32" height="32" viewBox="0 0 32 32" fill="none" xmlns="http://www.w3.org/2000/svg">
<g clip-path="url(#clip0_1714_56)">
<path d="M22.2192 14.6406H24.2261V23.2719C24.2261 23.7989 23.7989 24.2261 23.2719 24.2261H8.72808C8.20113 24.2261 7.77388 23.7989 7.77388 23.2719V14.6406H9.78078C9.68544 15.0788 9.63374 15.5333 9.63374 15.9999C9.63374 19.5159 12.4839 22.3661 15.9999 22.3661C19.5159 22.3661 22.3661 19.5159 22.3661 15.9999C22.3661 15.5333 22.3146 15.0787 22.2192 14.6406ZM15.9999 20.2881C18.3681 20.2881 20.288 18.3683 20.288 16.0001C20.288 13.6318 18.3681 11.712 15.9999 11.712C13.6317 11.712 11.7119 13.6318 11.7119 16.0001C11.7119 18.3683 13.6317 20.2881 15.9999 20.2881ZM21.1375 11.5961H22.7707C23.2495 11.5961 23.6377 11.2079 23.6377 10.729V9.09599C23.6377 8.61717 23.2496 8.22909 22.7707 8.22909H21.1375C20.6587 8.22909 20.2706 8.61717 20.2706 9.09599V10.7292C20.2706 11.208 20.6587 11.5961 21.1375 11.5961ZM26 0C29.3137 0 32 2.68629 32 6V26C32 29.3137 29.3137 32 26 32H6C2.68629 32 0 29.3137 0 26V6C0 2.68629 2.68629 0 6 0H26ZM26.192 8.37876C26.192 6.95907 25.0411 5.80812 23.6214 5.80812H8.37876C6.95907 5.80812 5.80812 6.95907 5.80812 8.37876V23.6214C5.80812 25.0411 6.95907 26.192 8.37876 26.192H23.6214C25.0411 26.192 26.192 25.0411 26.192 23.6214V8.37876Z" fill="#02162C"/>
</g>
<defs>
<clipPath id="clip0_1714_56">
<rect width="32" height="32" fill="white"/>
</clipPath>
</defs>
</svg>
