<svg width="32" height="32" viewBox="0 0 32 32" fill="none" xmlns="http://www.w3.org/2000/svg">
<g clip-path="url(#clip0_1714_69)">
<path d="M21.421 11.3487L14.2944 17.9731C14.0439 18.2058 13.8821 18.5183 13.8364 18.8571L13.5939 20.6559C13.5616 20.8959 13.2238 20.9201 13.1577 20.6872L12.224 17.407C12.1175 17.0326 12.2728 16.6329 12.6042 16.4288L21.2394 11.11C21.3944 11.0147 21.5543 11.2247 21.421 11.3487ZM26 0C29.3137 0 32 2.68629 32 6V26C32 29.3137 29.3137 32 26 32H6C2.68629 32 0 29.3137 0 26V6C0 2.68629 2.68629 0 6 0H26ZM24.8789 7.68803L6.7457 14.6832C6.29867 14.8557 6.3021 15.4895 6.75098 15.6571L11.1692 17.3063L12.8795 22.8063C12.9891 23.1585 13.4201 23.2884 13.706 23.0553L16.1689 21.0474C16.4271 20.837 16.7944 20.8267 17.064 21.0224L21.5065 24.2477C21.8123 24.4698 22.2455 24.3023 22.3223 23.9323L25.5762 8.27972C25.6602 7.87608 25.2637 7.53955 24.8789 7.68803Z" fill="#02162C"/>
</g>
<defs>
<clipPath id="clip0_1714_69">
<rect width="32" height="32" fill="white"/>
</clipPath>
</defs>
</svg>
