<svg width="32" height="32" viewBox="0 0 32 32" fill="none" xmlns="http://www.w3.org/2000/svg">
<g clip-path="url(#clip0_1714_58)">
<path d="M14.0713 23.6706C14.0713 23.7099 14.0713 23.7591 14.0496 23.7865C13.9021 23.9767 13.7266 24.1354 13.4962 24.2197C13.2961 24.2927 13.1367 24.2035 13.0946 23.9957C13.0777 23.9135 13.077 23.8272 13.077 23.7429C13.0763 22.1946 13.0721 19.0201 13.07 18.9815H11.9276C11.9276 19.0243 11.9262 23.4466 11.929 24.2822C11.9297 24.5083 11.9536 24.733 12.0477 24.9429C12.1488 25.1704 12.3166 25.3144 12.5666 25.3558C12.7498 25.3874 12.9289 25.367 13.103 25.3073C13.4597 25.1845 13.7392 24.9528 13.9857 24.6747C14.0074 24.6501 14.0306 24.6262 14.072 24.582V25.2757H15.2173V22.2403C15.2173 21.1884 15.2173 18.9717 15.2173 18.9717L14.0713 18.9745V23.6706Z" fill="#02162C"/>
<path d="M19.4859 19.4735C19.2443 18.9588 18.7367 18.8226 18.2964 18.9328C18.0296 19.0002 17.8133 19.154 17.6357 19.3527C17.5767 19.4194 17.5121 19.5486 17.5121 19.5486C17.5121 19.5486 17.5121 17.6479 17.5121 16.7393H16.3647V25.2741H17.5121V24.7952C17.5121 24.7952 17.5935 24.8816 17.623 24.9132C17.8863 25.199 18.2058 25.3556 18.5997 25.3591C19.0842 25.364 19.4213 25.1295 19.5744 24.6688C19.6453 24.4547 19.6684 24.2342 19.6692 24.0109C19.6706 22.8179 19.6706 21.6249 19.6684 20.432C19.6684 20.1019 19.6284 19.7776 19.4859 19.4735ZM18.4874 23.8684C18.4874 23.9323 18.4797 23.9969 18.4663 24.0594C18.4137 24.3094 18.2234 24.4218 17.9538 24.3663C17.7901 24.3326 17.6624 24.2385 17.5528 24.1198C17.5479 24.1142 17.5156 24.0707 17.5156 24.0707V23.9773L17.5128 20.1877C17.5128 20.1877 17.5374 20.1175 17.5914 20.0704C17.7263 19.951 17.8751 19.8759 18.0612 19.8942C18.2199 19.9096 18.3463 19.9826 18.4052 20.1294C18.4495 20.241 18.4846 20.3653 18.4853 20.4847C18.4909 21.6123 18.4888 22.74 18.4874 23.8684Z" fill="#02162C"/>
<path d="M15.3601 12.0345C15.6277 12.0345 15.8453 11.8169 15.8453 11.5494V8.12624C15.8453 7.85872 15.6276 7.64111 15.3601 7.64111C15.0927 7.64111 14.875 7.85879 14.875 8.12624V11.5494C14.8749 11.8168 15.0926 12.0345 15.3601 12.0345Z" fill="#02162C"/>
<path d="M11.9303 16.7402H7.95605V17.9633H9.29509V25.2751H10.5885V17.9605H11.9303V16.7402Z" fill="#02162C"/>
<path d="M22.7635 23.0369V23.8465C22.7635 24.1295 22.5346 24.3584 22.2523 24.3584C21.9693 24.3584 21.7404 24.1295 21.7404 23.8465V22.2716H23.9375C23.9375 22.2716 23.9502 21.1727 23.941 20.6741C23.9375 20.4614 23.9214 20.2458 23.8778 20.038C23.7641 19.4987 23.4741 19.0922 22.9313 18.9138C22.7719 18.8611 22.6006 18.8338 22.4328 18.8232C21.8745 18.7874 21.3858 18.9468 21.0038 19.3744C20.6689 19.7487 20.5524 20.1995 20.5517 20.6882C20.5495 21.6228 20.5453 22.5581 20.5545 23.4927C20.5573 23.7307 20.584 23.9736 20.638 24.2054C20.7546 24.7032 21.0263 25.0943 21.5059 25.3106C21.8563 25.4693 22.2263 25.477 22.5999 25.4222C23.2023 25.3337 23.6131 25.0107 23.8118 24.4286C23.9614 23.9926 23.9438 23.0369 23.9438 23.0369H22.7635ZM21.7404 20.4109C21.7404 20.1286 21.9693 19.899 22.2523 19.899C22.5346 19.899 22.7635 20.1286 22.7635 20.4109V21.2949H21.7404V20.4109Z" fill="#02162C"/>
<path d="M6 0C2.68629 0 0 2.68629 0 6V26C0 29.3137 2.68629 32 6 32H26C29.3137 32 32 29.3137 32 26V6C32 2.68629 29.3137 0 26 0H6ZM18.0271 6.6699H19.1924V11.5023C19.1924 11.5663 19.1976 11.6311 19.2088 11.6938C19.2441 11.893 19.3914 11.9867 19.5831 11.9202C19.8169 11.8393 19.9953 11.6775 20.1466 11.4868C20.168 11.4595 20.1641 11.4087 20.1641 11.3687V6.6699H21.3379L21.3376 13.0065H20.1635L20.1649 12.3258C20.035 12.4537 19.9242 12.5731 19.8025 12.6804C19.5866 12.8705 19.3421 13.0123 19.0562 13.0683C18.6171 13.1541 18.2431 13.0153 18.1031 12.5606C18.0565 12.4091 18.0283 12.2459 18.0271 12.0878V6.6699ZM15.3601 6.51128C16.2887 6.51128 17.0414 7.264 17.0414 8.19255V11.4828C17.0414 12.4114 16.2887 13.1641 15.3601 13.1641C14.4316 13.1641 13.6789 12.4114 13.6789 11.4828V8.19255C13.6788 7.264 14.4315 6.51128 15.3601 6.51128ZM10.8375 4.42858C10.8375 4.42858 11.3715 6.69665 11.6264 7.77104H11.6268C11.8817 6.69665 12.4157 4.42858 12.4157 4.42858H13.7518C13.7518 4.42858 12.7253 7.83318 12.2662 9.35155C12.2496 9.40639 12.2421 9.46607 12.2421 9.52358L12.2427 13.0052H11.0106L11.0111 9.52358C11.0111 9.46607 11.0035 9.40646 10.987 9.35155C10.5279 7.83318 9.50132 4.42858 9.50132 4.42858H10.8375ZM25.5294 24.6366C25.5294 26.194 24.2851 27.4664 22.7284 27.4994C18.2437 27.5956 13.7568 27.5956 9.27136 27.4994C7.71536 27.4664 6.47112 26.194 6.47112 24.6366V17.6318C6.47112 16.0751 7.71536 14.8028 9.27136 14.7698C13.7568 14.6736 18.2437 14.6736 22.7284 14.7698C24.2851 14.8028 25.5294 16.0751 25.5294 17.6318V24.6366Z" fill="#02162C"/>
</g>
<defs>
<clipPath id="clip0_1714_58">
<rect width="32" height="32" fill="white"/>
</clipPath>
</defs>
</svg>
