<svg width="32" height="32" viewBox="0 0 32 32" fill="none" xmlns="http://www.w3.org/2000/svg">
<g clip-path="url(#clip0_1714_52)">
<path d="M16.0142 6.69336C10.897 6.69336 6.73389 10.8565 6.73389 15.9737C6.73389 17.7567 7.24064 19.4882 8.19924 20.9809L8.42962 21.3397L7.52699 24.5456L10.8439 23.6918L11.186 23.9007C12.6362 24.7861 14.3059 25.2541 16.0142 25.2541C21.1314 25.2541 25.2945 21.0909 25.2945 15.9737C25.2945 10.8565 21.1314 6.69336 16.0142 6.69336ZM21.705 18.826L21.5892 19.3668C21.4586 19.977 21.0963 20.5167 20.5705 20.853C19.9068 21.2776 19.0464 21.4861 17.9529 21.1769C14.5591 20.2172 12.6398 17.9703 11.61 16.5659C10.5801 15.1616 10.1822 13.7572 10.4397 12.6104C10.6123 11.8412 11.1745 11.2511 11.526 10.9457C11.6983 10.7961 11.9217 10.72 12.1494 10.7324L12.8746 10.772C13.0175 10.7798 13.1434 10.868 13.1997 10.9995L14.2561 13.4712C14.3125 13.6033 14.2887 13.7559 14.1948 13.8645L13.2753 14.9283C13.2007 15.0146 13.1877 15.1374 13.2403 15.2386C14.4514 17.5715 16.6585 18.4959 17.3175 18.7275C17.4297 18.7669 17.5542 18.7297 17.6269 18.6354L18.5891 17.388C18.6961 17.2493 18.8848 17.2029 19.0439 17.2763L21.4948 18.406C21.6545 18.4797 21.7418 18.6541 21.705 18.826Z" fill="#02162C"/>
<path d="M6 0C2.68629 0 0 2.68629 0 6V26C0 29.3137 2.68629 32 6 32H26C29.3137 32 32 29.3137 32 26V6C32 2.68629 29.3137 0 26 0H6ZM16.0144 27.1497C14.0942 27.1497 12.2139 26.6582 10.5506 25.7249L4.80943 27.2027L6.37688 21.6356C5.36892 19.9233 4.83822 17.975 4.83822 15.9735C4.83822 9.81091 9.85185 4.79729 16.0144 4.79729C22.177 4.79729 27.1906 9.81091 27.1906 15.9735C27.1906 22.1361 22.177 27.1497 16.0144 27.1497Z" fill="#02162C"/>
</g>
<defs>
<clipPath id="clip0_1714_52">
<rect width="32" height="32" fill="white"/>
</clipPath>
</defs>
</svg>
