<svg width="21" height="20" viewBox="0 0 21 20" fill="none" xmlns="http://www.w3.org/2000/svg">
<path fill-rule="evenodd" clip-rule="evenodd" d="M6.9585 5.41667C6.9585 3.46066 8.54415 1.875 10.5002 1.875C12.4562 1.875 14.0418 3.46066 14.0418 5.41667C14.0418 7.37268 12.4562 8.95833 10.5002 8.95833C8.54415 8.95833 6.9585 7.37268 6.9585 5.41667ZM10.5002 3.125C9.23451 3.125 8.2085 4.15101 8.2085 5.41667C8.2085 6.68232 9.23451 7.70833 10.5002 7.70833C11.7658 7.70833 12.7918 6.68232 12.7918 5.41667C12.7918 4.15101 11.7658 3.125 10.5002 3.125Z" fill="white"/>
<path fill-rule="evenodd" clip-rule="evenodd" d="M8.30584 11.0415H12.6942C13.6043 11.0415 14.3255 11.0415 14.9069 11.089C15.5014 11.1376 16.0044 11.2389 16.4637 11.4729C17.2085 11.8524 17.8141 12.458 18.1936 13.2028C18.4276 13.6621 18.5289 14.1651 18.5775 14.7596C18.625 15.341 18.625 16.0622 18.625 16.9723V17.4998C18.625 17.845 18.3452 18.1248 18 18.1248H3C2.65482 18.1248 2.375 17.845 2.375 17.4998L2.375 16.9723C2.375 16.0622 2.37499 15.341 2.42249 14.7596C2.47106 14.1651 2.5724 13.6621 2.80643 13.2028C3.18593 12.458 3.79147 11.8524 4.5363 11.4729C4.99561 11.2389 5.49864 11.1376 6.09312 11.089C6.67447 11.0415 7.39572 11.0415 8.30584 11.0415ZM5.10377 12.5867C4.59417 12.8463 4.17985 13.2607 3.92019 13.7703C3.79091 14.024 3.71059 14.3442 3.66834 14.8614C3.6274 15.3624 3.62513 15.9964 3.62501 16.8748H17.375C17.3749 15.9964 17.3726 15.3624 17.3317 14.8614C17.2894 14.3442 17.2091 14.024 17.0798 13.7703C16.8202 13.2607 16.4058 12.8463 15.8962 12.5867M5.10377 12.5867C5.3575 12.4574 5.67773 12.3771 6.19491 12.3348C6.71939 12.292 7.3896 12.2915 8.33333 12.2915H12.6667C13.6104 12.2915 14.2806 12.292 14.8051 12.3348C15.3223 12.3771 15.6425 12.4574 15.8962 12.5867" fill="white"/>
</svg>
