<svg width="160" height="26" viewBox="0 0 160 26" fill="none" xmlns="http://www.w3.org/2000/svg">
<path d="M0 15.8933V20.2927H9.62243C11.1064 20.2927 12.384 20.0449 13.4555 19.5496C14.5268 19.0541 15.3519 18.3737 15.9309 17.5084C16.5165 16.643 16.8093 15.6555 16.8093 14.5457C16.8093 13.5879 16.5963 12.7556 16.1704 12.0488C15.7446 11.3354 15.1723 10.7772 14.4536 10.3742C13.7348 9.96471 12.9364 9.74339 12.058 9.71038V9.51217C12.8497 9.35364 13.542 9.06964 14.1342 8.66005C14.7265 8.24391 15.1856 7.72864 15.5116 7.11435C15.8444 6.5 16.0107 5.81964 16.0107 5.07315C16.0107 4.04266 15.7378 3.14759 15.1922 2.38794C14.6533 1.62828 13.8512 1.04038 12.7866 0.624239C11.7286 0.208097 10.421 0 8.86387 0H0V4.32011H7.90561C8.5976 4.32011 9.16995 4.48859 9.62243 4.82544C10.0749 5.15573 10.3012 5.63466 10.3012 6.26217C10.3012 6.67837 10.1948 7.03177 9.98181 7.32239C9.77547 7.60645 9.48609 7.82444 9.11344 7.97636C8.74058 8.12828 8.31143 8.20429 7.82577 8.20429H0V11.6128H8.22496C8.79067 11.6128 9.27312 11.6987 9.6723 11.8704C10.0783 12.0422 10.3911 12.2932 10.6107 12.6235C10.8303 12.9538 10.9401 13.3567 10.9401 13.8323C10.9401 14.5127 10.7072 15.028 10.2412 15.378C9.77547 15.7216 9.07684 15.8933 8.14512 15.8933H0Z" fill="#02162C"/>
<path d="M18.8555 5.07315V20.2927H24.3654V12.3659C24.3654 11.7845 24.4887 11.2792 24.7348 10.8498C24.9809 10.4139 25.317 10.077 25.7429 9.83918C26.1755 9.59475 26.6612 9.47255 27.2003 9.47255C27.3667 9.47255 27.5522 9.48038 27.7568 9.49599C27.9041 9.50725 28.0612 9.52254 28.2284 9.5419L28.3031 9.55095C28.3438 9.55608 28.3838 9.56147 28.4232 9.56708L28.4754 9.57475L28.5524 9.58681C28.5882 9.59268 28.6235 9.59877 28.6582 9.60506C28.6899 9.61083 28.7211 9.61681 28.7519 9.62294C28.9311 9.65886 29.0925 9.70123 29.2365 9.75V5.0831C29.0169 5.01703 28.7875 4.96746 28.5477 4.93446C28.506 4.92737 28.4643 4.92092 28.4223 4.9151C28.3816 4.90938 28.3408 4.9043 28.2997 4.89986C28.1475 4.88331 27.994 4.875 27.839 4.875C27.0205 4.875 26.3052 5.12272 25.6931 5.61815C25.0875 6.11359 24.6449 6.89636 24.3654 7.96647H24.2057V5.07315H18.8555Z" fill="#02162C"/>
<path fill-rule="evenodd" clip-rule="evenodd" d="M34.6017 20.5305C33.6235 20.5305 32.7583 20.372 32.0064 20.0549C31.2611 19.7312 30.6755 19.2424 30.2498 18.5884C29.8238 17.9345 29.6109 17.1021 29.6109 16.0915C29.6109 15.2591 29.7539 14.549 30.04 13.9611C30.3262 13.3666 30.7256 12.8811 31.2378 12.5046C31.7502 12.128 32.3459 11.8407 33.0246 11.6426C33.71 11.4443 34.4486 11.3155 35.2406 11.2561C36.0991 11.19 36.7877 11.1108 37.3067 11.0183C37.8324 10.9192 38.2119 10.7838 38.4448 10.6121C38.6777 10.4337 38.7941 10.1992 38.7941 9.90853V9.86891C38.7941 9.47255 38.6411 9.16871 38.335 8.95734C38.0289 8.74596 37.6361 8.64022 37.1571 8.64022C36.6314 8.64022 36.2021 8.75585 35.8694 8.98706C35.5434 9.21161 35.347 9.55846 35.2804 10.0274H30.2098C30.2763 9.10264 30.5723 8.25052 31.0982 7.47103C31.6306 6.68498 32.4058 6.05741 33.4238 5.58842C34.442 5.11283 35.713 4.875 37.2369 4.875C38.335 4.875 39.3198 5.0038 40.1916 5.26141C41.0634 5.51246 41.8052 5.86587 42.4174 6.32163C43.0298 6.77083 43.4955 7.29928 43.8149 7.90701C44.1411 8.50813 44.3039 9.1621 44.3039 9.86891V20.2927H39.1535V18.1524H39.0336C38.7275 18.7205 38.3549 19.1796 37.9157 19.5297C37.4831 19.8798 36.9874 20.1341 36.4285 20.2927C35.8761 20.4512 35.2671 20.5305 34.6017 20.5305ZM36.3985 17.0823C36.8176 17.0823 37.2104 16.9964 37.5762 16.8247C37.9491 16.653 38.2517 16.4053 38.4846 16.0816C38.7175 15.7579 38.8339 15.3648 38.8339 14.9024V13.6341C38.6875 13.6936 38.5312 13.7498 38.3649 13.8026C38.2051 13.8555 38.0321 13.905 37.8459 13.9512C37.7626 13.9726 37.6766 13.9933 37.588 14.0132C37.4848 14.0365 37.3778 14.0587 37.2669 14.0801C37.0672 14.1197 36.8577 14.156 36.6381 14.189C36.2121 14.2551 35.8628 14.3641 35.5899 14.516C35.3238 14.6613 35.1241 14.843 34.991 15.061C34.8645 15.2724 34.8014 15.5102 34.8014 15.7744C34.8014 16.1972 34.9512 16.5208 35.2506 16.7454C35.5501 16.97 35.9326 17.0823 36.3985 17.0823Z" fill="#02162C"/>
<path d="M52.4467 20.2927V11.7317C52.4533 11.2297 52.5464 10.8003 52.726 10.4436C52.9058 10.0803 53.162 9.80284 53.4946 9.6113C53.8341 9.4131 54.2301 9.31402 54.6826 9.31402C55.3746 9.31402 55.9135 9.52873 56.2997 9.9581C56.6922 10.3875 56.8851 10.9786 56.8784 11.7317V20.2927H62.3885V10.5823C62.3951 9.47917 62.1755 8.49824 61.7297 7.63946C61.2905 6.78073 60.6682 6.10697 59.863 5.61815C59.0644 5.12272 58.1229 4.875 57.0383 4.875C55.9135 4.875 54.9287 5.14911 54.0837 5.69739C53.2451 6.24567 52.6595 7.00205 52.3268 7.96647H52.1672V5.07315H46.9366V20.2927H52.4467Z" fill="#02162C"/>
<path fill-rule="evenodd" clip-rule="evenodd" d="M70.6584 20.4909C69.567 20.4909 68.5621 20.2068 67.6438 19.6387C66.7322 19.0706 66.0002 18.2086 65.4478 17.0526C64.9022 15.8966 64.6293 14.44 64.6293 12.6829C64.6293 10.8466 64.9155 9.35364 65.4878 8.20429C66.0668 7.05489 66.8121 6.21266 67.7237 5.67761C68.6419 5.14255 69.607 4.875 70.6184 4.875C71.3769 4.875 72.0424 5.00714 72.6147 5.27136C73.1871 5.52897 73.6661 5.87576 74.0522 6.31174C74.4381 6.74111 74.7309 7.21342 74.9304 7.72864H75.0103V0H80.5203V20.2927H75.0503V17.7957H74.9304C74.7175 18.311 74.4114 18.7734 74.0122 19.1829C73.6197 19.5859 73.1404 19.9062 72.5749 20.1441C72.0158 20.3752 71.3769 20.4909 70.6584 20.4909ZM72.6946 16.2896C73.2003 16.2896 73.6329 16.1443 73.9923 15.8536C74.3583 15.5564 74.6376 15.1402 74.8307 14.6052C75.0304 14.0635 75.1301 13.4228 75.1301 12.6829C75.1301 11.9299 75.0304 11.2858 74.8307 10.7508C74.6376 10.2091 74.3583 9.79623 73.9923 9.51217C73.6329 9.22156 73.2003 9.0762 72.6946 9.0762C72.1888 9.0762 71.7564 9.22156 71.397 9.51217C71.0443 9.79623 70.7714 10.2091 70.5786 10.7508C70.3921 11.2858 70.299 11.9299 70.299 12.6829C70.299 13.436 70.3921 14.0833 70.5786 14.625C70.7714 15.1601 71.0443 15.5729 71.397 15.8636C71.7564 16.1476 72.1888 16.2896 72.6946 16.2896Z" fill="#02162C"/>
<path d="M88.0666 20.2927H94.0556L98.5274 5.58842H98.6871L100.724 12.2866H98.411L97.3151 16.4085H101.978L103.159 20.2927H109.148L102.4 0H94.8142L88.0666 20.2927Z" fill="#FF5656"/>
<path d="M116.707 0V20.2927H111.197V0H116.707Z" fill="#FF5656"/>
<path d="M125.024 20.2927V0H119.514V20.2927H125.024Z" fill="#FF5656"/>
<path fill-rule="evenodd" clip-rule="evenodd" d="M135.178 20.5701C133.541 20.5701 132.13 20.2597 130.946 19.6387C129.768 19.0112 128.859 18.1128 128.221 16.9436C127.588 15.7678 127.272 14.3608 127.272 12.7226C127.272 11.1504 127.592 9.77645 128.231 8.6006C128.869 7.4248 129.771 6.50989 130.936 5.85592C132.1 5.20196 133.474 4.875 135.058 4.875C136.216 4.875 137.264 5.05337 138.202 5.41005C139.141 5.76679 139.942 6.28529 140.608 6.96571C141.273 7.63946 141.786 8.45857 142.145 9.42304C142.505 10.3875 142.684 11.4741 142.684 12.6829V13.9512H132.702V14.189C132.702 14.6778 132.805 15.1138 133.012 15.497C133.218 15.8801 133.514 16.1807 133.9 16.3986C134.286 16.6166 134.752 16.7256 135.298 16.7256C135.677 16.7256 136.023 16.6728 136.336 16.5671C136.655 16.4614 136.928 16.3095 137.154 16.1113C137.381 15.9065 137.547 15.6621 137.653 15.378H142.684C142.511 16.435 142.102 17.3532 141.456 18.1326C140.811 18.9055 139.956 19.5066 138.891 19.936C137.833 20.3587 136.595 20.5701 135.178 20.5701ZM133.052 9.77973C132.832 10.11 132.716 10.4964 132.702 10.939H137.613C137.607 10.503 137.494 10.1199 137.274 9.78962C137.061 9.45272 136.772 9.19183 136.406 9.00685C136.046 8.81531 135.637 8.71951 135.178 8.71951C134.732 8.71951 134.323 8.81531 133.95 9.00685C133.577 9.19183 133.278 9.44944 133.052 9.77973Z" fill="#FF5656"/>
<path d="M146.095 25.8514C146.668 25.9504 147.27 26 147.902 26C149.186 26 150.258 25.8051 151.116 25.4154C151.975 25.0257 152.667 24.4939 153.192 23.8201C153.725 23.153 154.131 22.3999 154.41 21.561L160 5.07315H154.211L151.695 15.6159H151.536L149.06 5.07315H143.311L148.701 20.9665L148.581 21.2439C148.461 21.5214 148.265 21.7096 147.992 21.8087C147.726 21.9078 147.403 21.9342 147.024 21.8879C146.651 21.8417 146.238 21.7393 145.786 21.5808L144.588 25.4649C145.021 25.6301 145.523 25.7589 146.095 25.8514Z" fill="#FF5656"/>
</svg>
