<svg width="160" height="160" viewBox="0 0 160 160" fill="none" xmlns="http://www.w3.org/2000/svg">
<path d="M19.718 146.549C17.8818 146.549 16.0896 145.998 14.5423 144.937C12.5186 143.549 11.1558 141.456 10.706 139.045L0.156888 82.4912C-0.772573 77.5118 2.52372 72.7044 7.50387 71.7749L40.747 65.5748V22.347C40.747 17.4415 44.7381 13.4504 49.6436 13.4504H151.103C156.009 13.4504 160 17.4415 160 22.347V80.4556C160 85.362 156.009 89.353 151.103 89.353H122.747L127.937 117.176C128.386 119.588 127.871 122.032 126.483 124.056C125.095 126.08 123.002 127.442 120.59 127.893L21.4222 146.392C20.8539 146.497 20.2832 146.549 19.718 146.549ZM40.747 69.5674L8.22373 75.6341C5.37098 76.1663 3.48301 78.9201 4.01525 81.7713L14.5643 138.325C14.8226 139.706 15.6029 140.904 16.7624 141.7C17.9218 142.495 19.3207 142.792 20.7032 142.533L119.871 124.034C121.252 123.777 122.451 122.997 123.246 121.837C124.041 120.678 124.337 119.278 124.079 117.896L118.755 89.3538H49.6436C44.7373 89.3538 40.747 85.3628 40.747 80.4564V69.5674ZM49.9341 85.4287H151.103C153.845 85.4287 156.075 83.1977 156.075 80.4564V49.6837H44.6721V80.166C44.6721 83.0674 47.0327 85.4287 49.9341 85.4287ZM44.6721 45.7579H156.075V31.2806H44.6721V45.7579ZM44.6721 27.3555H156.075V22.347C156.075 19.6058 153.845 17.3755 151.103 17.3755H49.6436C46.9023 17.3755 44.6721 19.6058 44.6721 22.347V27.3555ZM19.0421 123.712C18.1157 123.712 17.2915 123.053 17.1148 122.109C16.9162 121.044 17.6188 120.019 18.6841 119.82L37.037 116.396C38.1015 116.203 39.1275 116.9 39.3261 117.966C39.5247 119.031 38.8222 120.056 37.7569 120.255L19.404 123.679C19.2831 123.701 19.1614 123.712 19.0421 123.712ZM44.3503 118.991C43.4239 118.991 42.5997 118.332 42.423 117.388C42.2244 116.323 42.927 115.298 43.9923 115.098L62.3452 111.675C63.4081 111.482 64.4357 112.179 64.6343 113.245C64.8329 114.31 64.1304 115.335 63.0651 115.534L44.7122 118.958C44.5905 118.98 44.4696 118.991 44.3503 118.991ZM69.6577 114.27C68.7313 114.27 67.9071 113.612 67.7304 112.667C67.5318 111.603 68.2344 110.578 69.2997 110.378L87.6526 106.955C88.7148 106.762 89.7431 107.459 89.9417 108.525C90.1404 109.589 89.4378 110.614 88.3725 110.814L70.0196 114.237C69.8987 114.259 69.777 114.27 69.6577 114.27ZM94.9651 109.549C94.0387 109.549 93.2145 108.891 93.0378 107.946C92.8392 106.882 93.5418 105.856 94.6071 105.657L112.96 102.234C114.025 102.04 115.051 102.738 115.249 103.804C115.448 104.868 114.745 105.893 113.68 106.093L95.327 109.516C95.2061 109.538 95.0852 109.549 94.9651 109.549ZM19.2838 108.836C16.6438 108.836 14.288 106.955 13.7872 104.268L12.3443 96.5312C11.7791 93.5003 13.7848 90.5737 16.8165 90.007L28.7747 87.7767C31.8033 87.2092 34.7322 89.2172 35.299 92.249L36.7419 99.9861C37.3071 103.017 35.3014 105.944 32.2688 106.51L20.3107 108.741C19.966 108.805 19.623 108.836 19.2838 108.836ZM29.8015 91.6068C29.7003 91.6068 29.5974 91.6162 29.4946 91.6359L17.5364 93.8661C16.6328 94.0349 16.0339 94.907 16.2027 95.8122L17.6455 103.549C17.8143 104.452 18.6888 105.051 19.5916 104.882L31.549 102.651C32.4533 102.482 33.0523 101.61 32.8835 100.705L31.4406 92.9688C31.2907 92.1673 30.5881 91.6068 29.8015 91.6068Z" fill="#FF5656"/>
</svg>
