<svg width="160" height="160" viewBox="0 0 160 160" fill="none" xmlns="http://www.w3.org/2000/svg">
<path d="M157.99 93.7322C149.323 76.3975 140.859 59.481 139.8 57.3637C139.651 57.0622 139.42 56.8087 139.134 56.6319C138.848 56.4551 138.518 56.3622 138.182 56.3637H107.273V47.2728C107.273 46.7906 107.081 46.3281 106.74 45.9871C106.399 45.6461 105.937 45.4546 105.454 45.4546H98.1818C97.6995 45.4546 97.2371 45.6461 96.8961 45.9871C96.5551 46.3281 96.3636 46.7906 96.3636 47.2728C96.3636 47.755 96.5551 48.2174 96.8961 48.5584C97.2371 48.8994 97.6995 49.091 98.1818 49.091H103.636V129.091H48.9836C48.538 125.091 46.6335 121.396 43.6343 118.712C40.6351 116.029 36.7518 114.545 32.7272 114.545C28.7026 114.545 24.8193 116.029 21.8201 118.712C18.8209 121.396 16.9164 125.091 16.4708 129.091H5.45448V49.091H10.909C11.3912 49.091 11.8537 48.8994 12.1947 48.5584C12.5356 48.2174 12.7272 47.755 12.7272 47.2728C12.7272 46.7906 12.5356 46.3281 12.1947 45.9871C11.8537 45.6461 11.3912 45.4546 10.909 45.4546H3.6363C3.15409 45.4546 2.69162 45.6461 2.35065 45.9871C2.00967 46.3281 1.81812 46.7906 1.81812 47.2728V130.909C1.81812 131.391 2.00967 131.854 2.35065 132.195C2.69162 132.536 3.15409 132.727 3.6363 132.727H16.4708C16.9164 136.727 18.8209 140.422 21.8201 143.106C24.8193 145.79 28.7026 147.273 32.7272 147.273C36.7518 147.273 40.6351 145.79 43.6343 143.106C46.6335 140.422 48.538 136.727 48.9836 132.727H114.653C115.098 136.727 117.003 140.422 120.002 143.106C123.001 145.79 126.884 147.273 130.909 147.273C134.934 147.273 138.817 145.79 141.816 143.106C144.815 140.422 146.72 136.727 147.165 132.727H156.364C156.845 132.726 157.307 132.534 157.648 132.193C157.988 131.853 158.18 131.391 158.182 130.909V94.5455C158.166 94.2653 158.101 93.99 157.99 93.7322ZM153.418 92.7273H116.364V69.091H141.6L153.418 92.7273ZM32.7272 143.636C30.21 143.636 27.7493 142.89 25.6563 141.491C23.5633 140.093 21.932 138.105 20.9687 135.78C20.0054 133.454 19.7534 130.895 20.2445 128.426C20.7356 125.957 21.9477 123.69 23.7277 121.91C25.5076 120.13 27.7754 118.918 30.2442 118.426C32.7131 117.935 35.2721 118.187 37.5977 119.151C39.9233 120.114 41.9111 121.745 43.3096 123.838C44.708 125.931 45.4545 128.392 45.4545 130.909C45.4506 134.283 44.1084 137.518 41.7224 139.904C39.3365 142.29 36.1015 143.633 32.7272 143.636ZM130.909 143.636C128.392 143.636 125.931 142.89 123.838 141.491C121.745 140.093 120.114 138.105 119.151 135.78C118.187 133.454 117.935 130.895 118.426 128.426C118.917 125.957 120.13 123.69 121.91 121.91C123.689 120.13 125.957 118.918 128.426 118.426C130.895 117.935 133.454 118.187 135.78 119.151C138.105 120.114 140.093 121.745 141.491 123.838C142.89 125.931 143.636 128.392 143.636 130.909C143.632 134.283 142.29 137.518 139.904 139.904C137.518 142.29 134.283 143.633 130.909 143.636ZM147.165 129.091C146.72 125.091 144.815 121.396 141.816 118.712C138.817 116.029 134.934 114.545 130.909 114.545C126.884 114.545 123.001 116.029 120.002 118.712C117.003 121.396 115.098 125.091 114.653 129.091H107.273V60H137.054L139.782 65.4546H114.545C114.063 65.4546 113.601 65.6461 113.26 65.9871C112.919 66.3281 112.727 66.7906 112.727 67.2728V94.5455C112.727 95.0277 112.919 95.4902 113.26 95.8312C113.601 96.1721 114.063 96.3637 114.545 96.3637H154.545V129.091H147.165Z" fill="#FF5656"/>
<path d="M130.909 123.636C129.471 123.636 128.064 124.063 126.868 124.862C125.672 125.661 124.74 126.797 124.19 128.126C123.639 129.455 123.495 130.917 123.776 132.328C124.057 133.739 124.749 135.035 125.766 136.052C126.783 137.069 128.079 137.762 129.49 138.042C130.901 138.323 132.363 138.179 133.692 137.628C135.021 137.078 136.157 136.146 136.956 134.95C137.755 133.754 138.182 132.348 138.182 130.909C138.18 128.981 137.413 127.132 136.049 125.769C134.686 124.405 132.837 123.638 130.909 123.636ZM130.909 134.546C130.19 134.546 129.487 134.332 128.889 133.933C128.291 133.533 127.825 132.965 127.549 132.301C127.274 131.636 127.202 130.905 127.342 130.2C127.483 129.494 127.829 128.846 128.338 128.338C128.846 127.829 129.494 127.483 130.2 127.343C130.905 127.202 131.636 127.274 132.301 127.55C132.965 127.825 133.533 128.291 133.932 128.889C134.332 129.487 134.545 130.19 134.545 130.909C134.544 131.873 134.161 132.798 133.479 133.479C132.797 134.161 131.873 134.544 130.909 134.546Z" fill="#FF5656"/>
<path d="M32.7273 123.636C31.2889 123.636 29.8828 124.063 28.6868 124.862C27.4908 125.661 26.5587 126.797 26.0082 128.126C25.4577 129.455 25.3137 130.917 25.5943 132.328C25.875 133.739 26.5676 135.035 27.5847 136.052C28.6018 137.069 29.8977 137.762 31.3085 138.042C32.7193 138.323 34.1816 138.179 35.5105 137.628C36.8394 137.078 37.9752 136.146 38.7744 134.95C39.5735 133.754 40 132.348 40 130.909C39.998 128.981 39.2311 127.132 37.8677 125.769C36.5042 124.405 34.6555 123.638 32.7273 123.636ZM32.7273 134.546C32.0081 134.546 31.3051 134.332 30.7071 133.933C30.1091 133.533 29.643 132.965 29.3678 132.301C29.0925 131.636 29.0205 130.905 29.1608 130.2C29.3011 129.494 29.6475 128.846 30.156 128.338C30.6646 127.829 31.3125 127.483 32.0179 127.343C32.7233 127.202 33.4544 127.274 34.1189 127.55C34.7834 127.825 35.3513 128.291 35.7508 128.889C36.1504 129.487 36.3637 130.19 36.3637 130.909C36.3626 131.873 35.9791 132.798 35.2974 133.479C34.6157 134.161 33.6914 134.544 32.7273 134.546Z" fill="#FF5656"/>
<path d="M18.1817 81.8182H90.909C91.3912 81.8182 91.8537 81.6266 92.1946 81.2857C92.5356 80.9447 92.7272 80.4822 92.7272 80V14.5455C92.7272 14.0633 92.5356 13.6008 92.1946 13.2598C91.8537 12.9189 91.3912 12.7273 90.909 12.7273H18.1817C17.6995 12.7273 17.237 12.9189 16.8961 13.2598C16.5551 13.6008 16.3635 14.0633 16.3635 14.5455V80C16.3635 80.4822 16.5551 80.9447 16.8961 81.2857C17.237 81.6266 17.6995 81.8182 18.1817 81.8182ZM19.9999 78.1818V30.9091H43.6363V43.6364C43.6362 43.979 43.7329 44.3146 43.9153 44.6046C44.0976 44.8946 44.3582 45.1272 44.667 45.2755C44.9758 45.4239 45.3202 45.482 45.6605 45.4432C46.0009 45.4043 46.3234 45.2701 46.5908 45.056L54.5453 38.6924L62.4999 45.056C62.7673 45.2701 63.0898 45.4043 63.4301 45.4432C63.7705 45.482 64.1149 45.4239 64.4237 45.2755C64.7325 45.1272 64.993 44.8946 65.1754 44.6046C65.3578 44.3146 65.4545 43.979 65.4544 43.6364V30.9091H89.0908V78.1818H19.9999ZM89.0908 27.2727H65.4544V16.3637H89.0908V27.2727ZM61.8181 39.8535L55.6817 34.9444C55.3591 34.6864 54.9584 34.5458 54.5453 34.5458C54.1323 34.5458 53.7315 34.6864 53.409 34.9444L47.2726 39.8535V16.3637H61.8181V39.8535ZM19.9999 16.3637H43.6363V27.2727H19.9999V16.3637Z" fill="#FF5656"/>
<path d="M50.9091 61.8181H27.2728C26.7906 61.8181 26.3281 62.0097 25.9871 62.3506C25.6461 62.6916 25.4546 63.1541 25.4546 63.6363C25.4546 64.1185 25.6461 64.581 25.9871 64.9219C26.3281 65.2629 26.7906 65.4545 27.2728 65.4545H50.9091C51.3913 65.4545 51.8538 65.2629 52.1948 64.9219C52.5358 64.581 52.7273 64.1185 52.7273 63.6363C52.7273 63.1541 52.5358 62.6916 52.1948 62.3506C51.8538 62.0097 51.3913 61.8181 50.9091 61.8181Z" fill="#FF5656"/>
<path d="M40 69.0908H27.2728C26.7906 69.0908 26.3281 69.2824 25.9871 69.6234C25.6461 69.9643 25.4546 70.4268 25.4546 70.909C25.4546 71.3912 25.6461 71.8537 25.9871 72.1947C26.3281 72.5356 26.7906 72.7272 27.2728 72.7272H40C40.4823 72.7272 40.9447 72.5356 41.2857 72.1947C41.6267 71.8537 41.8182 71.3912 41.8182 70.909C41.8182 70.4268 41.6267 69.9643 41.2857 69.6234C40.9447 69.2824 40.4823 69.0908 40 69.0908Z" fill="#FF5656"/>
</svg>
