<svg width="160" height="160" viewBox="0 0 160 160" fill="none" xmlns="http://www.w3.org/2000/svg">
<path d="M149.331 2.6665H10.6694C4.78656 2.6665 0 7.45338 0 13.3359V101.333C0 102.805 1.19469 104 2.66656 104H157.333C158.805 104 160 102.805 160 101.333V13.3359C160 7.45338 155.213 2.6665 149.331 2.6665ZM154.667 98.6665H5.33344V13.3359C5.33344 10.3918 7.72812 7.99994 10.6694 7.99994H149.331C152.272 7.99994 154.667 10.3918 154.667 13.3359V98.6665Z" fill="#FF5656"/>
<path d="M157.333 98.6665H2.66656C1.19469 98.6665 0 99.8612 0 101.333V114.664C0 120.547 4.78656 125.333 10.6694 125.333H149.331C155.213 125.333 160 120.547 160 114.664V101.333C160 99.8612 158.805 98.6665 157.333 98.6665ZM154.667 114.664C154.667 117.608 152.272 120 149.331 120H10.6694C7.72812 120 5.33344 117.608 5.33344 114.664V104H154.667L154.667 114.664Z" fill="#FF5656"/>
<path d="M87.9996 109.333H71.9996C70.5277 109.333 69.333 110.528 69.333 112C69.333 113.472 70.5277 114.667 71.9996 114.667H87.9996C89.4714 114.667 90.6661 113.472 90.6661 112C90.6661 110.528 89.4714 109.333 87.9996 109.333Z" fill="#FF5656"/>
<path d="M146.667 13.3335H13.3336C11.8617 13.3335 10.667 14.5282 10.667 16.0001V101.333C10.667 102.805 11.8617 104 13.3336 104H146.667C148.139 104 149.334 102.805 149.334 101.333V16.0001C149.334 14.5282 148.139 13.3335 146.667 13.3335ZM144 98.6666H16.0001V18.6666H144V98.6666Z" fill="#FF5656"/>
<path d="M114.666 141.333H45.333C40.9224 141.333 37.333 144.923 37.333 149.333C37.333 153.744 40.9224 157.333 45.333 157.333H114.666C119.077 157.333 122.666 153.744 122.666 149.333C122.666 144.923 119.077 141.333 114.666 141.333ZM114.666 152H45.333C43.8611 152 42.6664 150.803 42.6664 149.333C42.6664 147.864 43.8611 146.667 45.333 146.667H114.666C116.138 146.667 117.333 147.864 117.333 149.333C117.333 150.803 116.138 152 114.666 152Z" fill="#FF5656"/>
<path d="M109.333 141.334C100.485 141.334 95.9997 135.054 95.9997 122.667C95.9997 121.195 94.805 120 93.3331 120H66.6666C65.1947 120 64 121.195 64 122.667C64 135.054 59.5147 141.334 50.6666 141.334C49.1947 141.334 48 142.528 48 144C48 145.472 49.1947 146.667 50.6666 146.667H109.333C110.805 146.667 112 145.472 112 144C112 142.528 110.805 141.334 109.333 141.334ZM63.6556 141.334C66.9384 137.696 68.8716 132.28 69.2609 125.334H90.7409C91.1275 132.28 93.0609 137.696 96.3462 141.334H63.6556Z" fill="#FF5656"/>
<path d="M127.424 81.2372L120.986 74.8L124.568 71.2188C125.232 70.5547 125.498 69.5894 125.269 68.68C125.04 67.7706 124.349 67.0506 123.45 66.7788L96.7836 58.7788C95.8424 58.496 94.8264 58.7547 94.133 59.4481C93.437 60.1416 93.1811 61.16 93.4636 62.0988L101.464 88.7653C101.733 89.6666 102.455 90.3572 103.365 90.5866C104.271 90.8106 105.24 90.5491 105.904 89.8853L109.674 86.1119L116.111 92.5519C116.61 93.0531 117.29 93.3331 117.997 93.3331C118.703 93.3331 119.383 93.0531 119.882 92.5519L127.423 85.0078C128.466 83.9653 128.466 82.28 127.424 81.2372ZM117.997 86.8959L112.135 81.0319C111.455 80.3519 110.565 80.0131 109.674 80.0131C108.781 80.0131 107.89 80.3544 107.213 81.0291L105.288 82.9544L99.9942 65.3091L117.64 70.6025L115.575 72.6666C115.007 73.2372 114.695 73.9947 114.695 74.8C114.695 75.6081 115.01 76.3706 115.581 76.936L121.767 83.1225L117.997 86.8959Z" fill="#FF5656"/>
<path d="M112 24H37.3336C35.8617 24 34.667 25.1947 34.667 26.6666V40C34.667 41.4719 35.8617 42.6666 37.3336 42.6666H112C113.472 42.6666 114.667 41.4719 114.667 40V26.6666C114.667 25.1947 113.472 24 112 24ZM109.334 37.3334H40.0001V29.3334H109.334V37.3334Z" fill="#FF5656"/>
<path d="M69.333 53.3335H47.9996C46.5277 53.3335 45.333 54.5282 45.333 56.0001V66.6666C45.333 68.1385 46.5277 69.3332 47.9996 69.3332H69.333C70.8049 69.3332 71.9996 68.1385 71.9996 66.6666V56.0001C71.9996 54.5282 70.8049 53.3335 69.333 53.3335ZM66.6661 64.0001H50.6661V58.6666H66.6661V64.0001Z" fill="#FF5656"/>
<path d="M112.333 24H37.6666C36.1947 24 35 25.1947 35 26.6666V77.3331C35 78.805 36.1947 79.9997 37.6666 79.9997H101.149C101.995 79.9997 102.787 79.6025 103.288 78.925C103.792 78.2478 103.947 77.3731 103.704 76.565L100.328 65.3091L111.568 68.6825C112.376 68.9253 113.251 68.7706 113.925 68.2666C114.603 67.7653 115 66.9706 115 66.1278V26.6666C115 25.1947 113.805 24 112.333 24ZM109.667 62.5441L97.1144 58.7787C96.1731 58.4959 95.1572 58.7547 94.4637 59.4481C93.7678 60.1441 93.5119 61.16 93.7944 62.1016L97.565 74.6669H40.3331V29.3334H109.667V62.5441Z" fill="#FF5656"/>
</svg>
