<svg width="160" height="160" viewBox="0 0 160 160" fill="none" xmlns="http://www.w3.org/2000/svg">
<g clip-path="url(#clip0_988_18489)">
<path d="M159.889 156.047L153.126 131.453V35C153.126 33.2744 151.727 31.875 150.001 31.875H101.251V21.25C101.251 9.53281 91.7178 0 80.0006 0C68.2834 0 58.7506 9.53281 58.7506 21.25V31.875H10.0006C8.2747 31.875 6.87564 33.2744 6.87564 35V131.453C6.87564 131.453 0.121886 156.012 0.112511 156.046C-0.429364 158.017 1.09157 160 3.12564 160C3.12564 160 156.348 160 156.874 160C158.9 160 160.426 158 159.889 156.047ZM98.1256 50.9375C99.8488 50.9375 101.251 52.3394 101.251 54.0625C101.251 55.7856 99.8488 57.1875 98.1256 57.1875C96.4025 57.1875 95.0006 55.7856 95.0006 54.0625C95.0006 52.3394 96.4025 50.9375 98.1256 50.9375ZM65.0006 21.25C65.0006 12.9791 71.7297 6.25 80.0006 6.25C88.2716 6.25 95.0006 12.9791 95.0006 21.25V31.875H65.0006V21.25ZM61.8756 50.9375C63.5988 50.9375 65.0006 52.3394 65.0006 54.0625C65.0006 55.7856 63.5988 57.1875 61.8756 57.1875C60.1525 57.1875 58.7506 55.7856 58.7506 54.0625C58.7506 52.3394 60.1525 50.9375 61.8756 50.9375ZM13.1256 38.125H58.7506V45.225C55.1134 46.515 52.5006 49.9888 52.5006 54.0625C52.5006 59.2319 56.7063 63.4375 61.8756 63.4375C67.045 63.4375 71.2506 59.2319 71.2506 54.0625C71.2506 49.9888 68.6378 46.515 65.0006 45.225V38.125H95.0006V45.225C91.3634 46.515 88.7506 49.9888 88.7506 54.0625C88.7506 59.2319 92.9563 63.4375 98.1256 63.4375C103.295 63.4375 107.501 59.2319 107.501 54.0625C107.501 49.9888 104.888 46.515 101.251 45.225V38.125H146.876V128.75H13.1256V38.125ZM7.22595 153.75L12.3822 135H147.619L152.775 153.75H7.22595Z" fill="#FF5656"/>
<path d="M136.876 92.9844C135.154 92.9844 133.751 94.3875 133.751 96.1125V115.172H93.4385C91.7166 115.172 90.3135 116.575 90.3135 118.297C90.3135 120.022 91.7166 121.425 93.4416 121.422C93.4416 121.422 136.799 121.422 136.876 121.422C138.5 121.422 140.001 120.067 140.001 118.297V96.1125C140.001 94.3875 138.601 92.9844 136.876 92.9844Z" fill="#FF5656"/>
<path d="M136.876 80.4844C135.154 80.4844 133.751 81.8875 133.751 83.6094C133.751 85.3344 135.154 86.7344 136.876 86.7344C138.601 86.7344 140.001 85.3344 140.001 83.6094C140.001 81.8875 138.601 80.4844 136.876 80.4844Z" fill="#FF5656"/>
</g>
<defs>
<clipPath id="clip0_988_18489">
<rect width="160" height="160" fill="white"/>
</clipPath>
</defs>
</svg>
