<svg width="160" height="160" viewBox="0 0 160 160" fill="none" xmlns="http://www.w3.org/2000/svg">
<g clip-path="url(#clip0_826_16424)">
<path d="M156.229 51.2048L81.4067 0.432305C80.558 -0.144258 79.443 -0.143945 78.5936 0.432305L3.77111 51.2048C3.08393 51.6711 2.67236 52.4473 2.67236 53.2779V157.495C2.67236 158.879 3.79393 160 5.17768 160H154.823C156.206 160 157.328 158.879 157.328 157.495V53.2779C157.328 52.4473 156.917 51.6711 156.229 51.2048ZM61.4614 154.99H34.4052V127.934H40.0836V141.462C40.0836 142.845 41.2052 143.967 42.5889 143.967H53.278C54.6614 143.967 55.7833 142.845 55.7833 141.462V127.934H61.4617L61.4614 154.99ZM29.0608 64.1339V58.4554H130.94V64.1339H29.0608ZM45.0942 138.956V127.934H50.7727V138.956H45.0942ZM61.4614 122.923H53.2777H42.5886H34.4049V95.8667H40.0833V109.395C40.0833 110.778 41.2049 111.9 42.5886 111.9H53.2777C54.6611 111.9 55.783 110.779 55.783 109.395V95.8667H61.4614V122.923ZM45.0942 106.889V95.8667H50.7727V106.889H45.0942ZM93.5283 154.99H66.4721V127.934H72.1505V141.462C72.1505 142.845 73.272 143.967 74.6558 143.967H85.3449C86.7286 143.967 87.8502 142.845 87.8502 141.462V127.934H93.5286L93.5283 154.99ZM77.1608 138.956V127.934H82.8392V138.956H77.1608ZM152.318 154.99H130.606V101.378C130.606 99.9945 129.485 98.8726 128.1 98.8726C126.717 98.8726 125.595 99.9942 125.595 101.378V154.989H98.5389V125.428C98.5389 124.045 97.4177 122.923 96.0336 122.923H66.4721V93.3614C66.4721 91.9779 65.3505 90.8561 63.9667 90.8561H34.4052V69.1442H125.595V101.378C125.595 102.761 126.716 103.883 128.1 103.883C129.484 103.883 130.606 102.762 130.606 101.378V69.1442H133.445C134.829 69.1442 135.95 68.0226 135.95 66.6389V55.9501C135.95 54.5667 134.829 53.4448 133.445 53.4448H26.5555C25.172 53.4448 24.0502 54.5664 24.0502 55.9501V66.6392C24.0502 68.0226 25.1717 69.1445 26.5555 69.1445H29.3949V154.99H7.68299V54.6054L80.0002 5.53293L152.317 54.6054L152.318 154.99Z" fill="#FF5656"/>
<path d="M90.6893 21.3779H69.3115C67.928 21.3779 66.8062 22.4995 66.8062 23.8832C66.8062 25.267 67.9277 26.3886 69.3115 26.3886H90.6893C92.073 26.3886 93.1946 25.267 93.1946 23.8832C93.1946 22.4995 92.073 21.3779 90.6893 21.3779Z" fill="#FF5656"/>
<path d="M90.6893 32.0669H69.3115C67.928 32.0669 66.8062 33.1885 66.8062 34.5722C66.8062 35.956 67.9277 37.0775 69.3115 37.0775H90.6893C92.073 37.0775 93.1946 35.956 93.1946 34.5722C93.1946 33.1885 92.073 32.0669 90.6893 32.0669Z" fill="#FF5656"/>
<path d="M90.6893 42.7559H69.3115C67.928 42.7559 66.8062 43.8774 66.8062 45.2612C66.8062 46.6449 67.9277 47.7665 69.3115 47.7665H90.6893C92.073 47.7665 93.1946 46.6449 93.1946 45.2612C93.1946 43.8774 92.073 42.7559 90.6893 42.7559Z" fill="#FF5656"/>
<path d="M53.2779 114.906H42.5888C41.2054 114.906 40.0835 116.028 40.0835 117.412C40.0835 118.795 41.2051 119.917 42.5888 119.917H53.2779C54.6613 119.917 55.7832 118.795 55.7832 117.412C55.7829 116.028 54.6613 114.906 53.2779 114.906Z" fill="#FF5656"/>
<path d="M53.2779 146.973H42.5888C41.2054 146.973 40.0835 148.094 40.0835 149.478C40.0835 150.861 41.2051 151.983 42.5888 151.983H53.2779C54.6613 151.983 55.7832 150.862 55.7832 149.478C55.7829 148.095 54.6613 146.973 53.2779 146.973Z" fill="#FF5656"/>
<path d="M85.3443 146.973H74.6552C73.2718 146.973 72.1499 148.094 72.1499 149.478C72.1499 150.861 73.2715 151.983 74.6552 151.983H85.3443C86.728 151.983 87.8496 150.862 87.8496 149.478C87.8496 148.095 86.7283 146.973 85.3443 146.973Z" fill="#FF5656"/>
</g>
<defs>
<clipPath id="clip0_826_16424">
<rect width="160" height="160" fill="white"/>
</clipPath>
</defs>
</svg>
