<svg width="160" height="160" viewBox="0 0 160 160" fill="none" xmlns="http://www.w3.org/2000/svg">
<path d="M160 75.4998V146.167C160 152.048 155.215 156.833 149.333 156.833H48.3333C42.4517 156.833 37.6667 152.048 37.6667 146.167V109.167C37.6667 107.694 38.8607 106.5 40.3333 106.5H138C139.473 106.5 140.667 107.694 140.667 109.167C140.667 110.639 139.473 111.833 138 111.833H43V146.167C43 149.107 45.3927 151.5 48.3333 151.5H149.333C152.274 151.5 154.667 149.107 154.667 146.167V91.3888H136C134.527 91.3888 133.333 90.1948 133.333 88.7222C133.333 87.2495 134.527 86.0555 136 86.0555H154.667V75.4998C154.667 72.5592 152.274 70.1665 149.333 70.1665H122.333V84.4998C122.333 90.3815 117.548 95.1665 111.667 95.1665H10.6667C4.785 95.1665 0 90.3815 0 84.4998V13.8332C0 7.9515 4.785 3.1665 10.6667 3.1665H111.667C117.548 3.1665 122.333 7.9515 122.333 13.8332V49.1665C122.333 50.6392 121.139 51.8332 119.667 51.8332C118.194 51.8332 117 50.6392 117 49.1665V13.8332C117 10.8925 114.607 8.49984 111.667 8.49984H10.6667C7.726 8.49984 5.33333 10.8925 5.33333 13.8332V84.4998C5.33333 87.4405 7.726 89.8332 10.6667 89.8332H111.667C114.607 89.8332 117 87.4405 117 84.4998V67.4998C117 66.0272 118.194 64.8332 119.667 64.8332H149.333C155.215 64.8332 160 69.6182 160 75.4998ZM54.3333 57.4998C54.3333 56.0272 53.1393 54.8332 51.6667 54.8332H21C19.5273 54.8332 18.3333 56.0272 18.3333 57.4998C18.3333 58.9725 19.5273 60.1665 21 60.1665H51.6667C53.1393 60.1665 54.3333 58.9725 54.3333 57.4998ZM67 54.8332C65.5273 54.8332 64.3333 56.0272 64.3333 57.4998C64.3333 58.9725 65.5273 60.1665 67 60.1665H77.3333C78.806 60.1665 80 58.9725 80 57.4998C80 56.0272 78.806 54.8332 77.3333 54.8332H67ZM91.3333 54.8332C89.8607 54.8332 88.6667 56.0272 88.6667 57.4998C88.6667 58.9725 89.8607 60.1665 91.3333 60.1665H95C96.4727 60.1665 97.6667 58.9725 97.6667 57.4998C97.6667 56.0272 96.4727 54.8332 95 54.8332H91.3333ZM21 73.4998C19.5273 73.4998 18.3333 74.6938 18.3333 76.1665C18.3333 77.6392 19.5273 78.8332 21 78.8332H38.3333C39.806 78.8332 41 77.6392 41 76.1665C41 74.6938 39.806 73.4998 38.3333 73.4998H21ZM18.3333 40.1665V21.8332C18.3333 20.3605 19.5273 19.1665 21 19.1665H39.3333C40.806 19.1665 42 20.3605 42 21.8332V40.1665C42 41.6392 40.806 42.8332 39.3333 42.8332H21C19.5273 42.8332 18.3333 41.6392 18.3333 40.1665ZM23.6667 37.4998H36.6667V24.4998H23.6667V37.4998ZM58.6667 127.833H77.3333C78.806 127.833 80 126.639 80 125.167C80 123.694 78.806 122.5 77.3333 122.5H58.6667C57.194 122.5 56 123.694 56 125.167C56 126.639 57.194 127.833 58.6667 127.833ZM58.6667 142.167H98.6667C100.139 142.167 101.333 140.973 101.333 139.5C101.333 138.027 100.139 136.833 98.6667 136.833H58.6667C57.194 136.833 56 138.027 56 139.5C56 140.973 57.194 142.167 58.6667 142.167Z" fill="#FF5656"/>
</svg>
