<svg width="160" height="160" viewBox="0 0 160 160" fill="none" xmlns="http://www.w3.org/2000/svg">
<path d="M11.6902 67.5L16.1173 67.5L5.22391 43.5347C5.05078 43.1539 4.97597 42.7357 5.00635 42.3185C5.03671 41.9012 5.17131 41.4983 5.39778 41.1466C5.62425 40.7948 5.93536 40.5056 6.30261 40.3052C6.66986 40.1049 7.08151 40 7.49985 40L14.9998 40C15.3482 39.9999 15.6927 40.0727 16.0113 40.2136C16.3299 40.3545 16.6155 40.5604 16.8499 40.8181L41.1061 67.5L74.267 67.5L45.668 36.7009C45.3369 36.3444 45.1172 35.899 45.0355 35.4193C44.9539 34.9397 45.0141 34.4467 45.2085 34.0007C45.403 33.5547 45.7234 33.1752 46.1304 32.9086C46.5374 32.6421 47.0133 32.5 47.4998 32.5L57.4998 32.5C58.0335 32.5001 58.5531 32.6709 58.9827 32.9875L105.821 67.5L130.498 67.5C135.558 67.4953 140.505 68.9932 144.712 71.8038L152.16 76.7688C153.173 77.4442 153.971 78.3954 154.46 79.5098C154.95 80.6243 155.11 81.8555 154.922 83.0581C154.734 84.2607 154.206 85.3845 153.401 86.2967C152.595 87.209 151.545 87.8716 150.375 88.2063C140.407 91.0547 130.091 92.4998 119.724 92.5L106.037 92.5L59.2676 139.268C59.0355 139.5 58.7599 139.684 58.4566 139.81C58.1532 139.935 57.8281 140 57.4998 140L47.4998 140C47.0448 140 46.5985 139.876 46.2089 139.641C45.8193 139.405 45.5012 139.068 45.289 138.666C45.0768 138.263 44.9785 137.811 45.0046 137.356C45.0307 136.902 45.1804 136.464 45.4373 136.088L75.2601 92.5L59.9998 92.5C59.8048 92.5 59.6105 92.4772 59.4208 92.4319L10.1395 80.6984C8.54498 80.3185 7.1454 79.3664 6.20639 78.0228C5.26739 76.6792 4.85432 75.0377 5.04559 73.4097C5.23686 71.7817 6.01915 70.2805 7.24398 69.1912C8.46882 68.1018 10.051 67.5 11.6902 67.5ZM13.8939 45L11.3824 45L21.6095 67.5L34.3486 67.5L13.8939 45ZM56.6783 37.5L53.233 37.5L81.0898 67.5L97.3923 67.5L56.6783 37.5ZM52.2408 135L56.4658 135L98.9658 92.5L81.3186 92.5L52.2408 135ZM11.2986 75.8347L60.2933 87.5L119.724 87.5C129.626 87.5003 139.479 86.1203 149 83.3997C149.253 83.3274 149.48 83.1843 149.654 82.9873C149.828 82.7902 149.942 82.5474 149.982 82.2876C150.023 82.0278 149.988 81.7618 149.882 81.5211C149.777 81.2804 149.604 81.0749 149.385 80.9291L147.5 79.6713L147.5 80L127.5 80L127.5 75L140.335 75C137.317 73.3572 133.935 72.4977 130.498 72.5L11.6902 72.5C11.276 72.4999 10.8762 72.652 10.5667 72.9272C10.2572 73.2025 10.0595 73.5818 10.0112 73.9932C9.9629 74.4045 10.0673 74.8193 10.3046 75.1588C10.542 75.4983 10.8957 75.7388 11.2986 75.8347Z" fill="#FF5656"/>
<path d="M122.5 75L117.5 75L117.5 80L122.5 80L122.5 75Z" fill="#FF5656"/>
<path d="M112.5 75L107.5 75L107.5 80L112.5 80L112.5 75Z" fill="#FF5656"/>
<path d="M102.5 75L97.5 75L97.5 80L102.5 80L102.5 75Z" fill="#FF5656"/>
<path d="M92.5 75L87.5 75L87.5 80L92.5 80L92.5 75Z" fill="#FF5656"/>
<path d="M82.5 75L77.5 75L77.5 80L82.5 80L82.5 75Z" fill="#FF5656"/>
<path d="M72.5 75L67.5 75L67.5 80L72.5 80L72.5 75Z" fill="#FF5656"/>
<path d="M62.5 75L57.5 75L57.5 80L62.5 80L62.5 75Z" fill="#FF5656"/>
<path d="M52.5 75L47.5 75L47.5 80L52.5 80L52.5 75Z" fill="#FF5656"/>
<path d="M60 102.5L55 102.5L55 107.5L60 107.5L60 102.5Z" fill="#FF5656"/>
<path d="M50 102.5L37.5 102.5L37.5 107.5L50 107.5L50 102.5Z" fill="#FF5656"/>
<path d="M47.5 117.5L42.5 117.5L42.5 122.5L47.5 122.5L47.5 117.5Z" fill="#FF5656"/>
<path d="M37.5 117.5L25 117.5L25 122.5L37.5 122.5L37.5 117.5Z" fill="#FF5656"/>
<path d="M55 22.5L50 22.5L50 27.5L55 27.5L55 22.5Z" fill="#FF5656"/>
<path d="M45 22.5L32.5 22.5L32.5 27.5L45 27.5L45 22.5Z" fill="#FF5656"/>
</svg>
