<svg width="20" height="20" viewBox="0 0 20 20" fill="none" xmlns="http://www.w3.org/2000/svg">
<g clip-path="url(#clip0_997_19320)">
<path d="M19.8903 8.6874L17.8904 6.1874C17.7176 5.97164 17.403 5.9367 17.1872 6.10927C16.9715 6.28185 16.9365 6.59664 17.1089 6.8124L18.4594 8.49987H13.4998C13.2236 8.49987 12.9998 8.72371 12.9998 8.9999C12.9998 9.27593 13.2236 9.49978 13.4998 9.49978H18.4597L17.1093 11.1872C16.9367 11.403 16.9718 11.7178 17.1875 11.8904C17.4031 12.0631 17.7179 12.028 17.8907 11.8122L19.8906 9.3124C20.0365 9.12944 20.0363 8.87005 19.8903 8.6874Z" fill="#02162C"/>
<path d="M2.50003 9.99985C2.77591 10 2.99976 9.77646 2.99991 9.50043C2.99991 9.50027 2.99991 9.50012 2.99991 9.49982V8.49991C2.99991 8.22372 2.77606 7.99988 2.50003 7.99988C2.22385 7.99988 2 8.22372 2 8.49991V9.49982C2 9.776 2.22385 9.99985 2.50003 9.99985Z" fill="#02162C"/>
<path d="M10.4999 7.80702e-08H0.500031C0.223999 -0.00015251 0.000152588 0.223389 0 0.49942V0.50003V17.4997C0 17.7231 0.148163 17.9192 0.362701 17.9806L7.36267 19.9806C7.62817 20.0565 7.90482 19.9026 7.98065 19.6371C7.99332 19.5924 7.99988 19.5462 7.99988 19.4997V17.9997H10.4997C10.7758 17.9999 10.9996 17.7763 10.9998 17.5003C10.9998 17.5001 10.9998 17.5 10.9998 17.4997V0.50003C10.9999 0.223999 10.7764 0.000152666 10.5003 7.80701e-08C10.5002 7.80701e-08 10.5 7.80702e-08 10.4999 7.80702e-08ZM6.99997 18.8367L1.00006 17.1228V1.16318L6.99997 2.87704V18.8367ZM9.99985 16.9998H7.99988V2.5C7.99973 2.27661 7.85172 2.08038 7.63702 2.01904L4.07043 1.00006H9.99985V16.9998Z" fill="#02162C"/>
</g>
<defs>
<clipPath id="clip0_997_19320">
<rect width="20" height="20" fill="white"/>
</clipPath>
</defs>
</svg>
