<svg width="20" height="20" viewBox="0 0 20 20" fill="none" xmlns="http://www.w3.org/2000/svg">
<path fill-rule="evenodd" clip-rule="evenodd" d="M6.45831 5.41667C6.45831 3.46066 8.04397 1.875 9.99998 1.875C11.956 1.875 13.5416 3.46066 13.5416 5.41667C13.5416 7.37268 11.956 8.95833 9.99998 8.95833C8.04397 8.95833 6.45831 7.37268 6.45831 5.41667ZM9.99998 3.125C8.73433 3.125 7.70831 4.15101 7.70831 5.41667C7.70831 6.68232 8.73432 7.70833 9.99998 7.70833C11.2656 7.70833 12.2916 6.68232 12.2916 5.41667C12.2916 4.15101 11.2656 3.125 9.99998 3.125Z" fill="white"/>
<path fill-rule="evenodd" clip-rule="evenodd" d="M7.80584 11.0416H12.1942C13.1043 11.0416 13.8255 11.0416 14.4069 11.0891C15.0014 11.1377 15.5044 11.239 15.9637 11.473C16.7085 11.8525 17.3141 12.4581 17.6936 13.2029C17.9276 13.6622 18.0289 14.1653 18.0775 14.7597C18.125 15.3411 18.125 16.0623 18.125 16.9724V17.5C18.125 17.8451 17.8452 18.125 17.5 18.125H2.5C2.15482 18.125 1.875 17.8451 1.875 17.5L1.875 16.9725C1.875 16.0623 1.87499 15.3411 1.92249 14.7597C1.97106 14.1653 2.0724 13.6622 2.30643 13.2029C2.68593 12.4581 3.29147 11.8525 4.0363 11.473C4.49561 11.239 4.99864 11.1377 5.59312 11.0891C6.17447 11.0416 6.89572 11.0416 7.80584 11.0416ZM4.60377 12.5868C4.09417 12.8465 3.67985 13.2608 3.42019 13.7704C3.29091 14.0241 3.21059 14.3443 3.16834 14.8615C3.1274 15.3626 3.12513 15.9966 3.12501 16.875H16.875C16.8749 15.9966 16.8726 15.3626 16.8317 14.8615C16.7894 14.3444 16.7091 14.0241 16.5798 13.7704C16.3202 13.2608 15.9058 12.8465 15.3962 12.5868M4.60377 12.5868C4.8575 12.4575 5.17773 12.3772 5.69491 12.335C6.21939 12.2921 6.8896 12.2916 7.83333 12.2916H12.1667C13.1104 12.2916 13.7806 12.2921 14.3051 12.335C14.8223 12.3772 15.1425 12.4575 15.3962 12.5868" fill="white"/>
</svg>
