<svg width="24" height="24" viewBox="0 0 24 24" fill="none" xmlns="http://www.w3.org/2000/svg">
<g id="Union">
<path d="M13.0208 13.6875L13.3194 6.77778H10.8194L11.1181 13.6875H13.0208Z" fill="#FF5656"/>
<path d="M11.1181 15.0069C10.8773 15.2292 10.7569 15.5069 10.7569 15.8403C10.7569 16.1736 10.8773 16.4537 11.1181 16.6806C11.3588 16.9028 11.6713 17.0139 12.0556 17.0139C12.4398 17.0139 12.75 16.9028 12.9861 16.6806C13.2269 16.4537 13.3472 16.1736 13.3472 15.8403C13.3472 15.5069 13.2269 15.2292 12.9861 15.0069C12.75 14.7801 12.4398 14.6667 12.0556 14.6667C11.6713 14.6667 11.3588 14.7801 11.1181 15.0069Z" fill="#FF5656"/>
<path fill-rule="evenodd" clip-rule="evenodd" d="M24 12C24 18.6274 18.6274 24 12 24C5.37258 24 0 18.6274 0 12C0 5.37258 5.37258 0 12 0C18.6274 0 24 5.37258 24 12ZM22.2222 12C22.2222 17.6456 17.6456 22.2222 12 22.2222C6.35442 22.2222 1.77778 17.6456 1.77778 12C1.77778 6.35442 6.35442 1.77778 12 1.77778C17.6456 1.77778 22.2222 6.35442 22.2222 12Z" fill="#FF5656"/>
</g>
</svg>
