<svg width="24" height="24" viewBox="0 0 24 24" fill="none" xmlns="http://www.w3.org/2000/svg">
<path fill-rule="evenodd" clip-rule="evenodd" d="M15.5173 1.35048C15.8761 1.14338 16.3347 1.26628 16.5419 1.625L18.8481 5.61945C18.9821 5.85163 18.982 6.1377 18.8478 6.36981C18.7137 6.60191 18.4658 6.74474 18.1977 6.74445L8.99022 6.73445C8.65092 6.73408 8.35412 6.50596 8.26648 6.17817C8.17884 5.85038 8.32219 5.50458 8.61604 5.33493L15.5173 1.35048ZM11.7848 5.23749L16.8987 5.24304L15.6178 3.02452L11.7848 5.23749Z" fill="#1C1B1F"/>
<path fill-rule="evenodd" clip-rule="evenodd" d="M3 6.75C2.86192 6.75 2.75 6.86192 2.75 7V21C2.75 21.1381 2.86192 21.25 3 21.25H21C21.1381 21.25 21.25 21.1381 21.25 21V7C21.25 6.86191 21.1381 6.75 21 6.75H3ZM1.25 7C1.25 6.03348 2.03351 5.25 3 5.25H21C21.9665 5.25 22.75 6.03349 22.75 7V21C22.75 21.9665 21.9665 22.75 21 22.75H3C2.03351 22.75 1.25 21.9665 1.25 21V7Z" fill="#1C1B1F"/>
<path fill-rule="evenodd" clip-rule="evenodd" d="M14.25 14C14.25 12.171 15.7959 10.75 17.625 10.75H22C22.4142 10.75 22.75 11.0858 22.75 11.5V16.5C22.75 16.9142 22.4142 17.25 22 17.25H17.625C15.7959 17.25 14.25 15.829 14.25 14ZM17.625 12.25C16.5546 12.25 15.75 13.0676 15.75 14C15.75 14.9324 16.5546 15.75 17.625 15.75H21.25V12.25H17.625Z" fill="#1C1B1F"/>
<path fill-rule="evenodd" clip-rule="evenodd" d="M22 7.5C22.4142 7.5 22.75 7.83579 22.75 8.25V20.25C22.75 20.6642 22.4142 21 22 21C21.5858 21 21.25 20.6642 21.25 20.25V8.25C21.25 7.83579 21.5858 7.5 22 7.5Z" fill="#1C1B1F"/>
</svg>
