<svg width="20" height="18" viewBox="0 0 20 18" fill="none" xmlns="http://www.w3.org/2000/svg">
<path d="M14.7266 0C11.8188 0 9.45312 2.38003 9.45312 5.30546C9.45312 8.23089 11.8188 10.6109 14.7266 10.6109C17.6343 10.6109 20 8.23089 20 5.30546C20 2.38003 17.6343 0 14.7266 0ZM14.7266 9.43193C12.465 9.43193 10.625 7.58079 10.625 5.30546C10.625 3.03012 12.465 1.17899 14.7266 1.17899C16.9882 1.17899 18.8281 3.03012 18.8281 5.30546C18.8281 7.58079 16.9882 9.43193 14.7266 9.43193Z" fill="#FF5656"/>
<path d="M13.2617 4.12626C13.5853 4.12626 13.8477 3.86233 13.8477 3.53676C13.8477 3.21119 13.5853 2.94727 13.2617 2.94727C12.9381 2.94727 12.6758 3.21119 12.6758 3.53676C12.6758 3.86233 12.9381 4.12626 13.2617 4.12626Z" fill="#FF5656"/>
<path d="M16.1914 7.66337C16.515 7.66337 16.7773 7.39944 16.7773 7.07387C16.7773 6.7483 16.515 6.48438 16.1914 6.48438C15.8678 6.48438 15.6055 6.7483 15.6055 7.07387C15.6055 7.39944 15.8678 7.66337 16.1914 7.66337Z" fill="#FF5656"/>
<path d="M16.5665 3.08391C16.3179 2.8755 15.9484 2.90926 15.7413 3.1594L12.8116 6.69638C12.6044 6.94648 12.638 7.31818 12.8866 7.52662C13.1346 7.73456 13.5042 7.70186 13.7119 7.45113L16.6415 3.91415C16.8487 3.66405 16.8151 3.29235 16.5665 3.08391Z" fill="#FF5656"/>
<path d="M17.2207 11.3157L14.6709 13.2105C14.4221 13.3892 14.1495 13.5251 13.8643 13.617C14.0158 13.1758 13.99 12.7028 13.7894 12.2796C13.582 11.8421 13.216 11.5167 12.7576 11.3629L7.66719 9.66853C6.13519 9.15461 4.07426 9.37689 2.69844 10.6106H0.585937C0.262344 10.6106 0 10.8746 0 11.2001V17.0951C0 17.4206 0.262344 17.6846 0.585937 17.6846H2.92969C3.25328 17.6846 3.51562 17.4206 3.51562 17.0951V16.6546L8.11133 17.7052C8.94941 17.8983 9.80836 17.9996 10.6032 17.9996C10.6395 17.9996 10.6757 17.9994 10.7118 17.999C12.9357 17.9728 15.0836 17.2602 16.9232 15.9383L19.2641 14.1938C20.0836 13.6049 20.2443 12.4414 19.615 11.65C19.032 10.9168 17.9803 10.7699 17.2207 11.3157ZM2.34375 16.5055H1.17187V11.7896H2.34375V16.5055ZM18.5829 13.2344L16.2421 14.9788C14.5984 16.16 12.6813 16.7966 10.6981 16.82C9.96488 16.8288 9.16039 16.7373 8.37191 16.5557L3.51562 15.4455V11.4573C4.77816 10.3548 6.52105 10.5269 7.29785 10.7874L12.3882 12.4818C12.5405 12.5329 12.6625 12.6414 12.7317 12.7872C12.8009 12.933 12.8079 13.0967 12.7515 13.248C12.6403 13.5462 12.318 13.701 12.0176 13.6002C12.017 13.6 12.0164 13.5999 12.0158 13.5997L8.42574 12.4087C8.11848 12.3068 7.78715 12.4748 7.68578 12.784C7.58445 13.0932 7.75144 13.4265 8.05875 13.5284L11.6709 14.7267C12.9117 15.1428 14.2877 14.9346 15.352 14.1698L17.9018 12.275C18.1549 12.0931 18.5055 12.1421 18.6998 12.3865C18.9093 12.6498 18.8578 13.0369 18.5829 13.2344Z" fill="#FF5656"/>
</svg>
