<svg width="40" height="36" viewBox="0 0 40 36" fill="none" xmlns="http://www.w3.org/2000/svg">
<path d="M29.4531 0C23.6376 0 18.9062 4.76006 18.9062 10.6109C18.9062 16.4618 23.6376 21.2218 29.4531 21.2218C35.2687 21.2218 40 16.4618 40 10.6109C40 4.76006 35.2687 0 29.4531 0ZM29.4531 18.8639C24.9299 18.8639 21.25 15.1616 21.25 10.6109C21.25 6.06025 24.9299 2.35798 29.4531 2.35798C33.9763 2.35798 37.6562 6.06025 37.6562 10.6109C37.6562 15.1616 33.9763 18.8639 29.4531 18.8639Z" fill="white"/>
<path d="M26.5234 8.253C27.1706 8.253 27.6953 7.72515 27.6953 7.07401C27.6953 6.42287 27.1706 5.89502 26.5234 5.89502C25.8762 5.89502 25.3516 6.42287 25.3516 7.07401C25.3516 7.72515 25.8762 8.253 26.5234 8.253Z" fill="white"/>
<path d="M32.3828 15.3267C33.03 15.3267 33.5547 14.7989 33.5547 14.1477C33.5547 13.4966 33.03 12.9688 32.3828 12.9688C31.7356 12.9688 31.2109 13.4966 31.2109 14.1477C31.2109 14.7989 31.7356 15.3267 32.3828 15.3267Z" fill="white"/>
<path d="M33.133 6.16831C32.6358 5.75149 31.8968 5.81901 31.4825 6.3193L25.6232 13.3932C25.2089 13.8934 25.2761 14.6368 25.7733 15.0537C26.2693 15.4696 27.0084 15.4042 27.4237 14.9027L33.2831 7.8288C33.6974 7.32859 33.6302 6.5852 33.133 6.16831Z" fill="white"/>
<path d="M34.4415 22.6324L29.3417 26.422C28.8443 26.7794 28.2991 27.0512 27.7285 27.235C28.0316 26.3525 27.9801 25.4065 27.5788 24.5602C27.1639 23.6851 26.432 23.0343 25.5152 22.7269L15.3344 19.338C12.2704 18.3102 8.14852 18.7548 5.39688 21.2222H1.17188C0.524687 21.2222 0 21.7501 0 22.4012V34.1911C0 34.8422 0.524687 35.3701 1.17188 35.3701H5.85938C6.50656 35.3701 7.03125 34.8422 7.03125 34.1911V33.3101L16.2227 35.4115C17.8988 35.7975 19.6167 36.0002 21.2064 36.0002C21.2791 36.0002 21.3515 35.9998 21.4236 35.9989C25.8714 35.9466 30.1671 34.5214 33.8465 31.8776L38.5281 28.3886C40.1673 27.2109 40.4886 24.8839 39.23 23.301C38.0639 21.8345 35.9605 21.5408 34.4415 22.6324ZM4.6875 33.0121H2.34375V23.5801H4.6875V33.0121ZM37.1659 26.4698L32.4842 29.9586C29.1967 32.3209 25.3626 33.5942 21.3962 33.6409C19.9298 33.6586 18.3208 33.4756 16.7438 33.1124L7.03125 30.892V22.9157C9.55633 20.7106 13.0421 21.0547 14.5957 21.5758L24.7764 24.9646C25.0811 25.0668 25.3251 25.2837 25.4634 25.5754C25.6017 25.8671 25.6158 26.1943 25.503 26.4969C25.2806 27.0934 24.636 27.4029 24.0352 27.2014C24.034 27.201 24.0327 27.2007 24.0316 27.2003L16.8515 24.8185C16.237 24.6147 15.5743 24.9506 15.3716 25.5689C15.1689 26.1874 15.5029 26.854 16.1175 27.0578L23.3419 29.4544C25.8234 30.2865 28.5755 29.8702 30.7039 28.3407L35.8036 24.5511C36.3098 24.1872 37.011 24.2852 37.3997 24.7739C37.8186 25.3006 37.7156 26.0747 37.1659 26.4698Z" fill="white"/>
</svg>
