<svg width="28" height="28" viewBox="0 0 28 28" fill="none" xmlns="http://www.w3.org/2000/svg">
<path d="M15.191 15.9688L15.5394 7.90741H12.6227L12.9711 15.9688H15.191Z" fill="#FF5656"/>
<path d="M12.9711 17.5081C12.6902 17.7674 12.5498 18.0914 12.5498 18.4803C12.5498 18.8692 12.6902 19.196 12.9711 19.4606C13.2519 19.7199 13.6165 19.8495 14.0648 19.8495C14.5131 19.8495 14.875 19.7199 15.1505 19.4606C15.4313 19.196 15.5718 18.8692 15.5718 18.4803C15.5718 18.0914 15.4313 17.7674 15.1505 17.5081C14.875 17.2434 14.5131 17.1111 14.0648 17.1111C13.6165 17.1111 13.2519 17.2434 12.9711 17.5081Z" fill="#FF5656"/>
<path fill-rule="evenodd" clip-rule="evenodd" d="M28 14C28 21.732 21.732 28 14 28C6.26801 28 0 21.732 0 14C0 6.26801 6.26801 0 14 0C21.732 0 28 6.26801 28 14ZM25.9259 14C25.9259 20.5865 20.5865 25.9259 14 25.9259C7.41349 25.9259 2.07407 20.5865 2.07407 14C2.07407 7.41349 7.41349 2.07407 14 2.07407C20.5865 2.07407 25.9259 7.41349 25.9259 14Z" fill="#FF5656"/>
</svg>
