<svg width="20" height="20" viewBox="0 0 20 20" fill="none" xmlns="http://www.w3.org/2000/svg">
<g clip-path="url(#clip0_1412_16618)">
<path d="M19.5837 9.58344C19.353 9.58344 19.1663 9.76988 19.1663 10C19.1663 11.2378 18.9245 12.4384 18.4466 13.5681C17.9846 14.6595 17.3242 15.6396 16.4819 16.482C15.6396 17.3243 14.6594 17.9846 13.5681 18.4467C12.4383 18.9246 11.2378 19.1663 9.99996 19.1663C8.76215 19.1663 7.5616 18.9246 6.43215 18.4467C5.34082 17.9846 4.36031 17.3243 3.51801 16.482C2.67602 15.6397 2.015 14.6595 1.55328 13.5681C1.07566 12.4384 0.833359 11.2378 0.833359 10C0.833359 8.76219 1.07566 7.56164 1.55328 6.43219C2.015 5.34059 2.67602 4.36035 3.51801 3.51805C4.36027 2.67605 5.34082 2.01504 6.43215 1.55332C7.5616 1.07543 8.76215 0.833398 9.99996 0.833398C11.2378 0.833398 12.4383 1.07539 13.5681 1.55332C14.5776 1.98059 15.4931 2.57902 16.2915 3.3334H14.762C14.5325 3.3334 14.3457 3.51984 14.3457 3.74996C14.3457 3.98008 14.5325 4.16652 14.762 4.16652H17.262C17.4927 4.16652 17.6795 3.98008 17.6795 3.74996V1.25C17.6795 1.01988 17.4927 0.833438 17.262 0.833438C17.0325 0.833438 16.8457 1.01988 16.8457 1.25V2.71086C15.0562 1.02965 12.6489 0 10 0C4.47723 0 0 4.47723 0 10C0 15.5225 4.47723 20 10 20C15.5225 20 20 15.5225 20 10C20 9.76988 19.8132 9.58344 19.5837 9.58344Z" fill="#FF5656"/>
<path d="M4.1665 5.83301V9.16613V12.4996H15.8337V9.16613V5.83301H4.1665ZM14.9999 9.16613V11.6658H4.99994V9.16613V6.66613H14.9999V9.16613Z" fill="#FF5656"/>
<path d="M9.99262 7.05762C8.8418 7.05762 7.90918 7.99055 7.90918 9.14105C7.90918 10.2916 8.84184 11.2248 9.99262 11.2248C11.1431 11.2248 12.0757 10.2916 12.0757 9.14105C12.0757 7.99055 11.1431 7.05762 9.99262 7.05762ZM9.99262 10.3911C9.30324 10.3911 8.74262 9.83016 8.74262 9.14105C8.74262 8.45168 9.30324 7.89105 9.99262 7.89105C10.6817 7.89105 11.2426 8.45168 11.2426 9.14105C11.2426 9.83016 10.6817 10.3911 9.99262 10.3911Z" fill="#FF5656"/>
<path d="M15.4162 12.916H4.58338C4.35326 12.916 4.1665 13.1028 4.1665 13.3335C4.1665 13.563 4.35326 13.7498 4.58338 13.7498H15.4162C15.6469 13.7498 15.8337 13.563 15.8337 13.3335C15.8337 13.1028 15.6469 12.916 15.4162 12.916Z" fill="#FF5656"/>
<path d="M15.4162 14.166H4.58338C4.35326 14.166 4.1665 14.3528 4.1665 14.5835C4.1665 14.813 4.35326 14.9998 4.58338 14.9998H15.4162C15.6469 14.9998 15.8337 14.813 15.8337 14.5835C15.8337 14.3528 15.6469 14.166 15.4162 14.166Z" fill="#FF5656"/>
</g>
<defs>
<clipPath id="clip0_1412_16618">
<rect width="20" height="20" fill="white"/>
</clipPath>
</defs>
</svg>
