<svg width="20" height="20" viewBox="0 0 20 20" fill="none" xmlns="http://www.w3.org/2000/svg">
<g clip-path="url(#clip0_1412_16634)">
<path d="M19.1414 0H0.820312C0.496674 0 0.234375 0.262299 0.234375 0.585938V9.55978C0.234375 12.7185 1.95053 15.6322 4.71313 17.1637L9.69666 19.9265C9.785 19.9754 9.88297 20 9.98077 20C10.0786 20 10.1765 19.9754 10.2649 19.9265L15.2484 17.1637C18.011 15.6322 19.7272 12.7185 19.7272 9.55978V0.585938C19.7273 0.262299 19.4649 0 19.1414 0ZM18.5555 9.55978C18.5555 12.2928 17.0706 14.8137 14.6803 16.1388L9.98077 18.744L5.28122 16.1388C2.89108 14.8137 1.40625 12.2928 1.40625 9.55978V1.17188H18.5555V9.55978Z" fill="#FF5656"/>
<path d="M4.83959 10.318C4.93008 10.5376 5.14401 10.6809 5.38143 10.6809C5.61886 10.6809 5.83279 10.5376 5.92327 10.318L7.41726 6.6901C7.5404 6.39087 7.39788 6.04846 7.09866 5.92517C6.79928 5.80188 6.45687 5.9447 6.33373 6.24393L5.38143 8.55625L4.42913 6.24393C4.30584 5.9447 3.96343 5.80203 3.66421 5.92517C3.36498 6.04846 3.22231 6.39087 3.34561 6.6901L4.83959 10.318Z" fill="#FF5656"/>
<path d="M8.48682 10.6807C8.81046 10.6807 9.07275 10.4184 9.07275 10.0947V8.8667H10.568C11.3912 8.8667 12.0609 8.19699 12.0609 7.37378C12.0609 6.55057 11.3912 5.88086 10.568 5.88086H8.48682C8.16318 5.88086 7.90088 6.14316 7.90088 6.4668V10.0947C7.90088 10.4184 8.16318 10.6807 8.48682 10.6807ZM9.07275 7.05273H10.568C10.745 7.05273 10.889 7.19678 10.889 7.37378C10.889 7.55078 10.745 7.69482 10.568 7.69482H9.07275V7.05273Z" fill="#FF5656"/>
<path d="M13.0859 10.6807C13.4096 10.6807 13.6719 10.4184 13.6719 10.0948V8.09986L15.6218 10.4673C15.7353 10.6051 15.9024 10.6807 16.0742 10.6807C16.1403 10.6807 16.2073 10.6696 16.272 10.6464C16.5048 10.5628 16.6602 10.3421 16.6602 10.0948V6.46687C16.6602 6.14323 16.3977 5.88093 16.0742 5.88093C15.7506 5.88093 15.4883 6.14323 15.4883 6.46687V8.4618L13.5384 6.0944C13.3812 5.90351 13.1209 5.8318 12.8882 5.91526C12.6553 5.99888 12.5 6.21952 12.5 6.46687V10.0948C12.5 10.4184 12.7625 10.6807 13.0859 10.6807Z" fill="#FF5656"/>
</g>
<defs>
<clipPath id="clip0_1412_16634">
<rect width="20" height="20" fill="white"/>
</clipPath>
</defs>
</svg>
