<svg width="20" height="20" viewBox="0 0 20 20" fill="none" xmlns="http://www.w3.org/2000/svg">
<g clip-path="url(#clip0_1412_16586)">
<path d="M11.1219 6.82422C8.15016 6.82422 5.73242 9.24195 5.73242 12.2137C5.73242 15.1855 8.15016 17.6032 11.1219 17.6032C14.0937 17.6032 16.5114 15.1855 16.5114 12.2137C16.5114 9.24195 14.0937 6.82422 11.1219 6.82422ZM11.1219 11.5292C11.4993 11.5292 11.8064 11.8362 11.8064 12.2137C11.8064 12.5911 11.4993 12.8982 11.1219 12.8982C10.7445 12.8982 10.4374 12.5911 10.4374 12.2137C10.4374 11.8362 10.7445 11.5292 11.1219 11.5292ZM11.1219 16.4313C8.79633 16.4313 6.9043 14.5393 6.9043 12.2137C6.9043 10.0869 8.48672 8.32305 10.536 8.03695V10.4526C9.79871 10.6986 9.26555 11.3948 9.26555 12.2137C9.26555 13.2373 10.0983 14.07 11.1219 14.07C12.1455 14.07 12.9783 13.2373 12.9783 12.2137C12.9783 11.3948 12.4451 10.6986 11.7079 10.4526V8.03695C13.7571 8.32305 15.3395 10.0869 15.3395 12.2137C15.3395 14.5393 13.4475 16.4313 11.1219 16.4313Z" fill="#FF5656"/>
<path d="M19.1023 8.18004L20 7.42672L17.5643 4.52418L16.6667 5.2775L17.5079 6.27992L16.7864 6.88527C15.4919 5.50992 13.7038 4.60422 11.7079 4.45492V3.55078H14.7947V0.00585938H7.44934V3.55078H10.5361V4.45492C7.89367 4.65258 5.61504 6.17582 4.36453 8.36H1.77219V9.53187H3.81762C3.69512 9.86441 3.5952 10.2077 3.51871 10.5596H0.45707V11.7315H3.35652C3.34672 11.8911 3.34113 12.0518 3.34113 12.2139C3.34113 12.3973 3.34801 12.5791 3.36055 12.7593H1.51176V13.9312H3.5325C3.61215 14.2834 3.71594 14.6266 3.84168 14.959H0V16.1309H4.40137C5.75246 18.4401 8.25895 19.9948 11.122 19.9948C15.4124 19.9948 18.9029 16.5043 18.9029 12.2139C18.9029 10.5745 18.3928 9.05227 17.5237 7.79656L18.2612 7.17773L19.1023 8.18004ZM8.62121 1.17773H13.6228V2.37891H8.62121V1.17773ZM11.122 18.8228C7.47781 18.8228 4.51305 15.858 4.51305 12.2138C4.51305 8.56961 7.47781 5.60484 11.122 5.60484C14.7662 5.60484 17.731 8.56961 17.731 12.2138C17.731 15.858 14.7662 18.8228 11.122 18.8228Z" fill="#FF5656"/>
</g>
<defs>
<clipPath id="clip0_1412_16586">
<rect width="20" height="20" fill="white"/>
</clipPath>
</defs>
</svg>
