<svg width="40" height="40" viewBox="0 0 40 40" fill="none" xmlns="http://www.w3.org/2000/svg">
<g clip-path="url(#clip0_1209_20602)">
<path d="M22.2441 13.6479C16.3006 13.6479 11.4651 18.4834 11.4651 24.4269C11.4651 30.3704 16.3006 35.2059 22.2441 35.2059C28.1876 35.2059 33.0231 30.3704 33.0231 24.4269C33.0231 18.4834 28.1876 13.6479 22.2441 13.6479ZM22.2441 23.0579C22.9989 23.0579 23.6131 23.672 23.6131 24.4269C23.6131 25.1817 22.9989 25.7958 22.2441 25.7958C21.4892 25.7958 20.8751 25.1817 20.8751 24.4269C20.8751 23.672 21.4892 23.0579 22.2441 23.0579ZM22.2441 32.8621C17.5929 32.8621 13.8088 29.078 13.8088 24.4269C13.8088 20.1733 16.9737 16.6456 21.0722 16.0734V20.9047C19.5977 21.3966 18.5313 22.7891 18.5313 24.4269C18.5313 26.474 20.1969 28.1396 22.2441 28.1396C24.2913 28.1396 25.9568 26.474 25.9568 24.4269C25.9568 22.7891 24.8904 21.3966 23.4159 20.9047V16.0734C27.5144 16.6456 30.6793 20.1733 30.6793 24.4269C30.6792 29.0781 26.8952 32.8621 22.2441 32.8621Z" fill="white"/>
<path d="M38.2047 16.3596L40 14.8529L35.1287 9.04787L33.3334 10.5545L35.0157 12.5594L33.5729 13.7701C30.9837 11.0194 27.4076 9.20795 23.4159 8.90936V7.10107H29.5894V0.0112305H14.8987V7.10107H21.0722V8.90936C15.7873 9.30467 11.2301 12.3512 8.72906 16.7195H3.54437V19.0633H7.63523C7.39023 19.7283 7.19039 20.4149 7.03742 21.1188H0.914141V23.4626H6.71305C6.69344 23.7818 6.68227 24.1032 6.68227 24.4272C6.68227 24.794 6.69602 25.1576 6.72109 25.5182H3.02352V27.8619H7.065C7.2243 28.5664 7.43188 29.2526 7.68336 29.9176H0V32.2613H8.80273C11.5049 36.8797 16.5179 39.989 22.2441 39.989C30.8248 39.989 37.8058 33.0081 37.8058 24.4273C37.8058 21.1486 36.7856 18.104 35.0473 15.5926L36.5223 14.355L38.2047 16.3596ZM17.2424 2.35498H27.2456V4.75732H17.2424V2.35498ZM22.2441 37.6451C14.9556 37.6451 9.02609 31.7156 9.02609 24.4272C9.02609 17.1387 14.9556 11.2092 22.2441 11.2092C29.5325 11.2092 35.462 17.1387 35.462 24.4272C35.462 31.7156 29.5325 37.6451 22.2441 37.6451Z" fill="white"/>
</g>
<defs>
<clipPath id="clip0_1209_20602">
<rect width="40" height="40" fill="white"/>
</clipPath>
</defs>
</svg>
