<svg width="40" height="40" viewBox="0 0 40 40" fill="none" xmlns="http://www.w3.org/2000/svg">
<path fill-rule="evenodd" clip-rule="evenodd" d="M6.66667 11.25C6.43655 11.25 6.25 11.4365 6.25 11.6667V33.3333C6.25 33.5635 6.43655 33.75 6.66667 33.75H33.3333C33.5635 33.75 33.75 33.5635 33.75 33.3333V11.6667C33.75 11.4365 33.5635 11.25 33.3333 11.25H6.66667ZM3.75 11.6667C3.75 10.0558 5.05584 8.75 6.66667 8.75H33.3333C34.9442 8.75 36.25 10.0558 36.25 11.6667V33.3333C36.25 34.9442 34.9442 36.25 33.3333 36.25H6.66667C5.05584 36.25 3.75 34.9442 3.75 33.3333V11.6667Z" fill="#02162C"/>
<path fill-rule="evenodd" clip-rule="evenodd" d="M13.708 20.0068C13.708 19.3165 14.2677 18.7568 14.958 18.7568H24.958C25.6484 18.7568 26.208 19.3165 26.208 20.0068C26.208 20.6972 25.6484 21.2568 24.958 21.2568H14.958C14.2677 21.2568 13.708 20.6972 13.708 20.0068Z" fill="#02162C"/>
<path fill-rule="evenodd" clip-rule="evenodd" d="M9.89263 3.34362C10.13 3.07235 10.4729 2.91675 10.8334 2.91675H29.1667C29.5271 2.91675 29.87 3.07235 30.1074 3.34362L35.9407 10.0103C36.3953 10.5298 36.3427 11.3195 35.8232 11.7741C35.3036 12.2287 34.5139 12.1761 34.0593 11.6565L28.5995 5.41675H11.4006L5.94074 11.6565C5.48614 12.1761 4.69643 12.2287 4.17689 11.7741C3.65734 11.3195 3.60469 10.5298 4.0593 10.0103L9.89263 3.34362Z" fill="#02162C"/>
</svg>
