<svg width="40" height="40" viewBox="0 0 40 40" fill="none" xmlns="http://www.w3.org/2000/svg">
<path fill-rule="evenodd" clip-rule="evenodd" d="M13.3332 7.08325C13.103 7.08325 12.9165 7.26979 12.9165 7.49992V10.8332C12.9165 11.5236 12.3569 12.0832 11.6665 12.0832C10.9761 12.0832 10.4165 11.5236 10.4165 10.8332V7.49992C10.4165 5.8891 11.7223 4.58325 13.3332 4.58325H34.9998C36.6107 4.58325 37.9165 5.8891 37.9165 7.49992V22.4999C37.9165 24.1108 36.6107 25.4166 34.9998 25.4166H33.3332C32.6428 25.4166 32.0832 24.8569 32.0832 24.1666C32.0832 23.4762 32.6428 22.9166 33.3332 22.9166H34.9998C35.23 22.9166 35.4165 22.7301 35.4165 22.4999V7.49992C35.4165 7.26979 35.23 7.08325 34.9998 7.08325H13.3332Z" fill="#02162C"/>
<path fill-rule="evenodd" clip-rule="evenodd" d="M5.00016 17.0833C4.77004 17.0833 4.5835 17.2698 4.5835 17.4999V32.4999C4.5835 32.73 4.77004 32.9166 5.00016 32.9166H26.6668C26.8969 32.9166 27.0835 32.73 27.0835 32.4999V17.4999C27.0835 17.2698 26.8969 17.0833 26.6668 17.0833H5.00016ZM2.0835 17.4999C2.0835 15.8891 3.38933 14.5833 5.00016 14.5833H26.6668C28.2777 14.5833 29.5835 15.8891 29.5835 17.4999V32.4999C29.5835 34.1108 28.2777 35.4166 26.6668 35.4166H5.00016C3.38933 35.4166 2.0835 34.1108 2.0835 32.4999V17.4999Z" fill="#02162C"/>
<path fill-rule="evenodd" clip-rule="evenodd" d="M2.0835 23.3333C2.0835 22.6429 2.64314 22.0833 3.3335 22.0833H28.3335C29.0239 22.0833 29.5835 22.6429 29.5835 23.3333C29.5835 24.0236 29.0239 24.5833 28.3335 24.5833H3.3335C2.64314 24.5833 2.0835 24.0236 2.0835 23.3333Z" fill="#02162C"/>
<path fill-rule="evenodd" clip-rule="evenodd" d="M28.3335 17.9167C29.0239 17.9167 29.5835 18.4764 29.5835 19.1667V29.1667C29.5835 29.8571 29.0239 30.4167 28.3335 30.4167C27.6431 30.4167 27.0835 29.8571 27.0835 29.1667V19.1667C27.0835 18.4764 27.6431 17.9167 28.3335 17.9167Z" fill="#02162C"/>
<path fill-rule="evenodd" clip-rule="evenodd" d="M3.3335 17.9167C4.02385 17.9167 4.5835 18.4764 4.5835 19.1667V29.1667C4.5835 29.8571 4.02385 30.4167 3.3335 30.4167C2.64314 30.4167 2.0835 29.8571 2.0835 29.1667V19.1667C2.0835 18.4764 2.64314 17.9167 3.3335 17.9167Z" fill="#02162C"/>
<path fill-rule="evenodd" clip-rule="evenodd" d="M7.9165 28.3333C7.9165 27.6429 8.47615 27.0833 9.1665 27.0833H15.8332C16.5235 27.0833 17.0832 27.6429 17.0832 28.3333C17.0832 29.0236 16.5235 29.5833 15.8332 29.5833H9.1665C8.47615 29.5833 7.9165 29.0236 7.9165 28.3333Z" fill="#02162C"/>
<path fill-rule="evenodd" clip-rule="evenodd" d="M19.5835 28.3333C19.5835 27.6429 20.1431 27.0833 20.8335 27.0833H22.5002C23.1905 27.0833 23.7502 27.6429 23.7502 28.3333C23.7502 29.0236 23.1905 29.5833 22.5002 29.5833H20.8335C20.1431 29.5833 19.5835 29.0236 19.5835 28.3333Z" fill="#02162C"/>
</svg>
