<svg width="40" height="40" viewBox="0 0 40 40" fill="none" xmlns="http://www.w3.org/2000/svg">
<g clip-path="url(#clip0_1096_3030)">
<path d="M15.2023 29.8992C12.4175 29.8992 10.1519 32.1648 10.1519 34.9496C10.1519 37.7345 12.4175 40.0001 15.2023 40.0001C17.9871 40.0001 20.2528 37.7345 20.2528 34.9496C20.2528 32.1648 17.9871 29.8992 15.2023 29.8992ZM15.2023 36.9698C14.0882 36.9698 13.1822 36.0638 13.1822 34.9496C13.1822 33.8355 14.0882 32.9295 15.2023 32.9295C16.3159 32.9295 17.2225 33.8355 17.2225 34.9496C17.2225 36.0637 16.3164 36.9698 15.2023 36.9698Z" fill="black"/>
<path d="M30.1515 29.8992C27.3667 29.8992 25.1011 32.1648 25.1011 34.9496C25.1011 37.7345 27.3667 40.0001 30.1515 40.0001C32.9364 40.0001 35.202 37.7345 35.202 34.9496C35.202 32.1648 32.9364 29.8992 30.1515 29.8992ZM30.1515 36.9698C29.0374 36.9698 28.1314 36.0638 28.1314 34.9496C28.1314 33.8355 29.0374 32.9295 30.1515 32.9295C31.2657 32.9295 32.1717 33.8355 32.1717 34.9496C32.1717 36.0637 31.2657 36.9698 30.1515 36.9698Z" fill="black"/>
<path d="M38.9131 9.86513C38.6252 9.50349 38.1889 9.29295 37.7273 9.29295H11.1974L9.82018 2.33243C9.69948 1.72282 9.2187 1.2486 8.60706 1.1365L2.54654 0.0254058C1.72185 -0.126625 0.933966 0.419389 0.782951 1.24259C0.631936 2.06579 1.17686 2.85516 2.00013 3.00618L7.04754 3.93141L11.4939 26.4053C11.6343 27.1149 12.257 27.6265 12.9802 27.6265H34.192C34.8976 27.6265 35.5092 27.1401 35.6683 26.4517L39.2036 11.149C39.3076 10.699 39.2005 10.2262 38.9131 9.86513ZM32.987 24.5962H14.2246L11.7969 12.3237H35.8217L32.987 24.5962Z" fill="black"/>
</g>
<defs>
<clipPath id="clip0_1096_3030">
<rect width="40" height="40" fill="white"/>
</clipPath>
</defs>
</svg>
