<svg width="40" height="40" viewBox="0 0 40 40" fill="none" xmlns="http://www.w3.org/2000/svg">
<g clip-path="url(#clip0_1096_3050)">
<path d="M4.04688 35.9531H35.9453V21.2812H4.04688V35.9531ZM37.5469 39.1406H2.45312C1.57031 39.1406 0.859375 38.4297 0.859375 37.5469V19.6875C0.859375 18.8047 1.57031 18.0938 2.45312 18.0938H37.5469C38.4297 18.0938 39.1406 18.8047 39.1406 19.6875V37.5469C39.1406 38.4297 38.4297 39.1406 37.5469 39.1406Z" fill="black"/>
<path d="M20.5078 31.7812C20.8438 31.7187 21.1172 31.5703 21.3281 31.3281C21.5391 31.0859 21.6406 30.8047 21.6406 30.4766C21.6406 30.1875 21.5547 29.9375 21.375 29.7266C21.1953 29.5156 20.9062 29.3516 20.5 29.2422V31.7812H20.5078ZM19.5313 24.8594C19.2656 24.9453 19.0547 25.0938 18.8984 25.3047C18.7422 25.5156 18.6641 25.7422 18.6641 25.9922C18.6641 26.2188 18.7344 26.4375 18.8828 26.6328C19.0234 26.8281 19.2422 26.9922 19.5391 27.1094V24.8594H19.5313ZM19.5313 31.6875V28.9609C18.6484 28.7188 18.0078 28.3516 17.5938 27.8594C17.1797 27.3672 16.9766 26.7734 16.9766 26.0703C16.9766 25.3594 17.2109 24.7656 17.6719 24.2812C18.1328 23.7969 18.7578 23.5234 19.5234 23.4453V22.8047H20.5V23.4453C21.2109 23.5313 21.7813 23.7656 22.2031 24.1484C22.625 24.5391 22.8906 25.0547 23.0078 25.7031L21.3047 25.9141C21.2031 25.4063 20.9297 25.0547 20.5 24.875V27.4219C21.5781 27.7031 22.3125 28.0703 22.7031 28.5156C23.0938 28.9609 23.2891 29.5391 23.2891 30.2422C23.2891 31.0234 23.0469 31.6875 22.5547 32.2266C22.0625 32.7656 21.3828 33.0938 20.5078 33.2109V34.4297H19.5313V33.25C18.7578 33.1563 18.125 32.8828 17.6406 32.4141C17.1563 31.9453 16.8438 31.2891 16.7109 30.4297L18.4688 30.25C18.5391 30.5938 18.6719 30.8984 18.875 31.1484C19.0703 31.3906 19.2891 31.5781 19.5313 31.6875Z" fill="black"/>
<path d="M33.3594 15.6172H6.64063C5.75781 15.6172 5.04688 14.9062 5.04688 14.0234C5.04688 13.1406 5.75781 12.4297 6.64063 12.4297H33.3594C34.2422 12.4297 34.9531 13.1406 34.9531 14.0234C34.9531 14.8984 34.2422 15.6172 33.3594 15.6172Z" fill="black"/>
<path d="M28.5703 9.82813H11.4297C10.5469 9.82813 9.83594 9.11719 9.83594 8.23438C9.83594 7.35156 10.5469 6.64062 11.4297 6.64062H28.5781C29.4609 6.64062 30.1719 7.35156 30.1719 8.23438C30.1719 9.11719 29.4531 9.82813 28.5703 9.82813Z" fill="black"/>
<path d="M22.8516 4.04688H17.1406C16.2578 4.04688 15.5469 3.33594 15.5469 2.45312C15.5469 1.57031 16.2578 0.859375 17.1406 0.859375H22.8516C23.7344 0.859375 24.4453 1.57031 24.4453 2.45312C24.4531 3.33594 23.7344 4.04688 22.8516 4.04688Z" fill="black"/>
</g>
<defs>
<clipPath id="clip0_1096_3050">
<rect width="40" height="40" fill="white"/>
</clipPath>
</defs>
</svg>
