<svg width="40" height="40" viewBox="0 0 40 40" fill="none" xmlns="http://www.w3.org/2000/svg">
<path fill-rule="evenodd" clip-rule="evenodd" d="M19.2887 36.6666C26.0776 36.6666 33.3332 35.8421 33.3332 25.1501C33.3332 19.9702 32.0903 15.7534 29.6045 12.4999C27.2825 16.3888 25.5615 18.3333 24.4414 18.3333C22.7614 18.3333 24.4414 13.2588 22.4988 9.40942C21.2036 6.8432 18.9064 4.8178 15.6073 3.33325C16.066 7.03068 15.9668 9.71275 15.3094 11.3794C14.3233 13.8794 5.95912 18.2583 6.7147 25.779C7.47028 33.2998 12.4998 36.6666 19.2887 36.6666Z" stroke="#02162C" stroke-width="1.5" stroke-linejoin="round"/>
<path d="M18.0895 20.0068C14.9188 22.8888 13.5674 25.5561 14.0354 28.009C14.4383 30.1206 16.0404 31.1469 17.2473 31.4778C18.1828 31.7344 19.8028 31.8779 21.2502 30.5888C22.7833 29.2234 22.1724 27.2823 19.9492 24.8808C19.0113 23.8678 18.3914 22.2432 18.0895 20.0068Z" stroke="#02162C" stroke-width="1.5" stroke-linejoin="round"/>
</svg>
