<svg width="40" height="40" viewBox="0 0 40 40" fill="none" xmlns="http://www.w3.org/2000/svg">
<path fill-rule="evenodd" clip-rule="evenodd" d="M11.6667 21.25C10.0558 21.25 8.75 22.5558 8.75 24.1667C8.75 25.7775 10.0558 27.0833 11.6667 27.0833C13.2775 27.0833 14.5833 25.7775 14.5833 24.1667C14.5833 22.5558 13.2775 21.25 11.6667 21.25ZM6.25 24.1667C6.25 21.1751 8.67512 18.75 11.6667 18.75C14.6582 18.75 17.0833 21.1751 17.0833 24.1667C17.0833 27.1582 14.6582 29.5833 11.6667 29.5833C8.67512 29.5833 6.25 27.1582 6.25 24.1667Z" fill="#02162C"/>
<path fill-rule="evenodd" clip-rule="evenodd" d="M28.3332 21.25C26.7223 21.25 25.4165 22.5558 25.4165 24.1667C25.4165 25.7775 26.7223 27.0833 28.3332 27.0833C29.944 27.0833 31.2498 25.7775 31.2498 24.1667C31.2498 22.5558 29.944 21.25 28.3332 21.25ZM22.9165 24.1667C22.9165 21.1751 25.3416 18.75 28.3332 18.75C31.3247 18.75 33.7498 21.1751 33.7498 24.1667C33.7498 27.1582 31.3247 29.5833 28.3332 29.5833C25.3416 29.5833 22.9165 27.1582 22.9165 24.1667Z" fill="#02162C"/>
<path fill-rule="evenodd" clip-rule="evenodd" d="M20.0002 4.58325C18.3893 4.58325 17.0835 5.88909 17.0835 7.49992C17.0835 9.11075 18.3893 10.4166 20.0002 10.4166C21.611 10.4166 22.9168 9.11075 22.9168 7.49992C22.9168 5.88909 21.611 4.58325 20.0002 4.58325ZM14.5835 7.49992C14.5835 4.50838 17.0086 2.08325 20.0002 2.08325C22.9917 2.08325 25.4168 4.50838 25.4168 7.49992C25.4168 10.4915 22.9917 12.9166 20.0002 12.9166C17.0086 12.9166 14.5835 10.4915 14.5835 7.49992Z" fill="#02162C"/>
<path fill-rule="evenodd" clip-rule="evenodd" d="M2.0835 36.6666C2.0835 31.3739 6.37409 27.0833 11.6668 27.0833C16.9595 27.0833 21.2502 31.3739 21.2502 36.6666C21.2502 37.3569 20.6905 37.9166 20.0002 37.9166C19.3098 37.9166 18.7502 37.3569 18.7502 36.6666C18.7502 32.7546 15.5788 29.5833 11.6668 29.5833C7.75481 29.5833 4.5835 32.7546 4.5835 36.6666C4.5835 37.3569 4.02385 37.9166 3.3335 37.9166C2.64314 37.9166 2.0835 37.3569 2.0835 36.6666Z" fill="#02162C"/>
<path fill-rule="evenodd" clip-rule="evenodd" d="M18.75 36.6666C18.75 31.3739 23.0406 27.0833 28.3333 27.0833C33.626 27.0833 37.9167 31.3739 37.9167 36.6666C37.9167 37.3569 37.357 37.9166 36.6667 37.9166C35.9763 37.9166 35.4167 37.3569 35.4167 36.6666C35.4167 32.7546 32.2453 29.5833 28.3333 29.5833C24.4214 29.5833 21.25 32.7546 21.25 36.6666C21.25 37.3569 20.6904 37.9166 20 37.9166C19.3096 37.9166 18.75 37.3569 18.75 36.6666Z" fill="#02162C"/>
<path fill-rule="evenodd" clip-rule="evenodd" d="M10.4165 20.0001C10.4165 14.7074 14.7071 10.4167 19.9998 10.4167C25.2925 10.4167 29.5832 14.7074 29.5832 20.0001C29.5832 20.6904 29.0235 21.2501 28.3332 21.2501C27.6428 21.2501 27.0832 20.6904 27.0832 20.0001C27.0832 16.0881 23.9118 12.9167 19.9998 12.9167C16.0879 12.9167 12.9165 16.0881 12.9165 20.0001C12.9165 20.6904 12.3569 21.2501 11.6665 21.2501C10.9761 21.2501 10.4165 20.6904 10.4165 20.0001Z" fill="#02162C"/>
</svg>
