<svg width="12" height="12" viewBox="0 0 12 12" fill="none" xmlns="http://www.w3.org/2000/svg">
<path fill-rule="evenodd" clip-rule="evenodd" d="M11.4099 1.13647C10.9371 0.663669 10.1705 0.66367 9.69774 1.13647L6.27362 4.5606L2.84931 1.13629C2.37651 0.663489 1.60995 0.663489 1.13715 1.13629C0.664346 1.60909 0.664347 2.37565 1.13715 2.84846L4.56145 6.27276L1.13692 9.6973C0.664114 10.1701 0.664114 10.9367 1.13692 11.4095C1.60972 11.8823 2.37628 11.8823 2.84908 11.4095L6.27362 7.98493L9.69798 11.4093C10.1708 11.8821 10.9373 11.8821 11.4101 11.4093C11.8829 10.9365 11.8829 10.1699 11.4101 9.69712L7.98578 6.27276L11.4099 2.84864C11.8827 2.37583 11.8827 1.60927 11.4099 1.13647Z" fill="#02162C"/>
</svg>
