<svg width="15" height="15" viewBox="0 0 15 15" fill="none" xmlns="http://www.w3.org/2000/svg">
<path fill-rule="evenodd" clip-rule="evenodd" d="M8.25033 0.75C8.25033 0.335786 7.91454 0 7.50033 0C7.08611 0 6.75033 0.335787 6.75033 0.75V6.75008H0.75C0.335786 6.75008 0 7.08587 0 7.50008C0 7.9143 0.335787 8.25008 0.75 8.25008H6.75032V14.25C6.75032 14.6642 7.08611 15 7.50032 15C7.91454 15 8.25032 14.6642 8.25032 14.25V8.25008H14.25C14.6642 8.25008 15 7.9143 15 7.50008C15 7.08587 14.6642 6.75008 14.25 6.75008H8.25033V0.75Z" fill="#FF5656"/>
</svg>
